<svg width="51" height="45" viewBox="0 0 51 45" fill="none" xmlns="http://www.w3.org/2000/svg">
<g clip-path="url(#clip0_48_384)">
<path d="M9.47076 30.4253C9.09248 30.4253 8.72968 30.5755 8.46219 30.843C8.19471 31.1104 8.04443 31.4732 8.04443 31.8514V38.4613C8.04443 38.8395 8.19471 39.2022 8.46219 39.4696C8.72968 39.7371 9.09248 39.8873 9.47076 39.8873H20.2752V30.4253H9.47076Z" fill="black"/>
<path d="M31.0798 30.4253H20.2754V39.9016H31.0798C31.4581 39.9016 31.8209 39.7514 32.0884 39.4839C32.3559 39.2165 32.5061 38.8537 32.5061 38.4755V31.8656C32.508 31.6772 32.4725 31.4902 32.4017 31.3155C32.3309 31.1409 32.2261 30.9819 32.0935 30.848C31.9608 30.7141 31.803 30.6078 31.629 30.5352C31.455 30.4626 31.2683 30.4253 31.0798 30.4253Z" fill="black"/>
<path d="M31.0798 30.8818H20.2754V39.4383H31.0798C31.2081 39.4383 31.3352 39.413 31.4537 39.3639C31.5723 39.3149 31.68 39.2429 31.7707 39.1522C31.8614 39.0615 31.9334 38.9538 31.9825 38.8353C32.0316 38.7168 32.0569 38.5897 32.0569 38.4614V31.8516C32.055 31.5937 31.9512 31.3471 31.7682 31.1654C31.5852 30.9838 31.3377 30.8818 31.0798 30.8818Z" fill="#8A8A8A"/>
<path d="M9.47069 30.8818C9.21214 30.8837 8.96471 30.9872 8.78188 31.17C8.59906 31.3528 8.49552 31.6002 8.49365 31.8587V38.4686C8.49365 38.7277 8.59659 38.9761 8.77982 39.1593C8.96305 39.3425 9.21156 39.4454 9.47069 39.4454H20.2751V30.889L9.47069 30.8818Z" fill="#8A8A8A"/>
<path d="M11.1038 31.7588H9.57768C9.5186 31.7588 9.4707 31.8067 9.4707 31.8657V33.3917C9.4707 33.4507 9.5186 33.4986 9.57768 33.4986H11.1038C11.1629 33.4986 11.2108 33.4507 11.2108 33.3917V31.8657C11.2108 31.8067 11.1629 31.7588 11.1038 31.7588Z" fill="#F5F5F5"/>
<path d="M11.1038 34.2974H9.57768C9.5186 34.2974 9.4707 34.3453 9.4707 34.4043V35.9302C9.4707 35.9893 9.5186 36.0372 9.57768 36.0372H11.1038C11.1629 36.0372 11.2108 35.9893 11.2108 35.9302V34.4043C11.2108 34.3453 11.1629 34.2974 11.1038 34.2974Z" fill="#F5F5F5"/>
<path d="M11.1038 36.8286H9.57768C9.5186 36.8286 9.4707 36.8765 9.4707 36.9356V38.4615C9.4707 38.5205 9.5186 38.5684 9.57768 38.5684H11.1038C11.1629 38.5684 11.2108 38.5205 11.2108 38.4615V36.9356C11.2108 36.8765 11.1629 36.8286 11.1038 36.8286Z" fill="#F5F5F5"/>
<path d="M13.6141 31.7588H12.0879C12.0289 31.7588 11.981 31.8067 11.981 31.8657V33.3917C11.981 33.4507 12.0289 33.4986 12.0879 33.4986H13.6141C13.6732 33.4986 13.7211 33.4507 13.7211 33.3917V31.8657C13.7211 31.8067 13.6732 31.7588 13.6141 31.7588Z" fill="#F5F5F5"/>
<path d="M13.6141 34.2974H12.0879C12.0289 34.2974 11.981 34.3453 11.981 34.4043V35.9302C11.981 35.9893 12.0289 36.0372 12.0879 36.0372H13.6141C13.6732 36.0372 13.7211 35.9893 13.7211 35.9302V34.4043C13.7211 34.3453 13.6732 34.2974 13.6141 34.2974Z" fill="#F5F5F5"/>
<path d="M16.0604 31.7588H14.5342C14.4751 31.7588 14.4272 31.8067 14.4272 31.8657V33.3917C14.4272 33.4507 14.4751 33.4986 14.5342 33.4986H16.0604C16.1195 33.4986 16.1674 33.4507 16.1674 33.3917V31.8657C16.1674 31.8067 16.1195 31.7588 16.0604 31.7588Z" fill="#F5F5F5"/>
<path d="M16.0604 34.2974H14.5342C14.4751 34.2974 14.4272 34.3453 14.4272 34.4043V35.9302C14.4272 35.9893 14.4751 36.0372 14.5342 36.0372H16.0604C16.1195 36.0372 16.1674 35.9893 16.1674 35.9302V34.4043C16.1674 34.3453 16.1195 34.2974 16.0604 34.2974Z" fill="#F5F5F5"/>
<path d="M18.5706 31.7588H17.0445C16.9854 31.7588 16.9375 31.8067 16.9375 31.8657V33.3917C16.9375 33.4507 16.9854 33.4986 17.0445 33.4986H18.5706C18.6297 33.4986 18.6776 33.4507 18.6776 33.3917V31.8657C18.6776 31.8067 18.6297 31.7588 18.5706 31.7588Z" fill="#F5F5F5"/>
<path d="M18.5706 34.2974H17.0445C16.9854 34.2974 16.9375 34.3453 16.9375 34.4043V35.9302C16.9375 35.9893 16.9854 36.0372 17.0445 36.0372H18.5706C18.6297 36.0372 18.6776 35.9893 18.6776 35.9302V34.4043C18.6776 34.3453 18.6297 34.2974 18.5706 34.2974Z" fill="#F5F5F5"/>
<path d="M21.0243 31.7588H19.4981C19.439 31.7588 19.3911 31.8067 19.3911 31.8657V33.3917C19.3911 33.4507 19.439 33.4986 19.4981 33.4986H21.0243C21.0833 33.4986 21.1312 33.4507 21.1312 33.3917V31.8657C21.1312 31.8067 21.0833 31.7588 21.0243 31.7588Z" fill="#F5F5F5"/>
<path d="M23.5272 31.7588H22.001C21.9419 31.7588 21.894 31.8067 21.894 31.8657V33.3917C21.894 33.4507 21.9419 33.4986 22.001 33.4986H23.5272C23.5863 33.4986 23.6342 33.4507 23.6342 33.3917V31.8657C23.6342 31.8067 23.5863 31.7588 23.5272 31.7588Z" fill="#F5F5F5"/>
<path d="M21.0243 34.2974H19.4981C19.439 34.2974 19.3911 34.3453 19.3911 34.4043V35.9302C19.3911 35.9893 19.439 36.0372 19.4981 36.0372H21.0243C21.0833 36.0372 21.1312 35.9893 21.1312 35.9302V34.4043C21.1312 34.3453 21.0833 34.2974 21.0243 34.2974Z" fill="#F5F5F5"/>
<path d="M21.0239 36.8286H12.0879C12.0589 36.8304 12.0317 36.8432 12.0118 36.8644C11.9919 36.8856 11.9809 36.9136 11.981 36.9427V38.4615C11.981 38.4898 11.9922 38.517 12.0123 38.5371C12.0324 38.5572 12.0596 38.5684 12.0879 38.5684H21.0239C21.0522 38.5684 21.0795 38.5572 21.0995 38.5371C21.1196 38.517 21.1308 38.4898 21.1308 38.4615V36.9427C21.1309 36.9136 21.1199 36.8856 21.1 36.8644C21.0801 36.8432 21.0529 36.8304 21.0239 36.8286Z" fill="#F5F5F5"/>
<path d="M26.0089 31.7588H24.4899C24.4615 31.7588 24.4343 31.7701 24.4142 31.7901C24.3942 31.8102 24.3829 31.8374 24.3829 31.8657V34.2972H21.9795C21.9512 34.2972 21.924 34.3085 21.9039 34.3285C21.8838 34.3486 21.8726 34.3758 21.8726 34.4042V35.9229C21.8725 35.952 21.8835 35.98 21.9034 36.0012C21.9233 36.0224 21.9505 36.0352 21.9795 36.037H26.0089C26.0239 36.037 26.0387 36.0341 26.0526 36.0284C26.0664 36.0226 26.079 36.0142 26.0896 36.0036C26.1002 35.993 26.1086 35.9805 26.1143 35.9666C26.1201 35.9528 26.123 35.9379 26.123 35.9229V31.8657C26.1212 31.8367 26.1084 31.8095 26.0872 31.7896C26.066 31.7698 26.038 31.7587 26.0089 31.7588Z" fill="#F5F5F5"/>
<path d="M23.5272 36.8286H22.001C21.9419 36.8286 21.894 36.8765 21.894 36.9356V38.4615C21.894 38.5205 21.9419 38.5684 22.001 38.5684H23.5272C23.5863 38.5684 23.6342 38.5205 23.6342 38.4615V36.9356C23.6342 36.8765 23.5863 36.8286 23.5272 36.8286Z" fill="#F5F5F5"/>
<path d="M26.0091 36.8286H24.483C24.4239 36.8286 24.376 36.8765 24.376 36.9356V38.4615C24.376 38.5205 24.4239 38.5684 24.483 38.5684H26.0091C26.0682 38.5684 26.1161 38.5205 26.1161 38.4615V36.9356C26.1161 36.8765 26.0682 36.8286 26.0091 36.8286Z" fill="#F5F5F5"/>
<path d="M28.4622 34.2974H26.9361C26.877 34.2974 26.8291 34.3453 26.8291 34.4043V35.9302C26.8291 35.9893 26.877 36.0372 26.9361 36.0372H28.4622C28.5213 36.0372 28.5692 35.9893 28.5692 35.9302V34.4043C28.5692 34.3453 28.5213 34.2974 28.4622 34.2974Z" fill="#F5F5F5"/>
<path d="M30.9725 34.2974H29.4463C29.3873 34.2974 29.3394 34.3453 29.3394 34.4043V35.9302C29.3394 35.9893 29.3873 36.0372 29.4463 36.0372H30.9725C31.0316 36.0372 31.0795 35.9893 31.0795 35.9302V34.4043C31.0795 34.3453 31.0316 34.2974 30.9725 34.2974Z" fill="#F5F5F5"/>
<path d="M28.4622 31.7588H26.9361C26.877 31.7588 26.8291 31.8067 26.8291 31.8657V33.3917C26.8291 33.4507 26.877 33.4986 26.9361 33.4986H28.4622C28.5213 33.4986 28.5692 33.4507 28.5692 33.3917V31.8657C28.5692 31.8067 28.5213 31.7588 28.4622 31.7588Z" fill="#F5F5F5"/>
<path d="M30.9725 31.7588H29.4463C29.3873 31.7588 29.3394 31.8067 29.3394 31.8657V33.3917C29.3394 33.4507 29.3873 33.4986 29.4463 33.4986H30.9725C31.0316 33.4986 31.0795 33.4507 31.0795 33.3917V31.8657C31.0795 31.8067 31.0316 31.7588 30.9725 31.7588Z" fill="#F5F5F5"/>
<path d="M28.4622 36.8286H26.9361C26.877 36.8286 26.8291 36.8765 26.8291 36.9356V38.4615C26.8291 38.5205 26.877 38.5684 26.9361 38.5684H28.4622C28.5213 38.5684 28.5692 38.5205 28.5692 38.4615V36.9356C28.5692 36.8765 28.5213 36.8286 28.4622 36.8286Z" fill="#F5F5F5"/>
<path d="M30.9725 36.8286H29.4463C29.3873 36.8286 29.3394 36.8765 29.3394 36.9356V38.4615C29.3394 38.5205 29.3873 38.5684 29.4463 38.5684H30.9725C31.0316 38.5684 31.0795 38.5205 31.0795 38.4615V36.9356C31.0795 36.8765 31.0316 36.8286 30.9725 36.8286Z" fill="#F5F5F5"/>
<path d="M14.5413 16.7852L13.3931 28.315H20.2751V16.7852H14.5413Z" fill="black"/>
<path d="M26.0092 16.7852H20.2754V28.315H27.1574L26.0092 16.7852Z" fill="black"/>
<path d="M20.2752 28.3149H11.7173V29.3203H20.2752V28.3149Z" fill="black"/>
<path d="M28.8334 28.3149H20.2754V29.3203H28.8334V28.3149Z" fill="black"/>
<path d="M37.2202 0H20.2754V24.7639H37.2202C37.6628 24.7639 38.0872 24.5881 38.4002 24.2752C38.7131 23.9623 38.889 23.5379 38.889 23.0954V1.66853C38.889 1.22602 38.7131 0.801621 38.4002 0.488714C38.0872 0.175807 37.6628 0 37.2202 0Z" fill="white"/>
<path d="M3.35904 0C2.91579 -4.01241e-06 2.49058 0.175575 2.17649 0.488279C1.86239 0.800983 1.68499 1.22536 1.68311 1.66853V23.0954C1.68499 23.5386 1.86239 23.963 2.17649 24.2757C2.49058 24.5884 2.91579 24.7639 3.35904 24.7639H20.2753V0H3.35904Z" fill="white"/>
<path d="M4.02949 1.7756C3.76403 1.77559 3.50933 1.88053 3.32096 2.06753C3.13258 2.25454 3.02581 2.50844 3.02393 2.77385V20.7068C3.02579 20.9729 3.13234 21.2275 3.32051 21.4157C3.50869 21.6038 3.76337 21.7103 4.02949 21.7122H20.2754V1.74707L4.02949 1.7756Z" fill="black"/>
<path d="M36.507 1.77539H20.2754V21.7405H36.507C36.7731 21.7387 37.0278 21.6321 37.216 21.444C37.4041 21.2558 37.5107 21.0012 37.5126 20.7351V2.77364C37.5107 2.50824 37.4039 2.25433 37.2155 2.06733C37.0271 1.88032 36.7725 1.77538 36.507 1.77539Z" fill="black"/>
<path d="M20.4819 3.37256H4.85645V20.5711H20.4819V3.37256Z" fill="white"/>
<path d="M5.47705 7.6151L5.99766 7.46535L5.47705 7.34414V6.87354L6.5254 7.23006V7.7078L5.47705 8.08571V7.6151Z" fill="black"/>
<path d="M5.47705 15.5086L5.99766 15.3589L5.47705 15.2377V14.7671L6.5254 15.1307V15.6085L5.47705 15.9864V15.5086Z" fill="black"/>
<path d="M5.47705 18.14L5.99766 17.9903L5.47705 17.869V17.3984L6.55393 17.7478V18.2184L5.50558 18.5963L5.47705 18.14Z" fill="black"/>
<path d="M7.26709 10.2465L7.78057 10.0967L7.26709 9.97549V9.50488L8.31544 9.86854V10.3391L7.26709 10.7171V10.2465Z" fill="black"/>
<path d="M7.26709 12.8773L7.78057 12.7276L7.26709 12.6064V12.1357L8.31544 12.4994V12.97L7.26709 13.3479V12.8773Z" fill="black"/>
<path d="M35.6866 3.37256H20.4819V20.5711H35.6866V3.37256Z" fill="white"/>
<path d="M28.441 6.85254H7.25293V8.10749H28.441V6.85254Z" fill="#8A8A8A"/>
<path d="M17.9719 9.4834H9.12158V10.7384H17.9719V9.4834Z" fill="#8A8A8A"/>
<path d="M27.4642 12.1147H9.12158V13.3697H27.4642V12.1147Z" fill="#8A8A8A"/>
<path d="M27.899 17.377H7.25293V18.6319H27.899V17.377Z" fill="#8A8A8A"/>
<path d="M33.2835 14.7456H7.23877V16.0006H33.2835V14.7456Z" fill="#8A8A8A"/>
<path d="M20.4819 3.37256H4.85645V5.25499H20.4819V3.37256Z" fill="#DE1F26"/>
<path d="M35.6866 3.37256H20.4819V5.25499H35.6866V3.37256Z" fill="#DE1F26"/>
<path d="M34.9591 3.87158H34.0034V4.76288H34.9591V3.87158Z" fill="white"/>
<path d="M32.9627 3.87158H32.0142V4.76288H32.9627V3.87158Z" fill="white"/>
<path d="M30.5236 22.7958C30.5236 23.8725 30.0672 24.7496 29.4967 24.7496C28.9261 24.7496 28.4697 23.8725 28.4697 22.7958C28.4697 21.7191 28.9333 20.835 29.4967 20.835C30.0601 20.835 30.5236 21.712 30.5236 22.7958Z" fill="#EAC3A4"/>
<path d="M42.3617 22.7958C42.3617 23.8725 41.9053 24.7496 41.3419 24.7496C40.7785 24.7496 40.3149 23.8725 40.3149 22.7958C40.3149 21.7191 40.7714 20.835 41.3419 20.835C41.9124 20.835 42.3617 21.712 42.3617 22.7958Z" fill="#EAC3A4"/>
<path d="M35.4155 28.3574H31.8711V35.6661H35.4155V28.3574Z" fill="#D49A6C"/>
<path d="M38.96 28.3574H35.4155V35.6661H38.96V28.3574Z" fill="#EAC3A4"/>
<path d="M28.9688 20.3143V24.0792C28.9875 25.7688 29.672 27.3828 30.8737 28.5709C32.0754 29.759 33.6972 30.4253 35.3872 30.4252V13.9683C33.6972 13.9682 32.0754 14.6345 30.8737 15.8226C29.672 17.0107 28.9875 18.6247 28.9688 20.3143Z" fill="#7D4320"/>
<path d="M35.4229 13.9683V30.4252C37.1129 30.4253 38.7347 29.759 39.9364 28.5709C41.138 27.3828 41.8225 25.7688 41.8413 24.0792V20.3143C41.8225 18.6247 41.138 17.0107 39.9364 15.8226C38.7347 14.6345 37.1129 13.9682 35.4229 13.9683Z" fill="#613419"/>
<path d="M50.1641 44.9999L49.1514 42.1478L47.5254 37.5629L46.8122 35.4737C46.597 34.8754 46.1846 34.3682 45.6429 34.0352C45.1012 33.7022 44.4623 33.5632 43.8312 33.6412L42.8898 33.3845L41.9057 33.1064L41.3637 32.9638L39.0031 32.3149V35.6805H31.8715V32.3149L29.518 32.9638L28.9689 33.1064L28.8548 33.1421L27.0433 33.6412C26.4662 33.5724 25.8819 33.6843 25.371 33.9615C24.8601 34.2386 24.4477 34.6673 24.1907 35.1885C24.143 35.2803 24.1025 35.3757 24.0695 35.4737L23.3563 37.5629L21.7231 42.162L20.7104 45.0142L50.1641 44.9999Z" fill="#DE1F26"/>
<path d="M45.9494 45V38.2119C45.9494 38.1542 45.9379 38.097 45.9156 38.0438C45.8933 37.9905 45.8606 37.9423 45.8194 37.9018C45.7783 37.8613 45.7295 37.8294 45.6759 37.808C45.6223 37.7865 45.5649 37.776 45.5072 37.7769H44.7085C43.9629 37.7771 43.2469 37.4854 42.7137 36.9644C42.1805 36.4433 41.8726 35.7342 41.8558 34.9889V33.0922L41.3138 32.9497L38.9532 32.3008H31.8216L29.4682 32.9497L28.919 33.0922V34.9889C28.9022 35.7342 28.5943 36.4433 28.0611 36.9644C27.528 37.4854 26.812 37.7771 26.0664 37.7769H25.3247C25.2093 37.7769 25.0986 37.8228 25.0171 37.9043C24.9355 37.9859 24.8896 38.0965 24.8896 38.2119V45H45.9494Z" fill="#DE1F26"/>
<path d="M31.8711 29.3774L32.4345 30.2973L33.9821 30.5896L35.4155 31.1315V29.3774H31.8711Z" fill="#7D4320"/>
<path d="M35.4155 29.3774V31.1315L36.7349 30.4256L38.1612 30.2973L38.96 29.3774H35.4155Z" fill="#613419"/>
</g>
<defs>
<clipPath id="clip0_48_384">
<rect width="50.1639" height="45" fill="white"/>
</clipPath>
</defs>
</svg>
