<svg width="46" height="46" viewBox="0 0 46 46" fill="none" xmlns="http://www.w3.org/2000/svg">
<path d="M42.944 13.0463C42.7853 12.6965 42.6107 12.3467 42.4282 12.0128C40.528 8.4151 37.6922 5.39921 34.2209 3.28447C30.7497 1.16972 26.7723 0.0348475 22.7099 0H22.3528C18.2879 0.0328431 14.3075 1.16673 10.8334 3.28153C7.35926 5.39633 4.52077 8.41329 2.61862 12.0128C2.44405 12.3467 2.26948 12.6965 2.09491 13.0622C0.682173 16.1115 -0.0331408 19.4383 0.00117906 22.7999C0.035499 26.1614 0.818586 29.4729 2.29329 32.4925C2.46785 32.8503 2.65036 33.2001 2.8408 33.5499C4.78417 37.0308 7.61045 39.9358 11.0339 41.9712C14.4573 44.0066 18.3564 45.1002 22.3369 45.1414H22.7019C26.6842 45.1032 30.5856 44.0109 34.0108 41.9753C37.436 39.9397 40.2633 37.033 42.206 33.5499C42.3965 33.2001 42.5869 32.8503 42.7535 32.4925C44.2344 29.4717 45.0202 26.1565 45.0532 22.7911C45.0862 19.4257 44.3654 16.0957 42.944 13.0463ZM23.5827 21.5133V13.8413H33.3506C34.0436 16.3421 34.4274 18.9187 34.4933 21.5133H23.5827ZM40.984 13.8413C42.1254 16.2463 42.7807 18.8536 42.9122 21.5133H36.5643C36.5031 18.9237 36.1463 16.3496 35.501 13.8413H40.984ZM23.5827 11.7266V2.18631C27.2645 2.75873 30.6686 6.32042 32.6682 11.7266H23.5827ZM34.9138 11.7266C34.3371 10.0127 33.579 8.36554 32.6524 6.81334C31.9795 5.66784 31.181 4.6012 30.2719 3.63325C34.2194 5.26823 37.5631 8.09055 39.8414 11.7107L34.9138 11.7266ZM23.5827 31.7134V23.636H34.4933C34.421 26.371 33.9996 29.0856 33.2395 31.7134H23.5827ZM32.5095 33.8202C30.4703 39.0515 27.2011 42.3906 23.5748 42.9392V33.8202H32.5095ZM30.256 41.4922C31.1592 40.5192 31.9571 39.4532 32.6365 38.3121C33.4921 36.8847 34.2019 35.3745 34.7551 33.8044H39.5161C37.2596 37.23 34.0398 39.9082 30.2639 41.5002L30.256 41.4922ZM35.4296 31.7055C36.1426 29.0701 36.5343 26.3579 36.596 23.6281H42.944C42.8057 26.4398 42.0813 29.1913 40.8174 31.7055H35.4296ZM21.4641 13.8334V21.5054H10.5615C10.6286 18.9115 11.0097 16.3353 11.6962 13.8334H21.4641ZM21.4641 11.7186H12.3865C14.3782 6.32838 17.7823 2.75872 21.472 2.17835L21.4641 11.7186ZM12.4024 6.78949C11.4694 8.33832 10.7109 9.98616 10.1409 11.7027H5.22921C7.49508 8.09015 10.8212 5.26863 14.7511 3.6253C13.8563 4.5918 13.0688 5.65273 12.4024 6.78949ZM21.472 33.8202V42.9392C17.8458 42.3906 14.5686 39.0515 12.5373 33.8202H21.472ZM21.472 31.7055H11.8152C11.0513 29.0785 10.6299 26.3634 10.5615 23.6281H21.472V31.7055ZM9.49821 13.8413C8.86059 16.3512 8.50396 18.9243 8.43493 21.5133H2.13459C2.26238 18.853 2.91786 16.245 4.06277 13.8413H9.49821ZM8.43493 23.636C8.50301 26.3658 8.89727 29.0776 9.6093 31.7134H4.26115C2.99599 29.2001 2.27408 26.4478 2.14252 23.636H8.43493ZM10.2917 33.8202C10.8449 35.3904 11.5547 36.9006 12.4103 38.328C13.0871 39.471 13.8852 40.5372 14.7908 41.5081C10.9961 39.9268 7.75631 37.2508 5.48313 33.8202H10.2917Z" fill="#C9C9C9"/>
<path d="M10.2919 45.9839C10.7997 43.2808 11.4107 39.9417 11.5852 39.1546C11.5852 39.1546 12.1566 43.1298 12.8152 42.0406C13.7277 40.4982 14.6719 39.0513 14.2593 37.1671C14.0447 36.2148 13.7115 35.2933 13.2675 34.4243H13.204C11.7836 34.0029 11.1012 32.4765 10.7203 31.1647C10.6653 30.6715 10.485 30.2007 10.1966 29.7972C10.0506 29.6171 9.86976 29.4684 9.665 29.36C9.5246 29.2873 9.38938 29.2049 9.26031 29.1135L9.18096 29.0658C8.97178 29.0511 8.7659 29.0055 8.56997 28.9307C8.28654 29.0967 8.02068 29.2911 7.77648 29.511C6.50451 30.7517 5.59848 32.3197 5.15794 34.0427C4.71405 35.9227 4.43526 37.8381 4.32477 39.7668C3.96652 41.6611 3.80168 43.5871 3.83281 45.5148V45.9998L10.2919 45.9839Z" fill="#FFC89F"/>
<path d="M8.38742 45.9839C7.53838 45.6181 6.68934 45.2604 5.87998 44.8152C5.38502 44.5695 4.92802 44.2535 4.5231 43.8771C4.30885 43.6226 4.11048 43.3762 3.92004 43.082C3.8645 43.8771 3.84863 44.6721 3.84863 45.4671V45.9521L8.38742 45.9839Z" fill="#FFC89F"/>
<path d="M33.303 39.1549C33.4776 39.95 34.0965 43.2811 34.5964 45.9842H41.0793V45.4992C41.1183 43.5712 40.9534 41.6444 40.5873 39.7512C40.4912 37.8235 40.2256 35.908 39.7938 34.0271C39.3435 32.3081 38.4389 30.7426 37.1753 29.4954C36.9305 29.2762 36.6647 29.0818 36.3818 28.915C36.1887 28.9902 35.9854 29.0357 35.7787 29.0502L35.6994 29.0979C35.5692 29.1876 35.4341 29.2698 35.2947 29.3444C35.0899 29.4528 34.9091 29.6015 34.763 29.7816C34.4786 30.188 34.2962 30.657 34.2314 31.1491C33.8585 32.4609 33.1761 33.9873 31.7557 34.4086H31.7002C31.2536 35.2774 30.9177 36.1989 30.7004 37.1515C30.2957 39.0357 31.2399 40.4826 32.1524 42.025C32.7555 43.138 33.303 39.147 33.303 39.1549Z" fill="#FFC89F"/>
<path d="M41.095 45.9843V45.4993C41.095 44.6169 41.095 43.7344 41.0157 42.8599C39.8909 43.4584 38.724 43.9738 37.5243 44.4022C36.7308 44.6884 35.9929 44.9667 35.2152 45.1972L34.509 45.4039C34.509 45.6027 34.5804 45.7935 34.6201 45.9843H41.095Z" fill="#FFC89F"/>
<path d="M26.9948 25.6475C27.4709 24.7888 27.9391 23.9223 28.3914 23.0398C29.3572 21.4238 30.1981 19.736 30.9067 17.9914C31.1658 17.2766 31.37 16.543 31.5177 15.7971C31.2325 14.7797 30.8908 13.7791 30.4941 12.7999H27.4312L27.5185 12.2593L13.918 12.784C13.8546 13.0305 13.799 13.2849 13.7435 13.5313C13.3504 15.0734 13.3044 16.6837 13.6086 18.2458C13.8305 19.2528 14.191 20.2241 14.6798 21.1317C15.1162 21.887 15.632 22.5787 16.0922 23.3021C16.7905 24.3834 17.3539 25.4964 18.1315 26.4822H26.4314C26.6219 26.2119 26.852 25.9178 26.9948 25.6475Z" fill="black"/>
<path d="M26.4316 24.9478C26.1589 22.9097 26.2314 20.8401 26.6458 18.8262H18.8696C19.2739 20.8415 19.3436 22.9098 19.0759 24.9478C16.2511 25.6077 14.3149 26.999 14.3149 28.6208C14.3149 30.8707 18.1078 32.7073 22.7815 32.7073C27.4552 32.7073 31.2243 30.8707 31.2243 28.6208C31.2084 26.999 29.2644 25.6077 26.4316 24.9478Z" fill="#D4A47D"/>
<path d="M29.3354 14.5173C29.3354 18.9694 26.4074 22.5709 22.797 22.5709C19.1867 22.5709 16.2349 18.9694 16.2349 14.5173C16.2349 10.0651 16.6157 5.06445 22.797 5.06445C29.3354 5.06445 29.3354 10.0572 29.3354 14.5173Z" fill="#FFC89F"/>
<path d="M17.0603 14.6523C17.2745 15.6063 17.0603 16.4728 16.489 16.6C15.9177 16.7272 15.3622 16.0435 15.14 15.0895C14.9179 14.1355 15.14 13.253 15.7114 13.1338C16.2827 13.0145 16.8381 13.6903 17.0603 14.6523Z" fill="#FFC89F"/>
<path d="M28.4549 14.6523C28.2327 15.6063 28.4549 16.4728 29.0183 16.6C29.5816 16.7272 30.145 16.0435 30.3672 15.0895C30.5894 14.1355 30.3672 13.253 29.8038 13.1338C29.2404 13.0145 28.6691 13.6903 28.4549 14.6523Z" fill="#FFC89F"/>
<path d="M11.2993 40.7844C11.4025 41.2455 11.9262 41.9451 12.1642 42.5971C12.5141 43.7016 12.7664 44.8349 12.918 45.9838H32.4142C32.4987 44.8299 32.7307 43.6917 33.1045 42.5971C33.2575 42.1969 33.4896 41.8318 33.7869 41.5238C33.9297 42.279 33.6044 43.3762 33.7869 44.2427C33.9139 44.1871 41.3251 41.1342 41.2696 40.9116C41.2696 40.8401 40.3729 35.8155 39.8016 34.0267C39.5127 33.0755 39.1215 32.1585 38.6352 31.2918L38.5479 31.1169C38.0577 30.2027 37.3947 29.3926 36.5959 28.7319C36.2465 28.4423 35.878 28.1767 35.4929 27.9368C34.1043 26.1162 28.1928 25.2417 28.1928 25.2417C28.1928 25.2417 28.042 30.0118 26.8994 31.0772C25.6417 31.9117 24.1666 32.3567 22.6582 32.3567C21.1497 32.3567 19.6746 31.9117 18.4169 31.0772C17.2743 30.0277 17.1315 25.2417 17.1315 25.2417C17.1315 25.2417 12.0214 25.997 10.1884 27.5632C9.55071 27.878 8.94937 28.2619 8.39511 28.708C7.59208 29.3624 6.9306 30.174 6.45105 31.0931C6.41166 31.1469 6.37963 31.2057 6.35582 31.268C5.87334 32.1356 5.48496 33.0524 5.19733 34.0029C4.62601 35.7917 3.87219 40.2756 3.83252 40.53C4.15785 40.7605 10.8787 43.9963 10.974 44.044C11.1803 42.9309 11.1327 41.6669 11.2993 40.7844Z" fill="#DE1F26"/>
<path d="M35.2232 37.6679C34.8899 38.1052 34.4852 38.5106 34.1758 38.8604C33.334 39.7061 32.5741 40.6298 31.9064 41.6192C31.2557 42.7401 31.2002 42.2949 30.5574 43.4239C30.2083 44.4892 24.0429 43.4239 21.1545 44.6164C22.0243 45.0221 22.8695 45.4787 23.6858 45.9838H32.4142C32.4987 44.8299 32.7307 43.6917 33.1046 42.5971C33.2575 42.1969 33.4896 41.8318 33.787 41.5238C33.9298 42.279 33.6045 43.3762 33.787 44.2427C33.9139 44.1871 41.3251 41.1342 41.2696 40.9116C41.2696 40.8401 40.373 35.8155 39.8016 34.0267C39.5127 33.0755 39.1216 32.1585 38.6352 31.2918L38.5479 31.1169C38.0577 30.2027 37.3947 29.3926 36.5959 28.7319C36.2465 28.4423 35.878 28.1767 35.493 27.9368C34.1044 26.1162 28.1928 25.2417 28.1928 25.2417C28.1928 25.2417 28.1532 26.4819 27.9627 27.8494L28.1452 27.9607C28.9387 28.39 29.7878 28.7557 30.5892 29.2645C32.0687 30.1584 33.4263 31.2407 34.6281 32.4844C35.4771 33.2794 36.9054 34.6468 36.5721 36.0063C36.3414 36.7074 35.8613 37.2988 35.2232 37.6679Z" fill="#DE1F26"/>
<path d="M33.0807 13.8254C32.7792 10.7407 31.9936 8.32382 29.7401 6.03415C29.2402 5.52534 25.971 3.27542 22.7653 3.48213C18.8375 3.72858 18.0043 5.9944 18.0043 5.9944C18.0043 5.9944 14.4812 6.0739 13.3941 11.4006C13.1231 13.0626 12.9667 14.7415 12.926 16.4251C12.8437 18.1637 13.0012 19.9053 13.3941 21.6007C13.6943 23.0998 14.2673 24.5308 15.0843 25.8223C15.7032 26.7763 19.7262 26.4185 20.3213 27.4123C16.7982 21.3224 16.703 14.4137 17.6631 11.3449C17.6631 11.5675 17.7266 11.7742 17.7504 11.965C17.8218 12.6169 19.9166 8.78492 20.3927 8.16481C20.4562 8.20456 24.7728 11.7663 24.5189 11.2416C24.3443 10.9156 23.9317 9.3812 23.8048 9.03934C24.9616 9.51613 25.9933 10.2533 26.8201 11.1938C28.5419 13.7538 29.3513 20.3207 25.9869 27.8019C25.9155 27.945 31.2477 25.6394 31.8111 24.0891C32.9869 20.8041 33.4205 17.2986 33.0807 13.8254Z" fill="black"/>
<path d="M22.4322 21.2349C17.6315 20.6784 14.0132 17.387 14.0132 13.5947H14.5924C14.5924 17.0928 17.9886 20.1298 22.5274 20.6625L22.4322 21.2349Z" fill="#393B42"/>
<path d="M23.9873 20.8057C23.9873 20.9856 23.9165 21.1583 23.7903 21.2863C23.664 21.4143 23.4925 21.4873 23.3128 21.4894H21.8608C21.6811 21.4873 21.5096 21.4143 21.3833 21.2863C21.2571 21.1583 21.1863 20.9856 21.1863 20.8057C21.1863 20.6264 21.2573 20.4545 21.3838 20.3278C21.5103 20.2011 21.6819 20.1299 21.8608 20.1299H23.3128C23.4917 20.1299 23.6633 20.2011 23.7898 20.3278C23.9163 20.4545 23.9873 20.6264 23.9873 20.8057Z" fill="#1A222B"/>
<path d="M31.7952 10.3193H30.6287C30.6287 6.4555 27.9467 3.30721 24.6537 3.30721H20.9481C17.6472 3.30721 14.9651 6.48731 14.9651 10.3193H13.8066C13.8066 5.81154 16.9806 2.14648 20.9481 2.14648H24.6537C28.5894 2.14648 31.7952 5.81154 31.7952 10.3193Z" fill="#DE1F26"/>
<path d="M16.6398 16.5682C16.6398 17.0616 16.4442 17.5348 16.096 17.8837C15.7478 18.2325 15.2755 18.4286 14.783 18.4286C14.2906 18.4286 13.8183 18.2325 13.4701 17.8837C13.1219 17.5348 12.9263 17.0616 12.9263 16.5682V11.5039C12.9263 11.0105 13.1219 10.5373 13.4701 10.1884C13.8183 9.83956 14.2906 9.64355 14.783 9.64355C15.2755 9.64355 15.7478 9.83956 16.096 10.1884C16.4442 10.5373 16.6398 11.0105 16.6398 11.5039V16.5682Z" fill="#4F4F4F"/>
<path d="M32.7396 16.5682C32.7396 17.0616 32.5439 17.5348 32.1957 17.8837C31.8475 18.2325 31.3752 18.4286 30.8828 18.4286C30.6393 18.4286 30.3983 18.3804 30.1734 18.2868C29.9486 18.1932 29.7444 18.0561 29.5727 17.8832C29.4009 17.7103 29.2648 17.5052 29.1724 17.2795C29.08 17.0539 29.0329 16.8121 29.034 16.5682V11.5039C29.0329 11.26 29.08 11.0182 29.1724 10.7926C29.2648 10.5669 29.4009 10.3618 29.5727 10.1889C29.7444 10.0161 29.9486 9.87891 30.1734 9.78532C30.3983 9.69173 30.6393 9.64355 30.8828 9.64355C31.3752 9.64355 31.8475 9.83956 32.1957 10.1884C32.5439 10.5373 32.7396 11.0105 32.7396 11.5039V16.5682Z" fill="#4F4F4F"/>
</svg>
