<svg width="31" height="45" viewBox="0 0 31 45" fill="none" xmlns="http://www.w3.org/2000/svg">
<path d="M20.8004 7.08154H13.4482V7.70119H20.8004V7.08154Z" fill="black"/>
<path d="M30.9075 29.3423C30.9075 32.2187 30.0014 35.0306 28.3036 37.4222C26.6058 39.8139 24.1927 41.678 21.3693 42.7787C18.546 43.8795 15.4393 44.1675 12.4421 43.6063C9.44489 43.0452 6.69178 41.66 4.53091 39.6261C2.37004 37.5922 0.898453 35.0008 0.302269 32.1796C-0.293914 29.3584 0.0120568 26.4342 1.18151 23.7768C2.35097 21.1193 4.33137 18.8479 6.87228 17.2499C9.4132 15.6518 12.4005 14.7988 15.4565 14.7988C19.5543 14.7988 23.4844 16.3311 26.382 19.0585C29.2797 21.7859 30.9075 25.4851 30.9075 29.3423Z" fill="black"/>
<path d="M30.9077 13.3926H0V29.342H30.9077V13.3926Z" fill="#DE1F26"/>
<path d="M1.54899 9.71095H29.3643C29.7736 9.71095 30.1662 9.86401 30.4556 10.1365C30.7451 10.4089 30.9077 10.7784 30.9077 11.1637V13.3924H9.95073e-06V11.1689C-0.000721187 10.9773 0.0388453 10.7874 0.11643 10.6102C0.194015 10.433 0.308084 10.272 0.452066 10.1364C0.596048 10.0009 0.767097 9.89356 0.955358 9.82053C1.14362 9.7475 1.34537 9.71026 1.54899 9.71095Z" fill="#8A8A8A"/>
<path d="M28.3521 12.2368C28.7524 12.2368 29.0768 11.9314 29.0768 11.5547C29.0768 11.178 28.7524 10.8726 28.3521 10.8726C27.9519 10.8726 27.6274 11.178 27.6274 11.5547C27.6274 11.9314 27.9519 12.2368 28.3521 12.2368Z" fill="white"/>
<path d="M26.1725 12.2368C26.5727 12.2368 26.8972 11.9314 26.8972 11.5547C26.8972 11.178 26.5727 10.8726 26.1725 10.8726C25.7722 10.8726 25.4478 11.178 25.4478 11.5547C25.4478 11.9314 25.7722 12.2368 26.1725 12.2368Z" fill="white"/>
<path d="M23.9928 12.2368C24.393 12.2368 24.7175 11.9314 24.7175 11.5547C24.7175 11.178 24.393 10.8726 23.9928 10.8726C23.5925 10.8726 23.2681 11.178 23.2681 11.5547C23.2681 11.9314 23.5925 12.2368 23.9928 12.2368Z" fill="white"/>
<path d="M8.48053 16.4233H3.474C3.27236 16.4233 3.10889 16.5772 3.10889 16.767V18.1C3.10889 18.2898 3.27236 18.4437 3.474 18.4437H8.48053C8.68218 18.4437 8.84565 18.2898 8.84565 18.1V16.767C8.84565 16.5772 8.68218 16.4233 8.48053 16.4233Z" fill="#EEEEEE"/>
<path d="M13.0115 17.7819H10.7987C10.7014 17.7805 10.6085 17.7432 10.5402 17.6779C10.4719 17.6126 10.4336 17.5247 10.4336 17.433C10.435 17.3423 10.4739 17.2557 10.5421 17.1915C10.6102 17.1273 10.7023 17.0907 10.7987 17.0894H13.0115C13.1079 17.0907 13.1999 17.1273 13.2681 17.1915C13.3363 17.2557 13.3752 17.3423 13.3766 17.433C13.3766 17.5247 13.3384 17.6126 13.27 17.6779C13.2017 17.7432 13.1089 17.7805 13.0115 17.7819Z" fill="white"/>
<path d="M17.8299 17.7821H15.6724C15.5741 17.7821 15.4798 17.7453 15.4103 17.6799C15.3408 17.6145 15.3018 17.5257 15.3018 17.4332C15.3046 17.3425 15.3449 17.2564 15.4141 17.1932C15.4833 17.13 15.576 17.0947 15.6724 17.0947H17.8576C17.9544 17.0947 18.0473 17.1309 18.1157 17.1954C18.1842 17.2598 18.2227 17.3473 18.2227 17.4384C18.2228 17.4858 18.2125 17.5327 18.1925 17.5762C18.1724 17.6197 18.143 17.6588 18.1062 17.6911C18.0693 17.7234 18.0257 17.7481 17.9781 17.7638C17.9306 17.7794 17.8801 17.7857 17.8299 17.7821Z" fill="white"/>
<path d="M22.8201 17.782H20.6073C20.5099 17.7807 20.4171 17.7433 20.3488 17.678C20.2805 17.6127 20.2422 17.5248 20.2422 17.4332C20.2434 17.385 20.2553 17.3376 20.2769 17.2939C20.2986 17.2503 20.3297 17.2113 20.3681 17.1795C20.4066 17.1477 20.4516 17.1238 20.5004 17.1092C20.5492 17.0946 20.6006 17.0896 20.6516 17.0947H22.8644C22.9608 17.096 23.0528 17.1327 23.121 17.1968C23.1891 17.261 23.2281 17.3476 23.2295 17.4384C23.229 17.487 23.2177 17.535 23.1964 17.5792C23.1751 17.6235 23.1441 17.6631 23.1056 17.6954C23.067 17.7278 23.0217 17.7522 22.9726 17.7671C22.9234 17.782 22.8715 17.7871 22.8201 17.782Z" fill="white"/>
<path d="M27.6054 17.7819H25.3925C25.3441 17.7819 25.2962 17.7728 25.2515 17.7552C25.2069 17.7377 25.1663 17.7119 25.1324 17.6794C25.0984 17.6469 25.0716 17.6084 25.0536 17.5661C25.0356 17.5238 25.0267 17.4786 25.0274 17.433C25.0274 17.3419 25.0659 17.2545 25.1344 17.19C25.2028 17.1256 25.2957 17.0894 25.3925 17.0894H27.6054C27.7027 17.0893 27.7962 17.1254 27.8655 17.1897C27.9349 17.254 27.9745 17.3414 27.976 17.433C27.976 17.5255 27.9369 17.6143 27.8674 17.6797C27.7979 17.7451 27.7037 17.7819 27.6054 17.7819Z" fill="white"/>
<path d="M3.10889 26.2181H8.85118L5.98003 23.5156L3.10889 26.2181Z" fill="#EEEEEE"/>
<path d="M3.10889 20.8125V26.2175L5.98003 23.515L8.85118 26.2175V20.8125H3.10889Z" fill="white"/>
<path d="M6.98729 22.5729C6.98838 22.7607 6.93012 22.9447 6.81991 23.1013C6.7097 23.258 6.5525 23.3803 6.3683 23.4526C6.1841 23.525 5.9812 23.5442 5.78538 23.5078C5.58956 23.4714 5.40968 23.381 5.26854 23.2482C5.1274 23.1153 5.03139 22.946 4.99271 22.7617C4.95404 22.5774 4.97444 22.3864 5.05133 22.213C5.12822 22.0396 5.25812 21.8917 5.42453 21.7879C5.59095 21.6842 5.78638 21.6294 5.98598 21.6304C6.25154 21.6304 6.50622 21.7297 6.694 21.9064C6.88178 22.0832 6.98729 22.3229 6.98729 22.5729Z" fill="#DE1F26"/>
<path d="M27.9703 20.8125H10.4502V21.302H27.9703V20.8125Z" fill="white"/>
<path d="M27.9703 21.7969H10.4502V22.2863H27.9703V21.7969Z" fill="white"/>
<path d="M27.9703 22.7812H10.4502V23.2707H27.9703V22.7812Z" fill="white"/>
<path d="M27.9703 23.7603H10.4502V24.2497H27.9703V23.7603Z" fill="white"/>
<path d="M27.9703 24.7441H10.4502V25.2336H27.9703V24.7441Z" fill="white"/>
<path d="M27.9703 25.7231H10.4502V26.2126H27.9703V25.7231Z" fill="white"/>
<path d="M10.1406 31.5342C10.1406 32.0966 10.6109 32.4038 11.2194 32.8204C11.3603 32.8197 11.4997 32.7929 11.6297 32.7415C11.7596 32.6901 11.8775 32.6151 11.9766 32.5208C12.0758 32.4265 12.1542 32.3148 12.2075 32.192C12.2608 32.0691 12.2878 31.9376 12.2871 31.805V29.1442C12.2871 29.0117 12.2593 28.8806 12.2053 28.7584C12.1513 28.6361 12.0721 28.5251 11.9724 28.4317C11.8727 28.3383 11.7543 28.2644 11.6241 28.2142C11.494 28.164 11.3545 28.1385 11.2138 28.1392C10.9292 28.1392 10.6562 28.2456 10.455 28.435C10.2537 28.6245 10.1406 28.8814 10.1406 29.1494V31.5342Z" fill="#F9B59D"/>
<path d="M11.1748 26.4259C11.1748 26.158 11.2879 25.901 11.4892 25.7116C11.6904 25.5221 11.9634 25.4157 12.248 25.4157C12.5327 25.4157 12.8056 25.5221 13.0069 25.7116C13.2082 25.901 13.3213 26.158 13.3213 26.4259V25.7646C13.3213 25.6319 13.349 25.5006 13.4029 25.378C13.4569 25.2554 13.5359 25.1441 13.6356 25.0503C13.7353 24.9565 13.8535 24.8821 13.9838 24.8313C14.114 24.7805 14.2535 24.7544 14.3945 24.7544C14.5354 24.7544 14.675 24.7805 14.8052 24.8313C14.9354 24.8821 15.0537 24.9565 15.1533 25.0503C15.253 25.1441 15.3321 25.2554 15.386 25.378C15.4399 25.5006 15.4677 25.6319 15.4677 25.7646V26.4259C15.4677 26.158 15.5808 25.901 15.7821 25.7116C15.9833 25.5221 16.2563 25.4157 16.5409 25.4157C16.8256 25.4157 17.0985 25.5221 17.2998 25.7116C17.5011 25.901 17.6141 26.158 17.6141 26.4259V27.1861C17.6141 26.9182 17.7272 26.6613 17.9285 26.4718C18.1297 26.2824 18.4027 26.1759 18.6874 26.1759C18.972 26.1759 19.245 26.2824 19.4462 26.4718C19.6475 26.6613 19.7606 26.9182 19.7606 27.1861V27.4204L19.7882 35.2884V38.0742L11.208 38.1002V34.6011C11.208 34.6011 11.208 34.5698 11.208 34.5594L11.1748 26.4259Z" fill="#FFCAB3"/>
<path d="M17.4647 34.9657C17.4636 34.5991 17.347 34.241 17.1297 33.9367C16.9124 33.6324 16.6041 33.3957 16.2439 33.2563C15.8836 33.117 15.4875 33.0813 15.1057 33.1538C14.7239 33.2264 14.3735 33.4038 14.0988 33.6638C13.8242 33.9238 13.6376 34.2546 13.5626 34.6144C13.4877 34.9742 13.5279 35.3468 13.6779 35.6851C13.828 36.0234 14.0813 36.3123 14.4058 36.5151C14.7302 36.718 15.1113 36.8257 15.5008 36.8247C15.7595 36.824 16.0154 36.7753 16.2541 36.6815C16.4927 36.5877 16.7094 36.4506 16.8918 36.278C17.0742 36.1054 17.2186 35.9007 17.3169 35.6755C17.4152 35.4503 17.4654 35.2091 17.4647 34.9657Z" fill="white"/>
<path d="M17.8353 33.846C17.6155 33.4388 17.2804 33.0968 16.8669 32.858C16.4533 32.6191 15.9776 32.4927 15.4924 32.4927C15.0073 32.4927 14.5316 32.6191 14.118 32.858C13.7045 33.0968 13.3693 33.4388 13.1496 33.846H11.1968V36.4808H13.4096C13.6546 36.7791 13.969 37.0206 14.3287 37.1867C14.6883 37.3529 15.0835 37.4393 15.4841 37.4393C15.8847 37.4393 16.28 37.3529 16.6396 37.1867C16.9993 37.0206 17.3136 36.7791 17.5587 36.4808H19.7715V33.8407L17.8353 33.846ZM15.5007 36.8244C15.1112 36.8255 14.7302 36.7177 14.4057 36.5149C14.0812 36.3121 13.8279 36.0232 13.6778 35.6849C13.5278 35.3466 13.4876 34.9739 13.5626 34.6142C13.6375 34.2544 13.8241 33.9236 14.0987 33.6636C14.3734 33.4036 14.7238 33.2261 15.1056 33.1536C15.4874 33.0811 15.8835 33.1167 16.2438 33.2561C16.6041 33.3954 16.9123 33.6322 17.1296 33.9365C17.347 34.2408 17.4635 34.5989 17.4646 34.9655C17.4646 35.4567 17.2581 35.928 16.8901 36.2763C16.5221 36.6246 16.0226 36.8217 15.5007 36.8244Z" fill="#3E4651"/>
<path d="M16.74 34.8721H15.8549C15.8371 34.8153 15.8045 34.7636 15.7601 34.7218C15.7156 34.68 15.6607 34.6493 15.6004 34.6325V33.4766H15.3902V34.6273C15.3132 34.6501 15.2456 34.695 15.197 34.7557C15.1484 34.8164 15.1212 34.8898 15.1191 34.9658C15.1204 35.0502 15.1536 35.1313 15.2128 35.1947C15.272 35.2581 15.3533 35.2994 15.4421 35.3114C15.5308 35.3233 15.6212 35.305 15.6969 35.2598C15.7725 35.2146 15.8286 35.1454 15.8549 35.0647H16.74V34.8721Z" fill="#F54A4F"/>
<path d="M11.2134 39.022H10.9092V40.683C10.9099 41.2515 11.0297 41.8142 11.2619 42.339C11.494 42.8638 11.8338 43.3403 12.2618 43.7413C12.6899 44.1422 13.1978 44.4598 13.7564 44.6757C14.3151 44.8917 14.9135 45.0018 15.5174 44.9997V39.0063L11.2134 39.022Z" fill="#FFC436"/>
<path d="M20.0983 38.9961H19.7885H15.4956V44.9895C16.7115 44.9867 17.8765 44.5302 18.7352 43.72C19.5939 42.9097 20.0762 41.812 20.0762 40.6676L20.0983 38.9961Z" fill="#E58800"/>
<path d="M15.5038 38.0552L11.2109 38.0679L11.2141 39.0156L15.507 39.0029L15.5038 38.0552Z" fill="white"/>
<path d="M19.7909 38.0514L15.498 38.062L15.5007 39.0097L19.7936 38.9991L19.7909 38.0514Z" fill="#E0E0E0"/>
<path d="M11.7227 40.3815C11.7241 40.5606 11.8003 40.732 11.9349 40.8587C12.0695 40.9853 12.2515 41.0571 12.4418 41.0584C12.6326 41.0584 12.8155 40.9871 12.9504 40.8602C13.0852 40.7332 13.161 40.561 13.161 40.3815C13.161 40.202 13.0852 40.0298 12.9504 39.9028C12.8155 39.7759 12.6326 39.7046 12.4418 39.7046C12.2515 39.706 12.0695 39.7777 11.9349 39.9044C11.8003 40.031 11.7241 40.2024 11.7227 40.3815Z" fill="white"/>
<path d="M22.9363 9.63281H20.1094V11.9812H22.9363V9.63281Z" fill="#323232"/>
<path d="M21.6252 11.0596H20.1094V9.63281L21.6252 11.0596Z" fill="black"/>
<path d="M22.9416 9.63329H21.4258V8.20654L22.9416 9.63329Z" fill="black"/>
<path d="M10.8039 9.63281H7.97705V11.9812H10.8039V9.63281Z" fill="#323232"/>
<path d="M15.4565 7.87279L23.4117 5.44107L17.9128 4.68604L15.4565 7.87279Z" fill="#FFE28C"/>
<path d="M19.4341 9.0916L23.4117 5.44141L15.4565 7.87313L19.4341 9.0916Z" fill="#FFC436"/>
<path d="M17.9128 4.68641L15.4565 0V7.87316L17.9128 4.68641Z" fill="#E58800"/>
<path d="M15.4565 11.8096L20.369 14.2466L15.4565 7.87305V11.8096Z" fill="#FFE28C"/>
<path d="M15.4565 7.87305L20.369 14.2466L19.4341 9.09151L15.4565 7.87305Z" fill="#E58800"/>
<path d="M15.4566 7.87305L10.5386 14.2466L15.4566 11.8096V7.87305Z" fill="#FFC436"/>
<path d="M15.4568 7.87313L7.49609 5.44141L11.4792 9.0916L15.4568 7.87313Z" fill="#FFC436"/>
<path d="M12.995 4.68604L7.49609 5.44107L15.4568 7.87279L12.995 4.68604Z" fill="#FFE28C"/>
<path d="M11.479 9.09151L10.5386 14.2466L15.4566 7.87305L11.479 9.09151Z" fill="#FFE28C"/>
<path d="M15.4569 7.87316V0L12.9951 4.68641L15.4569 7.87316Z" fill="#FFC436"/>
<path d="M14.1066 9.0188C13.8396 8.76756 13.6577 8.44741 13.584 8.09887C13.5104 7.75032 13.5481 7.38904 13.6926 7.06072C13.8371 6.7324 14.0818 6.45179 14.3958 6.2544C14.7097 6.05701 15.0789 5.95171 15.4564 5.95181V5.16553C14.7841 5.2408 14.1645 5.54553 13.7149 6.02201C13.2654 6.49848 13.0171 7.11361 13.0171 7.75086C13.0171 8.38811 13.2654 9.00325 13.7149 9.47972C14.1645 9.9562 14.7841 10.2609 15.4564 10.3362V9.54472C15.2057 9.54535 14.9573 9.4992 14.7256 9.40893C14.4939 9.31866 14.2835 9.18606 14.1066 9.0188Z" fill="#3E4651"/>
<path d="M15.4565 5.16535V5.95163C15.8341 5.95153 16.2032 6.05684 16.5172 6.25423C16.8311 6.45162 17.0758 6.73222 17.2203 7.06054C17.3648 7.38887 17.4026 7.75015 17.329 8.09869C17.2553 8.44724 17.0734 8.76738 16.8064 9.01862C16.6294 9.18542 16.4189 9.31736 16.1871 9.40676C15.9554 9.49616 15.707 9.54123 15.4565 9.53934V10.3256C15.8446 10.3691 16.2381 10.3346 16.611 10.2245C16.9839 10.1144 17.3278 9.93123 17.62 9.68696C17.9122 9.44269 18.1461 9.14291 18.3063 8.80736C18.4665 8.47182 18.5493 8.10814 18.5493 7.74028C18.5493 7.37242 18.4665 7.00873 18.3063 6.67319C18.1461 6.33765 17.9122 6.03786 17.62 5.79359C17.3278 5.54932 16.9839 5.36611 16.611 5.25603C16.2381 5.14594 15.8446 5.11149 15.4565 5.15494V5.16535Z" fill="#001D24"/>
<path d="M16.8067 6.47758C16.5847 6.26875 16.3115 6.11465 16.0112 6.02894C15.7108 5.94324 15.3927 5.92855 15.0849 5.98621C14.7771 6.04386 14.4892 6.17206 14.2466 6.35946C14.004 6.54686 13.8142 6.78768 13.6941 7.06058C13.574 7.33348 13.5273 7.63005 13.558 7.92402C13.5887 8.218 13.696 8.5003 13.8703 8.74594C14.0446 8.99158 14.2806 9.19296 14.5573 9.33226C14.8341 9.47157 15.143 9.54449 15.4568 9.54457C15.8344 9.54467 16.2035 9.43937 16.5175 9.24198C16.8314 9.04459 17.0761 8.76398 17.2206 8.43566C17.3651 8.10734 17.4029 7.74606 17.3293 7.39751C17.2556 7.04897 17.0737 6.72882 16.8067 6.47758Z" fill="white"/>
<path d="M15.8824 6.45654H15.0249V8.99241H15.8824V6.45654Z" fill="#DE1F26"/>
<path d="M21.6306 11.0601H9.28857V13.4085H21.6306V11.0601Z" fill="#323232"/>
<path d="M9.28857 11.0596H10.8044V9.63281L9.28857 11.0596Z" fill="black"/>
<path d="M7.97705 9.63329H9.49284V8.20654L7.97705 9.63329Z" fill="black"/>
</svg>
