<?xml version="1.0" encoding="utf-8"?>
<!-- Generator: Adobe Illustrator 26.0.1, SVG Export Plug-In . SVG Version: 6.00 Build 0)  -->
<svg version="1.1" id="Layer_1" xmlns="http://www.w3.org/2000/svg" xmlns:xlink="http://www.w3.org/1999/xlink" x="0px" y="0px" width="1024" height="219"
	 viewBox="0 0 1024 219" style="enable-background:new 0 0 1024 219;" xml:space="preserve">
<style type="text/css">
	.st0{fill:url(#SVGID_1_);}
	.st1{fill:url(#SVGID_00000065048288925087874140000012826941326953270414_);}
	.st2{fill:#FFFFFF;}
</style>
<path d="M391.9,61.6l-29.2,104.6H338l-19.6-74.5l-20.5,74.5l-24.6,0.1L245.1,61.6h22.5l18.4,81.2l21.3-81.2h23.4l20.1,80.7
	l18.6-80.7L391.9,61.6L391.9,61.6z"/>
<path d="M469.7,146.4H428l-6.9,19.9h-22l37.6-104.7h24.4l37.6,104.7h-22.2L469.7,146.4z M464,129.6l-15.1-43.7l-15.1,43.7H464z"/>
<path d="M602.2,166.3h-21l-47.5-71.8v71.8h-21V61.6h21l47.5,71.9V61.6h21V166.3z"/>
<path d="M695.7,93.3c-2.4-4.4-5.7-7.7-9.9-10s-9.1-3.4-14.7-3.4c-6.2,0-11.7,1.4-16.5,4.2s-8.5,6.8-11.2,12s-4,11.2-4,18
	c0,7,1.4,13.1,4.1,18.3c2.7,5.2,6.6,9.2,11.5,12s10.6,4.2,17.1,4.2c8,0,14.5-2.1,19.6-6.4c5.1-4.2,8.4-10.2,10-17.8h-36v-16h56.6
	v18.3c-1.4,7.3-4.4,14-9,20.2s-10.5,11.2-17.8,14.9c-7.2,3.7-15.4,5.6-24.3,5.6c-10.1,0-19.2-2.3-27.3-6.8s-14.5-10.9-19.2-18.9
	c-4.6-8.1-7-17.3-7-27.6s2.3-19.5,7-27.6c4.6-8.1,11-14.5,19.2-19c8.1-4.5,17.2-6.8,27.2-6.8c11.8,0,22,2.9,30.7,8.6
	s14.7,13.8,18,24.2h-24.1L695.7,93.3L695.7,93.3z"/>
<path d="M876.5,78.7v26.2h35.2v16.6h-35.2v27.7h39.7v17.1h-60.7V61.6h60.7v17.1H876.5L876.5,78.7z"/>
<path d="M951.6,163.7c-5.8-2.5-10.5-6.1-13.9-10.8s-5.1-10.2-5.2-16.6H955c0.3,4.3,1.8,7.7,4.6,10.2c2.7,2.5,6.5,3.7,11.3,3.7
	c4.9,0,8.7-1.2,11.5-3.5s4.2-5.4,4.2-9.2c0-3.1-1-5.6-2.8-7.6c-1.9-2-4.3-3.6-7.1-4.7s-6.8-2.4-11.8-3.8c-6.8-2-12.3-4-16.6-5.9
	c-4.2-1.9-7.9-4.9-10.9-8.8s-4.6-9.2-4.6-15.8c0-6.2,1.5-11.6,4.6-16.2c3.1-4.6,7.4-8.1,13-10.6c5.6-2.4,12-3.7,19.2-3.7
	c10.8,0,19.5,2.6,26.3,7.9c6.7,5.2,10.5,12.6,11.2,21.9H984c-0.2-3.6-1.7-6.6-4.6-8.9c-2.8-2.3-6.6-3.5-11.3-3.5
	c-4.1,0-7.4,1-9.8,3.1c-2.4,2.1-3.7,5.1-3.7,9.1c0,2.8,0.9,5.1,2.8,7c1.8,1.8,4.1,3.3,6.9,4.5c2.7,1.1,6.6,2.5,11.6,4
	c6.8,2,12.3,4,16.6,6s8,5,11.1,9s4.6,9.2,4.6,15.7c0,5.6-1.4,10.8-4.3,15.6c-2.9,4.8-7.1,8.6-12.7,11.5c-5.6,2.8-12.2,4.3-19.9,4.3
	C964,167.5,957.5,166.2,951.6,163.7z"/>
<linearGradient id="SVGID_1_" gradientUnits="userSpaceOnUse" x1="732.3" y1="399.9" x2="840.5" y2="399.9" gradientTransform="matrix(1 0 0 1 0 -286)">
	<stop  offset="0" style="stop-color:#C51C24"/>
	<stop  offset="1" style="stop-color:#FF0000"/>
</linearGradient>
<circle class="st0" cx="786.4" cy="113.9" r="54.1"/>
<g>
	
		<linearGradient id="SVGID_00000046327410158741402520000009962683836155101326_" gradientUnits="userSpaceOnUse" x1="15.6" y1="396.3" x2="201.2" y2="396.3" gradientTransform="matrix(1 0 0 1 0 -286)">
		<stop  offset="0" style="stop-color:#C51C24"/>
		<stop  offset="1" style="stop-color:#FF0000"/>
	</linearGradient>
	<circle style="fill:url(#SVGID_00000046327410158741402520000009962683836155101326_);" cx="108.4" cy="110.3" r="92.8"/>
	<g>
		<path class="st2" d="M177.9,79.7c0,0,0-0.1-0.1-0.1L163,94.4c0,0.1,0,0.1,0,0.2c1.3,4.7,2,9.7,2,14.9c0,18.9-9.3,35.7-23.5,46
			l-33.1-33.1l0,0l-13.5,13.5l0,0l-19.6,19.6l-0.1-0.1c-14.2-10.3-23.4-27-23.4-45.9c0-5.1,0.7-10.1,2-14.8L39,79.9
			c-3.9,9.1-6,19.1-6,29.6c0,24.1,11.3,45.6,28.9,59.4c5.2,4,10.8,7.4,17,10.1l29.6-29.6l0,0l29.7,29.7c0.1,0,0.1-0.1,0.2-0.1
			c6-2.6,11.7-6,16.7-10c17.6-13.8,28.9-35.3,28.9-59.4C184,98.9,181.8,88.8,177.9,79.7z"/>
		<path class="st2" d="M62.5,76.3C71,64.5,83.9,56.2,98.8,53.6v59.7c3.1-0.5,6.3-0.8,9.6-0.8c3.3,0,6.4,0.3,9.5,0.8V53.6h0.1
			c14.9,2.5,27.8,10.9,36.3,22.6l13.5-13.5c-12-15.2-29.7-25.7-49.8-28.2c-2.7-0.3-5.4-0.5-8.2-0.6h-0.2c-0.4,0-0.8,0-1.2,0
			c-0.4,0-0.8,0-1.2,0H107c-2.8,0.1-5.5,0.2-8.2,0.6C78.7,37,61,47.5,49,62.8l0,0L62.5,76.3L62.5,76.3z"/>
	</g>
</g>
</svg>
