<svg width="63" height="45" viewBox="0 0 63 45" fill="none" xmlns="http://www.w3.org/2000/svg">
<g clip-path="url(#clip0_48_569)">
<path d="M4.79932 36.4194C4.92382 37.3605 5.38865 38.2245 6.10727 38.8507C6.82588 39.477 7.74932 39.8227 8.70566 39.8236H30.9755C31.9315 39.8241 32.8548 39.4786 33.5725 38.852C34.2902 38.2253 34.7531 37.3605 34.8744 36.4194H4.79932Z" fill="white"/>
<path d="M8.70571 5.05116e-10C8.18693 -8.27867e-06 7.67324 0.101759 7.19423 0.299452C6.71522 0.497146 6.28032 0.786868 5.91453 1.15195C5.54874 1.51703 5.25928 1.95028 5.06279 2.42677C4.8663 2.90327 4.76665 3.41361 4.76959 3.92845V35.9468C4.76959 36.9828 5.18429 37.9764 5.92246 38.709C6.66062 39.4416 7.66179 39.8531 8.70571 39.8531H19.8667V5.05116e-10H8.70571Z" fill="#323232"/>
<path d="M30.9754 5.05127e-10H19.8145V39.831H30.9754C32.0194 39.831 33.0205 39.4194 33.7587 38.6869C34.4968 37.9543 34.9115 36.9607 34.9115 35.9247V3.92845C34.9145 3.41361 34.8148 2.90327 34.6183 2.42677C34.4219 1.95028 34.1324 1.51703 33.7666 1.15195C33.4008 0.786868 32.9659 0.497146 32.4869 0.299452C32.0079 0.101759 31.4942 -8.27867e-06 30.9754 5.05127e-10Z" fill="#323232"/>
<path d="M22.7833 5.03478e-07H3.89889C2.94295 -0.000481379 2.01963 0.344962 1.30191 0.971614C0.584185 1.59827 0.121304 2.46313 0 3.40417H27.0691C27.1904 2.46313 27.6533 1.59827 28.371 0.971614C29.0887 0.344962 30.012 -0.000481379 30.968 5.03478e-07H22.7833Z" fill="black"/>
<path d="M16.7268 39.8309H35.6112C36.5671 39.8314 37.4905 39.486 38.2082 38.8593C38.9259 38.2327 39.3888 37.3678 39.5101 36.4268H12.441C12.3165 37.3678 11.8517 38.2318 11.1331 38.8581C10.4144 39.4843 9.49101 39.8301 8.53467 39.8309H16.7268Z" fill="black"/>
<path d="M13.7562 8.37939H7.71436V10.7276H13.7562V8.37939Z" fill="white"/>
<path d="M32.4026 8.37939H26.3608V10.7276H32.4026V8.37939Z" fill="white"/>
<path d="M19.0242 11.7393H10.7354V14.0875H19.0242V11.7393Z" fill="white"/>
<path d="M19.0242 18.4883H10.7354V20.8365H19.0242V18.4883Z" fill="white"/>
<path d="M19.0242 22.2764H10.7354V24.6246H19.0242V22.2764Z" fill="white"/>
<path d="M19.0242 29.3213H10.7354V31.6695H19.0242V29.3213Z" fill="white"/>
<path d="M19.2997 25.6953H13.749V28.0435H19.2997V25.6953Z" fill="white"/>
<path d="M33.6019 28.6953H29.8071V31.0435H33.6019V28.6953Z" fill="#2D4375"/>
<path d="M30.7807 25.6953H20.3638V28.0435H30.7807V25.6953Z" fill="white"/>
<path d="M30.4082 15.0474H13.1235V17.3956H30.4082V15.0474Z" fill="white"/>
<path d="M24.9989 8.37939H15.021V10.7276H24.9989V8.37939Z" fill="white"/>
<path d="M58.3571 19.6348H25.5215C24.6256 19.6348 23.8994 20.3555 23.8994 21.2445V40.1115C23.8994 41.0005 24.6256 41.7212 25.5215 41.7212H58.3571C59.2529 41.7212 59.9791 41.0005 59.9791 40.1115V21.2445C59.9791 20.3555 59.2529 19.6348 58.3571 19.6348Z" fill="#343049"/>
<path d="M25.5216 19.6348C25.0907 19.6348 24.6774 19.8041 24.372 20.1058C24.0666 20.4075 23.8941 20.8169 23.8921 21.2445V40.1115C23.8941 40.5391 24.0666 40.9485 24.372 41.2502C24.6774 41.5519 25.0907 41.7212 25.5216 41.7212H42.1143V19.6348H25.5216Z" fill="#DE1F26"/>
<path d="M58.3497 19.6348H42.1143V41.7212H58.3497C58.7793 41.7193 59.1908 41.5491 59.4946 41.2476C59.7983 40.9461 59.9699 40.5378 59.9718 40.1115V21.2445C59.9699 20.8182 59.7983 20.4099 59.4946 20.1084C59.1908 19.8069 58.7793 19.6367 58.3497 19.6348Z" fill="#DE1F26"/>
<path d="M26.1764 21.0747C25.9179 21.0747 25.67 21.1766 25.4872 21.358C25.3044 21.5394 25.2017 21.7855 25.2017 22.0421V39.314C25.2017 39.5705 25.3044 39.8166 25.4872 39.998C25.67 40.1794 25.9179 40.2813 26.1764 40.2813H42.1143V21.0821L26.1764 21.0747Z" fill="white"/>
<path d="M57.7024 21.0747H42.1143V40.2739H57.7024C57.9596 40.272 58.2057 40.1692 58.3868 39.988C58.568 39.8068 58.6697 39.5619 58.6697 39.3066V22.0421C58.6697 21.7868 58.568 21.5418 58.3868 21.3606C58.2057 21.1794 57.9596 21.0767 57.7024 21.0747Z" fill="white"/>
<path d="M42.1143 41.7212V45.0072H60.076C60.46 45.0072 60.8403 44.9321 61.195 44.7863C61.5498 44.6405 61.8722 44.4267 62.1437 44.1572C62.4152 43.8877 62.6306 43.5678 62.7776 43.2157C62.9245 42.8637 63.0002 42.4863 63.0002 42.1052V41.7212H42.1143Z" fill="black"/>
<path d="M20.8711 41.7212V42.1052C20.8711 42.8748 21.1792 43.613 21.7276 44.1572C22.276 44.7015 23.0197 45.0072 23.7953 45.0072H42.1142V41.7212H20.8711Z" fill="black"/>
<path d="M41.4445 21.7617H25.8936V24.4496H41.4445V21.7617Z" fill="white"/>
<path d="M33 29.6455L38.2178 27.835V30.2032L35.6433 30.7991L38.2178 31.563V33.9313L33 32.0367V29.6455Z" fill="#DE1F26"/>
<path d="M42.664 25H45.4372L41.5257 36.7113H38.7603L42.664 25Z" fill="#DE1F26"/>
<path d="M45.9795 31.5323L48.5464 30.7683L45.9795 30.1724V27.8042L51.1896 29.6453V32.0059L45.9795 33.9005V31.5323Z" fill="#DE1F26"/>
</g>
<defs>
<clipPath id="clip0_48_569">
<rect width="63" height="45" fill="white"/>
</clipPath>
</defs>
</svg>
