<?xml version="1.0" ?><!-- Uploaded to: SVG Repo, www.svgrepo.com, Generator: SVG Repo Mixer Tools -->
<svg width="800px" height="800px" viewBox="0 0 32 32" data-name="Layer 1" id="Layer_1" xmlns="http://www.w3.org/2000/svg"><defs><style>.cls-1{fill:#4d4d4d;}</style></defs><title/><path class="cls-1" d="M6,21a1,1,0,0,0,1-1V17h8v3a1,1,0,0,0,2,0V17h8v3a1,1,0,0,0,2,0V17a2,2,0,0,0-2-2H17V13a1,1,0,0,0-2,0v2H7a2,2,0,0,0-2,2v3A1,1,0,0,0,6,21Z"/><path class="cls-1" d="M12,12a1,1,0,0,0,1-1c0-.28.88-.89,1.28-1l.11,0a2.3,2.3,0,0,0,1.1-.58,2.2,2.2,0,0,0,1,0,2.3,2.3,0,0,0,1.1.58l.07,0c.43.16,1.28.77,1.32,1.05a1,1,0,0,0,2,0c0-1.77-2.37-2.86-2.72-3h0A5,5,0,0,0,19,5a3.16,3.16,0,0,0-3-3,3.16,3.16,0,0,0-3,3,5,5,0,0,0,.74,3h0c-.35.1-2.72,1.19-2.72,3A1,1,0,0,0,12,12Zm4-8a1.17,1.17,0,0,1,1,1,2.69,2.69,0,0,1-.71,2.29.41.41,0,0,1-.58,0A2.68,2.68,0,0,1,15,5,1.17,1.17,0,0,1,16,4Z"/><path class="cls-1" d="M8.06,26.66A4.16,4.16,0,0,0,8.5,24.5,2.6,2.6,0,0,0,6,22a2.6,2.6,0,0,0-2.5,2.5,4.24,4.24,0,0,0,.43,2.16C3.3,27,2,27.76,2,29a1,1,0,0,0,1,1,1,1,0,0,0,1-1,2.11,2.11,0,0,1,.86-.64A2,2,0,0,0,5.69,28a1.63,1.63,0,0,0,.31,0,1.73,1.73,0,0,0,.32,0,2,2,0,0,0,.85.41,2.24,2.24,0,0,1,.83.62A1,1,0,0,0,10,29C10,27.76,8.7,27,8.06,26.66ZM6,24a.64.64,0,0,1,.5.5c0,.75,0,1.1-.46,1.54H6c-.44-.44-.46-.79-.46-1.54A.64.64,0,0,1,6,24Z"/><path class="cls-1" d="M18.06,26.66a4.16,4.16,0,0,0,.44-2.16A2.6,2.6,0,0,0,16,22a2.6,2.6,0,0,0-2.5,2.5,4.24,4.24,0,0,0,.43,2.16C13.3,27,12,27.76,12,29a1,1,0,0,0,1,1,1,1,0,0,0,1-1,2.11,2.11,0,0,1,.86-.64,2,2,0,0,0,.84-.41,1.63,1.63,0,0,0,.31,0,1.73,1.73,0,0,0,.32,0,2,2,0,0,0,.85.41,2.24,2.24,0,0,1,.83.62A1,1,0,0,0,20,29C20,27.76,18.7,27,18.06,26.66ZM16,24a.64.64,0,0,1,.5.5c0,.75,0,1.1-.46,1.54H16c-.44-.44-.46-.79-.46-1.54A.64.64,0,0,1,16,24Z"/><path class="cls-1" d="M28.06,26.66a4.16,4.16,0,0,0,.44-2.16,2.5,2.5,0,0,0-5,0,4.24,4.24,0,0,0,.43,2.16C23.3,27,22,27.76,22,29a1,1,0,0,0,1,1,1,1,0,0,0,1-1,2.11,2.11,0,0,1,.86-.64,2,2,0,0,0,.84-.41,1.63,1.63,0,0,0,.31,0,1.73,1.73,0,0,0,.32,0,2,2,0,0,0,.85.41,2.24,2.24,0,0,1,.83.62A1,1,0,0,0,30,29C30,27.76,28.7,27,28.06,26.66ZM26,24a.64.64,0,0,1,.5.5c0,.75,0,1.1-.46,1.54H26c-.44-.44-.46-.79-.46-1.54A.64.64,0,0,1,26,24Z"/></svg>