<?xml version="1.0" encoding="iso-8859-1"?>
<!-- Uploaded to: SVG Repo, www.svgrepo.com, Generator: SVG Repo Mixer Tools -->
<svg version="1.1" id="Layer_1" xmlns="http://www.w3.org/2000/svg" xmlns:xlink="http://www.w3.org/1999/xlink" 
	 viewBox="0 0 512 512" xml:space="preserve">
<circle style="fill:#324A5E;" cx="256" cy="256" r="256"/>
<path style="fill:#2B3B4E;" d="M437.019,437.019c37.223-37.221,60.575-83.056,70.08-131.087l-70.444-70.444
	c0,0.514-93.579,0.51-152.593,0.459l-64.824-64.824c-0.169,0.169-1.948,0.817-4.486,1.683l-10.755-10.757
	c0,0-106.698,131.019-105.882,130.201L311.746,505.88C357.655,495.685,401.303,472.736,437.019,437.019z"/>
<path style="fill:#EABC92;" d="M315.53,132.998L143.158,305.369c-7.718,7.718-7.718,20.233,0,27.951l0,0
	c7.72,7.72,20.233,7.718,27.951,0c-7.718,7.718-7.718,20.233,0,27.953c7.718,7.718,20.233,7.718,27.951,0
	c-7.718,7.718-7.718,20.233,0,27.951l0,0c7.718,7.718,20.233,7.718,27.951,0c-7.718,7.718-7.718,20.233,0,27.951l0,0
	c7.718,7.718,20.233,7.718,27.951,0l104.42-104.42c11.798-11.8,11.798-30.93,0-42.729l46.587-46.587L315.53,132.998z"/>
<path style="fill:#DBAA82;" d="M405.975,223.442l-39.458-39.458L183.513,366.987c5.57,0.443,11.29-1.453,15.55-5.713
	c-7.718,7.72-7.718,20.233,0,27.951c7.718,7.72,20.233,7.72,27.951,0c-7.718,7.72-7.718,20.233,0,27.951l0,0
	c7.718,7.72,20.233,7.72,27.951,0l104.42-104.42c11.798-11.8,11.798-30.93,0-42.729L405.975,223.442z"/>
<path style="fill:#F4E3C3;" d="M181.97,152.49l172.372,172.372c7.718,7.718,7.718,20.233,0,27.951l0,0
	c-7.72,7.72-20.233,7.718-27.951,0c7.718,7.718,7.718,20.233,0,27.953c-7.718,7.718-20.233,7.718-27.951,0
	c7.718,7.718,7.718,20.233,0,27.951l0,0c-7.718,7.718-20.233,7.718-27.951,0c7.718,7.718,7.718,20.233,0,27.951l0,0
	c-7.718,7.718-20.233,7.718-27.951,0l-104.424-104.42c-11.798-11.798-11.798-30.93,0-42.729l-46.587-46.587L181.97,152.49z"/>
<path style="fill:#FED8B2;" d="M91.526,242.933l46.587,46.587c-11.8,11.8-11.8,30.929,0,42.729l104.42,104.42
	c7.718,7.72,20.233,7.72,27.951,0l0,0c7.718-7.72,7.718-20.233,0-27.951c7.718,7.72,20.233,7.718,27.951,0
	c6.923-6.923,7.616-17.694,2.12-25.412L125.857,208.603L91.526,242.933z"/>
<rect x="113.682" y="127.401" transform="matrix(-0.7071 -0.7071 0.7071 -0.7071 88.4046 462.7232)" style="fill:#84DBFF;" width="52.706" height="171.303"/>
<rect x="67.948" y="219.422" transform="matrix(-0.7071 0.7071 -0.7071 -0.7071 357.0117 343.6718)" style="fill:#31BAFD;" width="78.763" height="52.706"/>
<path style="fill:#EABC92;" d="M303.24,217.5l-29.437,29.437c-8.128,8.128-21.307,8.128-29.437,0l0,0l-44.156,44.156
	c-8.128,8.128-21.307,8.128-29.437,0l0,0c-8.128-8.128-8.128-21.307,0-29.437l132.467-132.467V217.5H303.24z"/>
<rect x="331.101" y="107.901" transform="matrix(0.7071 -0.7071 0.7071 0.7071 -32.1663 309.4482)" style="fill:#B5F1F4;" width="52.706" height="171.303"/>
<rect x="344.616" y="197.355" transform="matrix(-0.7071 -0.7071 0.7071 -0.7071 503.5286 655.9849)" style="fill:#84DBFF;" width="86.015" height="52.706"/>
<path style="fill:#EABC92;" d="M239.942,434.078l14.281-14.281c7.72-7.72,7.718-20.233,0-27.951c-7.72-7.72-20.233-7.72-27.951,0
	c7.718-7.718,7.718-20.233,0-27.951c-7.718-7.718-20.233-7.72-27.951,0c7.72-7.72,7.718-20.233,0-27.953
	c-7.718-7.72-20.233-7.72-27.951,0c7.718-7.72,7.718-20.233,0-27.951l0,0c-7.718-7.72-20.233-7.72-27.951,0l-11.807,11.807
	c1.402,4.558,3.899,8.849,7.506,12.455L239.942,434.078z"/>
<path style="fill:#DBAA82;" d="M226.271,391.844c7.718-7.718,7.718-20.233,0-27.951c-7.718-7.72-20.233-7.72-27.951,0
	c4.687-4.687,6.509-11.138,5.504-17.215l-25.641,25.641l61.759,61.759l14.281-14.281c7.718-7.72,7.718-20.233,0-27.951
	C246.505,384.126,233.989,384.126,226.271,391.844z"/>
</svg>