<svg width="56" height="48" viewBox="0 0 56 48" fill="none" xmlns="http://www.w3.org/2000/svg">
<path d="M23 48C23.5523 48 24 47.5523 24 47V25C24 24.4477 23.5523 24 23 24H9.00005C8.44776 24 7.99679 23.5511 8.03095 22.9998C8.52846 14.9725 14.9725 8.52846 22.9998 8.03095C23.5511 7.99678 24 7.55232 24 7.00004V1C24 0.447716 23.551 -0.00215281 22.9991 0.0205909C10.2271 0.547006 1.13628e-06 11.1009 1.13628e-06 24V47C1.13628e-06 47.5523 0.447716 48 1 48H23Z" fill="#DE1F26"/>
<path d="M56 25C56 24.4477 55.5523 24 55 24H41C40.4478 24 39.9968 23.5511 40.031 22.9998C40.5285 14.9725 46.9725 8.52846 54.9998 8.03095C55.5511 7.99678 56 7.55232 56 7.00004V1C56 0.447716 55.551 -0.00215281 54.9991 0.0205909C42.2271 0.547006 32 11.1009 32 24V47C32 47.5523 32.4477 48 33 48H55C55.5523 48 56 47.5523 56 47V25Z" fill="#DE1F26"/>
</svg>
