<svg width="108" height="20" viewBox="0 0 108 20" fill="none" xmlns="http://www.w3.org/2000/svg">
<path d="M10.0003 1.66699L12.5753 6.88366L18.3337 7.72533L14.167 11.7837L15.1503 17.517L10.0003 14.8087L4.85033 17.517L5.83366 11.7837L1.66699 7.72533L7.42533 6.88366L10.0003 1.66699Z" fill="#FFB800"/>
<path d="M32.0003 1.66699L34.5753 6.88366L40.3337 7.72533L36.167 11.7837L37.1503 17.517L32.0003 14.8087L26.8503 17.517L27.8337 11.7837L23.667 7.72533L29.4253 6.88366L32.0003 1.66699Z" fill="#FFB800"/>
<path d="M54.0003 1.66699L56.5753 6.88366L62.3337 7.72533L58.167 11.7837L59.1503 17.517L54.0003 14.8087L48.8503 17.517L49.8337 11.7837L45.667 7.72533L51.4253 6.88366L54.0003 1.66699Z" fill="#FFB800"/>
<path d="M76.0003 1.66699L78.5753 6.88366L84.3337 7.72533L80.167 11.7837L81.1503 17.517L76.0003 14.8087L70.8503 17.517L71.8337 11.7837L67.667 7.72533L73.4253 6.88366L76.0003 1.66699Z" fill="#FFB800"/>
<path d="M98.0003 1.66699L100.575 6.88366L106.334 7.72533L102.167 11.7837L103.15 17.517L98.0003 14.8087L92.8503 17.517L93.8337 11.7837L89.667 7.72533L95.4253 6.88366L98.0003 1.66699Z" fill="#FFB800"/>
</svg>
