<?xml version="1.0" encoding="utf-8"?>
<!-- Generator: Adobe Illustrator 22.0.1, SVG Export Plug-In . SVG Version: 6.00 Build 0)  -->
<svg version="1.1" id="Layer_1" xmlns="http://www.w3.org/2000/svg" xmlns:xlink="http://www.w3.org/1999/xlink" x="0px" y="0px"
	 viewBox="0 0 500 401.7" style="enable-background:new 0 0 500 401.7;" xml:space="preserve">
<style type="text/css">
	.st0{fill-rule:evenodd;clip-rule:evenodd;fill:#999999;}
	.st1{fill-rule:evenodd;clip-rule:evenodd;fill:#FFFFFF;}
	.st2{fill-rule:evenodd;clip-rule:evenodd;fill:#004FA3;}
	.st3{fill-rule:evenodd;clip-rule:evenodd;fill:#CE2B37;}
	.st4{fill:#2C5861;}
	.st5{fill:#386A74;}
	.st6{fill:#B6E7F5;}
	.st7{fill:#72A4AD;}
	.st8{fill:#659199;}
	.st9{fill:#8ABBCA;}
	.st10{fill:#FDD691;}
	.st11{fill:#234A52;}
</style>
<g id="XMLID_89_">
	<g id="XMLID_5401_">
		<path id="XMLID_5569_" class="st0" d="M319.1,370.2c-2.5,0-4.2-2-4.2-3.8v-0.6l0.5-0.9l0.6-0.7l1.1-0.1c-0.8-0.6-1.5-1.4-1.9-2.6
			c-2.1-0.6-3.4-1.8-3.3-6c0-0.9-0.1-1.5-0.2-2c-0.1-0.3-0.1-0.6-0.2-0.9l-0.9-2.1c-2.2-5.8-1.8-7.9-1.2-9.7c0-0.1,0.1-0.3,0.1-0.4
			c-1.1-2.1,0.1-4.6,1.4-7.5c0.6-1.4,2-4.4,1.7-5.1c-2.2-1.4-2.7-3.4-2.9-4.6c-0.1-0.3-0.1-0.7-0.2-0.8c-1.7-0.2-2.5-1.6-3-2.4
			c-0.1-0.2-0.3-0.4-0.4-0.6c0,0.1-0.5,0.2-1.6,1c-2.1,1.5-3.5,2.1-4.7,2.1c-0.8,0-1.3-0.3-1.6-0.4c-0.7,0.5-1.6,0.7-2.4,0.7
			c-1.6,0-2.4-1-2.6-1.8c-0.1-0.2-0.2-0.8,0.1-1.5c-1.2-0.4-2.9-0.9-4.7-1.4l-1.6-0.5c-0.8-0.2-1.8-0.5-2.5-1
			c-0.7,0.4-1.8,0.5-3.1,0.5c-0.9,0-2.6-0.1-4.1-0.8c-0.6,0.4-1.6,0.7-2.9,1.2c-0.7,0.2-1.2,0.4-1.8,0.4c-0.1,0-0.2,0-0.3,0
			c0,0,0,0.1-0.1,0.1c-0.6,0.6-1.5,1-2.6,1c-0.7,0-1.4-0.1-2.2-0.2c-0.5-0.1-1-0.2-1.3-0.2c-0.6,0.2-1.2,0.4-1.8,0.5
			c0.3,0.6,0.3,1.4,0,2.2c0.6,0.4,1.5,1,1.6,2.2c0,0.2,0,0.4,0,0.7c0.7,0.5,1.8,1.3,1.6,2.8c-0.3,1.5-1.8,1.9-2.3,2
			c-1.1,0.3-1.8,0.4-2.3,0.4c-1.1,0-1.7-0.5-2.1-0.9c-0.4,0.3-0.9,0.6-1.6,0.6c-1.4,0-2.4-1.2-2.8-1.6c-0.2-0.2-1.4-0.2-2.1-0.3
			c-1.6-0.1-3.5-0.3-4.6-1.6c-0.9-0.1-1.6-0.8-2.2-1.5c-0.4,0.3-0.9,0.6-1.5,0.8c-0.7,0.2-1.3,0.4-2,0.4c-1.9,0-3.2-1-4.5-1.9
			c-1.1-0.8-2-1.5-3.3-1.5c-1.2,0-2.6,0.6-4.3,1.8c-1.4,1-2.8,2.1-3.8,3c-1.5,1.3-2.1,1.7-2.8,1.8c-0.7,0.8-1.9,1.3-3.6,1.7
			c-1.1,0.3-1.9,1.2-2.6,2c-0.8,0.9-1.6,1.8-2.8,1.8c-0.4,0-0.8-0.1-1.2-0.3c-0.6,0.4-1.2,0.8-2,0.8c-0.1,0-0.3,0-0.4,0
			c0,0-0.1,0.1-0.1,0.1c0,1,0,2.3-0.9,3.2c-0.5,0.5-1.1,0.7-1.8,0.7c0,0-0.1,0.3-0.2,0.4c-0.8,1.8-2.3,3.2-3.9,3.8
			c-0.2,0.2-0.5,0.7-0.7,1c-0.8,1.3-1.6,2.7-3.2,2.7h0c-0.3,0.4-0.8,0.6-1.3,0.8c0,0.6-0.1,1.4-0.3,2.4c-0.5,2.7-1.5,4-2.2,4.8
			c0,0,0,0,0,0c0.8,1.6,0.6,2.5,0.2,3.6c-0.3,0.7-0.6,1.6-0.7,3.6l-0.1,2.3c0,0-5.6-1.5-6.9-1.8c-7.9-2-9.1-2.4-9.7-7.7l-0.2-1.3
			c-0.3-2.1-0.5-2.4-0.8-3.1c-0.8-1.4-1.8-3.3-3.6-13.8c-1.7-9.8-3.5-10.6-6.7-12.1c-1.4-0.6-2.2-1-2.8-1.4
			c-0.2-0.1-0.4-0.2-0.6-0.3c-0.7,0.8-1.5,1.2-2.5,1.2c0,0-0.5,0-0.5,0c-0.5,0-0.9,0.1-1.6,1.5c-0.9,1.7-2,3.6-4,3.6
			c-1.4,0-2.6-0.9-4.7-2.5l-1.8-1.3c-3.4-2.5-3-5.5-2.7-7.7c0.3-2,0.3-2.9-1-3.9c-2.3-1.7-2.8-2.6-3.2-3.8c-0.1-0.3-0.2-0.6-1.1-1.4
			c-1.6-1.5-2.6-2.7-3.1-3.5h-10.3l-2,4H108l-26.5-12.6l0.3-0.7c-1.1,0-2.3,0-3.6,0.1c-1.7,0-3.5,0.1-5.4,0.1c-2,0-4.1,0-6-0.2
			l-3.3-0.3l1.7-2.4c-0.5-0.4-1-0.9-1.1-1.7c-0.1-1.3,0.8-2.2,1.2-2.6c0.2-0.2,0.3-0.3,0.3-0.3c-0.1-0.1-1-1-1.8-1.8
			c-0.7-0.8-1.6-1.6-2.5-2.7c-1.3-1.6-2.3-1.7-3.2-1.8c-1-0.1-3-0.4-3.1-3.2c0-0.6-0.4-0.9-2.9-1.4c-1.8-0.3-3.8-0.7-4.7-2.5
			c-0.6-1.1-0.6-2.5,0.1-4.2c0.2-0.4,0.2-0.4,0-0.8c-0.2-0.5-0.7-1.3-0.4-2.5c-0.5-0.3-1-0.8-1.2-1.6c-0.3-1.3,0.4-2.4,1-3.1
			c0.3-0.3-0.4-1.7-0.8-2.5c-0.9-1.9-2.6-5.3,1-7.4c0-0.3-0.8-1.5-1.3-2.2c-1.1-1.7-2.3-3.5-1.8-5.5c0.2-0.7,0.6-1.3,1.2-1.7
			c-0.1-0.2-0.2-0.3-0.2-0.4c-0.8-1.6-1.6-4.9-0.6-7.1c0.2-0.3,0.1-1,0.1-1.9c-0.1-2.2-0.3-5.5,2-10.8c0.3-0.6,0.1-0.9-0.3-1.7
			c-1.5-2.7-1.5-5.1,3-9.1c0.2-0.2,0.4-0.3,0.5-0.5c-0.2-0.3-0.2-0.7-0.2-1.1c0.1-1.3,1.1-1.9,3.8-3.3c0-0.4,0-0.9,0-1.3
			c-0.1-3.9-0.3-11.1,6.1-14.5c1.1-1.1,13.4-17.7,17.1-24.3l0.6-1l0.5,0c-0.2-0.9,0-1.9,0.7-3l0.5-0.8c1.9-3.2,3.6-5.9,3.7-8.4
			c0.3-6,2.1-9.3,5.1-9.3c0.9,0,1.8,0.3,2.6,0.9c1.4,0.9,3.5,1,5.2,1c1.9,0,3.5,0,4.4,1.3c0,0,0.1,0.1,0.1,0.1
			c0.7-0.9,1.4-1.4,2.1-1.8c-0.5-0.7-0.8-1.5-0.5-2.4c0.2-0.6,0.6-1,1-1.3c0-0.1-2.6-3.2-2.6-3.2h186.4c0.5,0,0.8-0.4,1.7-1.6
			c1-1.5,2.5-3.8,5.9-3.8c1.3,0,1.9,0.7,2.2,1.1c0.8,1.2,0.1,2.5-0.5,3.7c-0.2,0.4-0.5,1-0.6,1.4c0.2,0,0.5,0.1,1,0.1
			c1.7,0,2.9,0.7,4.3,1.4c0.8,0.4,1.8,1,3.1,1.6c0.6,0.3,1.2,0.4,1.6,0.4c0.3,0,0.5,0,0.7-0.1c0.4-0.1,0.7-0.1,1-0.1
			c1.2,0,2.3,0.5,3.5,1.7c0.1,0.1,0.3,0.3,0.9,0.3c0.6,0,1.2-0.1,1.9-0.2c1-0.2,2-0.3,3.1-0.3c2.9,0,5.3,1.1,7.5,3.3l3.6,3.6l-5-0.5
			c-1.1-0.1-1.9-0.2-2.6-0.2c-1.7,0-1.9,0.2-3.2,1.5c-0.5,0.5-1,1.1-1.8,1.7c-2.2,2-4.8,3.4-7.2,4.7c1.5-0.2,2.3-0.4,3-0.4
			c0.3,0,1.4,0,2.1,0.8c0.4,0.5,0.5,1.1,0.5,1.6c0.2-0.1,0.4-0.2,0.7-0.4c1.4-0.9,2.2-1,3.3-1.2c0.8-0.1,1.9-0.3,4.1-1.1
			c2-0.7,2.5-1.3,3.1-2.1c1.1-1.2,2.1-2.2,4.9-3c1.5-0.4,2.6-0.6,3.4-0.6c1.6,0,2.3,1,2.4,1.8c0.1,0.8-0.2,1.4-0.8,1.9
			c0.8,0.5,1.8,1.2,1.9,2.5c0.2,0.1,0.6,0.3,1.3,0.6c1.4-0.6,2.6-0.8,3.9-0.8c0.8,0,1.6,0.1,2.5,0.3c0.8,0.1,1.7,0.3,2.8,0.3
			c0.3,0,0.6,0,1,0c0.5,0,0.9,0,1.2,0c1.1,0,2.5,0.1,3.4,1.2c0.4,0.6,0.5,1.2,0.5,1.7c1.1-0.1,1.4-0.3,1.7-0.4
			c0.3-0.1,0.7-0.4,1.3-0.4c1.2,0,1.7,0.7,3,2.4l0.3,0.4c1.1,1.5,1,2.6,0.7,3.3c-0.8,1.6-2.9,1.6-3.8,1.6c-0.4,0-0.9,0-1.3,0
			c1.1,0.9,2,1.9,2.4,2.9c0.2,0.4,0.6,1.5,0,2.5l0,0.1c0.1,0.1,0.1,0.3,0.2,0.5c0.6,1.5-0.8,4.9-2.1,6.6c0.2-0.1,0.4-0.1,0.6-0.1
			h0.8l0.8,0.7c0.7,0.8,1,2.2,0.8,4.3l-0.1,1.4c-0.5,5.4-0.7,8.3-3.2,8.3h-0.1c-0.1,0.3-0.3,0.6-0.5,0.9c-0.6,1.2-1.3,2.7-2.2,3.9
			c-0.8,1-1.4,1.7-1.9,2.3c0,0,0,0.1-0.1,0.1c0.1,0.1,0.3,0.1,0.4,0.2c0.8,0.3,1.5,0.6,2.2,0.9c1.1,0.5,2,0.9,2.5,0.9
			c0.2,0,0.4,0,0.8-0.3c1.1-0.8,2.1-0.9,2.9-0.9c1.1-0.1,2.7-0.2,6.8-2.9c4-2.6,5.7-3.1,7.3-3.5c1.2-0.3,2.3-0.6,4.8-2.2
			c0.5-0.3,1.5-1,2.1-1.4c-0.2-0.5-0.4-1.1-0.5-1.9l-0.3-1.9l1.9-0.3c2.3-0.3,4-0.5,5.2-0.5c1.2,0,1.8,0.1,2.4,0.3
			c0.4,0.1,0.7,0.2,1.3,0.2c0.7,0,1.7-0.1,3.2-0.3c1-0.1,1.5-0.4,2.3-0.9c1.1-0.7,2.5-1.6,5.5-1.8c-0.2-0.6-0.3-1.2,0-1.9
			c0.1-0.2,0.2-0.3,0.3-0.5c0-0.2-0.1-0.5,0-0.7c0.1-1.4,1.5-2.3,2.8-2.9c0.9-0.4,1.7-1.7,2.6-3c1.7-2.6,4-6.1,9-6.1h23.3
			c1.3-1.3,2.1-1.6,2.9-1.9c0.2-0.1,0.4-0.1,1.1-1.1c1.3-1.7,3-2.2,4-2.6c0.3-0.1,0.8-0.2,0.9-0.3c0,0,0.1-0.1,0.1-0.6
			c0-1.7,0.7-2.5,1.4-3.3c0.4-0.5,0.9-1,1.6-2.1c1.1-1.8,2-2.4,2.8-2.9c0.7-0.5,1.4-0.9,2.5-2.4c1.6-2.2,2.7-3.3,4.2-3.3
			c1.1,0,1.7,0.6,2.1,1c0.1,0.1,0.2,0.1,0.3,0.1c0.2,0,0.6-0.1,1.2-0.5c3.4-2.1,4.8-2.5,5.8-2.5c1.1,0,2.4,0.5,2.7,2.8
			c0,0,0,0.1,0,0.1c0.7,0.2,1.4,0.6,1.8,1.4c0.4,1-0.1,1.7-0.3,2.1c-0.1,0.1-0.2,0.3-0.3,0.6c-1.3,3.9-2.9,8.7-3.4,10.9
			c0.8,0.4,1.9,1.2,2.7,3c0.1,0,0.2,0,0.3,0c1.5,0,2.5,1.2,3.2,2.2c0.6,0.7,0.7,1.6,0.4,2.4c-0.9,2.3-7.1,5.4-9.7,6.2
			c-0.6,0.5-1.2,0.8-2,0.8c-0.9,0-1.7-0.4-2.3-0.7c-0.1-0.1-0.2-0.1-0.3-0.2c0,0.1-0.1,0.2-0.1,0.4c-0.3,1.2-0.9,3.1-2.6,3.1
			c-0.6,0-1.1-0.2-1.4-0.5c-0.8,1.4-1.7,2.1-3,2.1c-0.7,0-1.3-0.3-1.6-0.5c-1.7,1.2-3.2,1.5-4.4,1.7c-1.6,0.3-2.6,0.5-3.8,2.4
			c-1.6,2.7-2.2,3.2-3,3.8c-0.3,0.2-0.6,0.4-1.3,1.4l-0.2,0.3c-1.8,2.5-1.9,2.5-1.1,4.6c0,0,0.2,0,0.3-0.1c0.2-0.1,0.5-0.1,0.8-0.1
			h1.1l0.7,1c0.7,1.2-0.1,2.4-1.3,4.2l-1.8,2.8l-1.1-2.4c-0.2,0.1-0.5,0.3-0.6,0.4c-0.9,0.6-2,1.3-3.2,1.3c-0.3,0-0.7,0-1.1-0.2
			c-1.2,1.1-3,2-4.8,2c-0.7,0-1.3-0.1-1.9-0.4c-0.1,0-0.1-0.1-0.2-0.1c-0.9,0.7-2.2,1-4.9,1c-3,0-3.9,1-4.9,2.2
			c-0.8,0.9-1.7,2-3.4,2.2c-0.1,0.2-0.1,0.4-0.3,0.7c0.1,0.1,0.1,0.3,0.1,0.4c0.3,1.4-0.7,2.5-1.8,3.5c-0.8,0.7-1.4,1.2-1.9,1.6
			c-0.7,0.6-1.2,0.9-1.8,1.9c-0.1,0.2-0.4,0.6-0.8,0.9l0.4,0.3l-1.7,1.4c-1,0.8-1.8,1.2-2.7,1.2c-0.2,0-0.3,0-0.5,0
			c-0.9,1.5-1.6,2-2.6,2.2c-0.2,0.1-0.6,0.2-1.7,1.7c-0.3,0.5-0.6,1-0.8,1.4c-0.2,0.4-0.4,0.7-0.6,1.1c0,0.1,0.1,0.3,0.1,0.4
			c0.4,3.3-3.1,7.8-4.2,9.1l-0.6,0.7l-1,0.1c-0.8,1.6-1.8,3.1-3.2,3.8c-0.9,0.5-1.6,0.7-2.1,0.7h-0.5c0,0.1,0,0.3,0,0.4
			c0,1.1,0,2.4,0.3,3.2c0.7,2.2,1.4,6.4-0.1,8.5c-0.2,0.3-0.4,0.5-0.7,0.7c0.3,1.4-0.3,3.1-1.5,4.2c-0.3,0.2-0.4,0.4-0.5,0.6
			c-0.3,0.4-0.9,1.5-2.4,1.5c-0.2,0-0.4,0-0.7-0.1l0.3,1l-1.4,1c-0.1,0.1-0.3,0.4-0.4,0.8c-0.5,1.3-1.5,3.4-5.3,3.7
			c-1.6,0.1-2.5,1.2-3.4,2.3c-0.7,0.9-1.6,1.9-2.9,1.9h-0.5c-0.4,0.4-1.1,1.2-1.6,1.7c-1.8,2-3.6,4-5.6,4c-0.3,0-0.7-0.1-1-0.2
			c-0.1,0-0.3-0.1-0.4-0.1c-1.7,0-3.9,2.3-4.3,3c-1.5,3.2-2.3,4.1-3.9,4.4c-0.2,0-0.2,0.1-0.6,0.4c-2.5,2.6-4.1,3.7-5.7,3.7
			c-0.3,0-0.6,0-0.9-0.2c-0.8,0.6-1.5,0.9-2.1,0.9c-0.1,0.6-0.4,1.2-1,1.7c0.1,0.6,0.1,1.3-0.3,1.9c-0.6,0.8-1.5,0.9-1.9,0.9
			c-0.4,0-0.9,0.1-1.8,1.3c-5.9,8.5-6,10.8-6,12c0,0.8,0,1.7-0.8,2.8c-1.2,1.8,0.2,10.1,0.8,13.7c0,0.2,0.1,0.4,0.1,0.5
			c0.6,0.6,0.7,1.7,0.7,2.6c0.1,1.4,0.3,3.2,0.5,4.9c0.5,4,0.7,5.9-0.1,6.7c0.2,0.4,0.3,0.8,0.5,1.2c0.5,1.2,0.9,2.3,0.9,3.2
			c1.1,1.7,1.5,5.2-2.4,14.2c-0.3,0.8-0.5,1.3-0.6,1.6l0.2,0.9c0.1,1-0.4,1.7-1,2.3c-0.5,0.6-1.4,1.5-2.6,1.5c-0.1,0-0.2,0-0.2,0
			c-0.4,0.5-1,1-1.9,1h-0.2c0,0-0.5-0.1-0.5-0.1c0,0-0.2,0-0.4,0.2C320.7,370,319.9,370.2,319.1,370.2z M383.9,237.8
			c0,0.3,0.1,0.6,0.5,1.2l1,1.4c0.1-0.1,0.1-0.2,0.1-0.2h0c0,0-0.3-0.3-0.4-0.5C384.7,239.4,384.1,238.7,383.9,237.8z M383.6,236.5
			c0.1,0.2,0.1,0.4,0.1,0.6c0-0.5,0.1-1,0.5-1.6c-0.1-0.1-0.1-0.2-0.2-0.2c0,0.4-0.1,0.8-0.3,1.1
			C383.7,236.4,383.7,236.4,383.6,236.5z M336.2,171.2c-0.2,0.9-1,2.3-3.5,4.7c-2.7,2.6-5.1,6-6.7,8.2c-1.3,1.9-1.8,2.6-2.5,3
			c-0.8,0.5-1.1,1.2-1.9,2.9c-0.9,2-2.2,4.6-5.1,8.6c-0.2,0.6-0.7,3.3-0.4,4.3c2.4-0.5,6.7-2,10.7-5.8c3.5-3.3,3.3-7,3-7.6
			c-1.3-1.8-0.7-2.9,0.1-4.4c0.3-0.6,0.8-1.5,1.5-2.9c2.1-4.5,2.9-5.4,4-6.5c0.4-0.4,0.8-0.7,1.4-1.6c0.9-1.3,1.9-1.9,2.9-1.9
			c0.3,0,0.6,0.1,0.9,0.2c0.4-1.2,1.4-1.6,2.6-2.1c0.5-0.2,0.6-0.4,0.9-1c0.2-0.4,0.4-0.7,0.6-1.1c-0.5,0.1-0.9,0.1-1.2,0.1l-1.1,0
			c-1.3,0-2.3,0.2-3.2,0.9C338.1,170.3,337.1,170.9,336.2,171.2z"/>
		<path id="XMLID_5570_" class="st1" d="M195.7,361.5c0.2-4.8,1.8-4.5,0.7-6.4c-1.1-1.9,1.3-1.4,2.1-5.9c0.8-4.4-0.9-3.5,1.3-3.8
			c2.2-0.3-0.3-2.2,1.9-1c1.1,0.6,2.2-3.2,3.3-3.5c2.3-0.7,4-3.7,3.2-5.2c3.7,3.2,2.1-2.7,2.7-2.2c0.6,0.5-0.2-2.5,1.6-1.1
			c1.3,1,2.2-1.7,3.3-0.5c1.1,1.3,2.2-2.7,5.4-3.5c5.4-1.4,0.8-2.1,2.2-3.3c1.4-1.3-1.7-1.5,3.4-4.2c-2.4,3-0.1,2.8-1.5,5
			c-1.4,2.2,1.7-1,5.4-3.7c8.6-6,9.6,2.8,14.5,0.9c2.5-0.9,1.6-2.7,3.5-0.3c1.9,2.4,1.1-0.6,2.1,1.3s5.7,0.7,7,2.2
			c2.2,2.7,2.2-1.4,3.5-0.2c1.3,1.3,0.3,1.9,3.3,1.1c3-0.8-1.9-1.9-0.8-3c1.1-1.1-2.3-1.6-1.6-2.9c2.1-4-5.9-0.5-4.3-4.8
			c1.4-3.6,2.5,2.4,7.5,0.3c1.3-0.5,5.8,1.6,5.6-1c-0.3-3.5,0.4-2.8,0.4-2.8s-1.2,4.1,2.3,2.8c3.5-1.3,2.9-1,3-2.2
			c1.7,2.5,8.7,1.7,7,0.6c-1.8-1.1,5.2-1.3,7-0.6c1.8,0.6-10.6,0-3.2,2.2c7.5,2.2,10,2.9,8.3,3.8c-1.7,0.9-0.3,1.9,1.8,0.8
			c2.1-1.1,1.1,1.9,6-1.6c4.9-3.5,3.8,1.3,6.4,1.7c2.5,0.5,0.6,3.5,3.8,5.6c3.2,2.1-3.8,10.5-2.5,13c1.3,2.5-2.1,1.6,1.3,10.5
			c1.1-1.1,2.5-1,1.4,0.8c-1.1,1.8,0.1,2.2,0,4.9c-0.2,5.7,2.5,3.2,3.2,5.4c0.6,2.2,4.5,2.7,2.5,3.3s0.3,2.9-1.7,1.7
			c-2.1-1.1-0.6,3.7,2.9,1.9c2.1-1.1,1.7,0.7,2.9-1.3c0.8-1.4,0.6,1.3,2.4-0.8c1.7-2.1-1.1,0.6,1.1-4.4c2.2-5.1,4.1-10.9,2.2-12.9
			c0.3-1.9-2.4-5.2-2.5-10.9c-0.2-5.7,0.9,4.8,1.6,4.6c0.6-0.2-0.6-6.8-0.8-10.3c-0.2-3.5,0,2.1-0.8-2.9c-0.8-4.9-2.1-12.7-0.5-15.1
			c1.6-2.4-2.1-2.2,6.8-14.9c2.7-3.8,4.3-0.7,3.5-3.5c-0.3-1.1,2.4-0.4,0.5-3.6c-1.9-3.2,2,3.4,4.3-1.1c0.5-1-0.2,3.8,5.6-2.2
			c2-2.1,1.7,0.7,4.2-4.4c0.6-1.3,4.1-4.8,6.9-3.9c2.4,0.8,6.4-6.5,7.8-5.7c1.4,0.8,2.4-3.8,6.5-4.1c4.1-0.3,3.2-3,4.8-4.1
			c1.6-1.1-4.5,1.6-1.3-1c2.1-1.6-4.3-3.9,0.8-2.2c4.9,1.6,3.2,0.8,4.9-0.8c1.7-1.6,1-4.1-0.5-2.4c-1.4,1.7,1.1-0.6-2.2-0.5
			c-3.3,0.2-2.2-0.8-1.6-2.4c1,1.8,2.9,0.8,5.1,1.1c2.2,0.3,1.9-4.3,1-7.3c-1-3,0.8-8.9-2.4-6.8c3.2-2.5-0.5-3-1.3-4.8
			c2.3,1.3,1.7,0,3.3,0.6c-1.9-2.7,0.5-2.7-3.2-5.1c1.6,0.8,3.7,1.4,1.8-2.1c1.4,1.7,0-2.7,2.5-4.4c2.5-1.7,5.9-2.7,2.9-0.2
			c-3,2.5,0,1-1.4,3.5c-1.4,2.5,1.9,2.4,0.5,4.4c-1.4,2.1,2.9,2.7,0.8,5.4c-2.1,2.7-2.5,4.1-0.2,2.9c2.4-1.3,3.7-7,5.7-9.2
			c2.1-2.2-2.3,6-1.6,5.1c1.6-1.9,5.4-7.3,3-9c-2.4-1.8,0.8-1.8-1.7-3.3c-2.5-1.6-1.2-1.6-1.1-3.6c1.1,3.6,2.7,2.5,3.2,5.4
			c0.5,2.9,0.8,0.5,2.1-1.3c2.7-3.8,2.7-1.1,4.3-4c1.6-2.9,0.8,0.8,3.5-1.4c-2.1-1.8-1.6-2.1-2.3-3.2c2,1.8,2.8,2.9,4.1,1
			c1.3-1.9,2-1.9,4-3.8c3.3-3.2-1.4-1.6,1-3.2c0.8-0.5,0.4-1.6,1.9-1.9c2.7-0.5,2.4-4.4,8.6-4.4c6.2,0,2.7-2.2,5.9-0.8
			c2.3,1.1,6-1.7,5.7-3.2c1,4.6,5.2-2.4,6.5,0.3c3.2-4.9-0.6-0.3-1.7-3.5c-1.1-3.2-0.6-3.7,1.6-6.7c2.2-3,1.6-0.6,4.3-5.1
			c2.7-4.4,5.7-2.4,8.4-4.6c2.7-2.2,2.7,3.5,5.7-4c1-2.4,1.1,5.9,2.5,0.6c1.2-4.5,4,0.8,5.6-1.4c-0.3,0.5,10.5-4.3,8.9-5.8
			c-2.6-3.8-2.3,0.9-3.8-2.6c-1.4-3.5-3.5-1.3-2.9-4c0.6-2.7,3-9.8,3.5-11.3c0.5-1.4,1.3-1.4-0.3-1.9c-2.3-0.7,1.5-5.4-6.7-0.5
			c-5,3.1-2.8-3.8-7.2,2.2c-2.5,3.5-3.5,2.4-5.2,5.2c-1.7,2.9-2.7,2.7-2.7,4.4c0,3.5-3.2,1.8-5.4,4.6c-2.2,2.9-1.7,0.5-4.7,3.7
			c0,0-21,0-24,0c-6.5,0-7.2,7.2-10.8,8.9c-4.3,2.1,0.8,2.2-1.8,2.9c-1.6,0.4,1.7,3.2,0.2,3.2c-6.8,0-6.2,2.4-9.8,2.9
			c-7.5,1-2.7-0.9-12.1,0.3c0.5,3,2.4,2.1-2.4,5.1c-5.9,3.7-4.9,1.1-12.1,5.7c-7.2,4.6-7.6,2.4-9.7,3.8c-2.1,1.4-3.5,0.2-7.2-1.3
			c-3.7-1.4-2.5-1.1,0.8-5.4c2-2.6,2.9-6.8,4-5.7c1.1,1.1,1.4-4.6,1.8-7.9c0.3-3.3-0.8-3.8-1.6-1.9c-0.8,1.9-1.6-0.2-2.2,0.3
			c-0.6,0.5-2.9-0.2-0.6-1.3c2.2-1.1-0.5-1.4,1.4-2.7c1.1-0.7,2.5-4.4,2.2-5.1c-1.6-3.8,0.6-1.1-0.2-3c-0.7-1.8-4.2-4.2-5.9-4
			c-4.3,0.5-2.5,2.9-5.3,4c-2.7,1.1-0.6,0.6-2.4,3.3c-1.7,2.7-2.7,1.6-1.4-0.2c0.6-0.8-0.3-2.1-1.8,0c-2.1,3-2.1,0.9-5.2,7.8
			c-2,4.3-2.7,4.1-1.7,5.4c0.9,1.3,0.9,6-3.2,10c-4.1,4-8.7,5.7-11.9,6.4c-3.3,0.7-1.6-6.7-1.1-7.3c5.5-7.3,4.9-10.2,7.5-11.9
			c1-0.7,4.3-6.8,8.9-11.1c3.2-3,4.3-5.6,0.8-2.4c-3.5,3.2-1.9,0.5-6.8,4.8c2.2-3.3,5.4-6,7.6-8.1c2.2-2.1,3.2-1.6,1.9-0.5
			c-1.3,1.1,0.3,2.1,3-0.3c2.7-2.4,6-0.8,7.2-1.7c2-1.8,5.4,2.4,5.1,0.8c-0.3-1.6,10,1.4,7.2-2.2c-2.9-3.6-0.9-1.4-4.9-1.3
			c-5.1,0.2,1.6-3.3-4.9-2.9c-4.6,0.3-5.7-1.6-10.2,0.5c-5.7-2.2-1.4-2.1-4.1-3.5c-2.7-1.4-4.4,0.2-5.1,0c-0.6-0.2,0.3-1.4,2.9-2.1
			c2.5-0.6,3.7-2.2-1.3-0.8c-4.9,1.4-3,3.3-7.9,5.1c-4.9,1.7-4.8,0.6-7.2,2.1c-2.4,1.4-3.7,1.4-3.7,0.3c0-2.3,1.7-2.7-4.6-1.6
			c-2.7,0.5-8.6,1.3-4.6-1.1c4-2.4,8.3-3.8,11.8-7c3.5-3.2,2.7-4.1,9-3.5c-5.5-5.6-10.7-0.4-13.4-3c-2.7-2.5-2.7,0-6.4-1.6
			c-3.7-1.6-4.6-2.9-6.7-2.9c-6.8,0,0.8-6.4-2.1-6.4c-4.5,0-4.1,5.4-7.5,5.4c-7,0-182.6,0-182.6,0c3.6,4.5-2.8,1.2,0.3,4.7
			c3.2,3.5-1.1-1.1-3.8,5.1c-2.7,6.2-2.7,1.6-1.9-1.1c0.8-2.7-5.4-0.2-9.2-2.7c-3.8-2.5-4.8,3.8-4.9,7c-0.2,3.2-2.2,6.3-4.4,10
			c-2.2,3.6,3.3,2.7,5.3,5.6c0,0-3.3-1.3-7.1-1.7c-3.8,6.9-16.8,24.6-17.8,25.1c-7.6,4.1-4.1,14.9-5.4,15.5
			c-7.4,3.7-0.1,1.1-4.5,4.9c-6.9,6-0.6,6.2-2.2,10.1c-3.2,7.6-1.1,10.7-2.1,12.7c-0.9,2.1,0.5,6.2,1.3,6.4c1.9,0.4,1.7-2.4,4.3-1.8
			c-1.9,0.3,0.5,1.2-4.4,3.3c-4.9,2.1,4.6,7.8,0.8,10c-3.8,2.2,2.5,6.8,0.3,9.5c-2.2,2.7,1.8,1.6,0.8,3.3c-1,1.8,1.1,1.8,0.2,4.1
			c-2.4,6.1,7.3,2.4,7.6,7.3c0.2,2.7,2.5,0,5.9,4c3.3,4,6,5.2,3.8,7.3c-2.2,2.1,2.2,1.1,0.3,3.8c6.2,0.5,13.8-0.1,17.6,0.1l-0.7,1.6
			l24.5,11.7h18l2-4H141c0,0,0.4,1.3,3.2,4c2.9,2.7,0.2,2.1,4.1,5.1c4.5,3.4-1.2,8,3.7,11.6c5.4,4,5.6,4.9,7.8,0.8
			c2.2-4.1,3.8-1.4,4.9-3c1.1-1.6,1.4-0.6,5.3,1.1c3.8,1.7,6.2,2.6,8.1,13.6c2.9,16.8,3.7,10.8,4.4,17
			C183.3,359.1,182,357.8,195.7,361.5L195.7,361.5z"/>
		<g id="XMLID_5586_">
			<path id="XMLID_5587_" class="st2" d="M98,148.5c-0.4-0.2-0.9-0.4-1.7-0.4l0.1,0.4H98z"/>
			<path id="XMLID_5643_" class="st2" d="M103.8,140.8c3.6,4.5-2.8,1.2,0.3,4.7c2.7,3,0,0.1-2.5,3h0.9l-1.7,1.2
				c-0.2,0.3-0.3,0.5-0.5,0.8c-2,4.5-2.5,3.3-2.3,1.2l-0.5,0.3l1.9,5.8l-5-3.6l-5,3.6l1.9-5.8l-5-3.6h6.1l0.2-0.6
				c-1.2-0.1-2.5-0.4-3.5-1.1c-3.8-2.5-4.8,3.8-4.9,7c-0.1,2.6-1.6,5.2-3.3,8.1h4.3l-5,3.7l0.3,1.1c1.4,0.7,3.5,1.1,4.6,2.7
				c0,0-1.7-0.7-4.1-1.2l1,3.2l-4.2-3.2c-4.1,7.2-16.6,24.1-17.5,24.6c-2.5,1.4-3.8,3.5-4.4,5.7h3.3l1.9-6l1.8,6h6.2l-5.1,3.6
				l1.9,5.8l-4.8-3.6l-5,3.6l1.8-5.8l-2.5-1.8c-0.6,3.9,0.2,7.7-0.5,8c-7.4,3.7-0.1,1.1-4.5,4.9c-6.9,6-0.6,6.2-2.2,10.1
				c-1.3,3.2-1.7,5.5-1.8,7.4v10.1c0.3,0.8,0.7,1.5,1,1.6c1.9,0.4,1.7-2.4,4.3-1.8c-1.9,0.3,0.5,1.2-4.4,3.3
				c-0.4,0.2-0.6,0.4-0.8,0.6v3c1.3,2.3,3.9,5,1.6,6.4c-3.8,2.2,2.3,6.7,0.4,9.4H105h45.2h58.5V140.8
				C159,140.8,103.8,140.8,103.8,140.8z M59.2,223.4l1.9-5.8l1.8,5.8h6.2l-5.1,3.6l1.9,5.8l-4.8-3.6l-5,3.6L58,227l-5-3.6H59.2z
				 M66.6,257.6l-5-3.5l-5,3.5l1.9-5.7l-5-3.6h6.1l1.9-6l1.8,6h6.2l-5,3.6L66.6,257.6z M82.1,247.5l-4.8-3.6l-5,3.6l1.8-5.8
				l-4.8-3.6h6.1l1.9-5.8l1.8,5.8h6.2l-5,3.6L82.1,247.5z M80.7,215.8l1.9,5.8l-5-3.6l-5,3.6l1.9-5.8l-5-3.6h6.1l1.9-5.8l1.8,5.8
				h6.2L80.7,215.8z M80.7,190.1l1.9,5.8l-5-3.6l-5,3.6l1.9-5.8l-5-3.7h6.1l1.9-5.8l1.8,5.8h6.2L80.7,190.1z M201.5,233.7l-4.8-3.6
				l-5.1,3.6l1.9-5.8l-5-3.6h6.2l1.9-5.8l1.8,5.8h6.2l-5.1,3.6L201.5,233.7z M186,221.2l-5-3.6l-5,3.6l1.9-5.8l-5-3.6h6.1l1.9-5.8
				l1.8,5.8h6.2l-5,3.6L186,221.2z M186,195.5l-5-3.7l-5,3.7l1.9-5.8l-5-3.7h6.1l1.9-5.8l1.8,5.8h6.2l-5,3.7L186,195.5z
				 M201.5,208.7l-4.8-3.6l-5.1,3.6l1.9-5.8l-5-3.6h6.2l1.9-5.8l1.8,5.8h6.2l-5.1,3.6L201.5,208.7z M201.1,183.8l-5-3.6l-5,3.6
				l1.9-5.8l-5-3.6h6.1l1.9-5.8l1.9,5.8h6.1l-5,3.6L201.1,183.8z M193.8,149.5l1.9-6l1.9,6h6.1l-5,3.6l1.9,5.8l-5-3.6l-5,3.6
				l1.9-5.8l-5-3.6H193.8z M178.7,161.4l1.9-5.8l1.8,5.8h6.2l-5,3.7l1.8,5.8l-4.8-3.7l-5,3.7l1.9-5.8l-5.1-3.7H178.7z M169,207.9
				l-4.8-3.6l-5,3.6l1.8-5.8l-5-3.6h6.2l1.9-6l1.8,6h6.2l-5.1,3.6L169,207.9z M143.9,161.8l1.9-5.8l1.8,5.8h6.2l-5,3.7l1.8,5.8
				l-4.8-3.6l-5,3.6l1.8-5.8l-4.8-3.7H143.9z M134.2,208.3l-4.8-3.6l-5.1,3.6l1.9-5.8l-4.8-3.6h6.1l1.9-5.8l1.8,5.8h6.2l-5,3.6
				L134.2,208.3z M110,161.4l1.9-5.8l1.8,5.8h6.2l-5,3.7l1.8,5.8l-4.8-3.7l-5,3.7l1.9-5.8l-5.1-3.7H110z M100.3,207.9l-4.8-3.6
				l-5,3.6l1.8-5.8l-5-3.6h6.2l1.9-6l1.8,6h6.2l-5.1,3.6L100.3,207.9z M93.1,173.4l1.8-5.8l1.9,5.8h6.1l-5,3.6l1.9,5.8l-5-3.6
				l-5,3.6l1.9-5.8l-5-3.6H93.1z M93.5,223.4l1.9-5.8l1.8,5.8h6.2l-5.1,3.6l1.9,5.8l-4.8-3.6l-5,3.6l1.8-5.8l-5-3.6H93.5z
				 M100.9,257.6l-5-3.5l-5,3.5l1.9-5.7l-5-3.6H94l1.9-6l1.8,6h6.2l-5,3.6L100.9,257.6z M116.8,247.1l-4.8-3.6l-5,3.6l1.9-5.8
				l-5.1-3.6h6.2l1.9-6l1.8,6h6.2l-5,3.6L116.8,247.1z M115.4,215.4l1.9,5.8l-5-3.6l-5,3.6l1.9-5.8l-5-3.6h6.1l1.9-5.8l1.8,5.8h6.2
				L115.4,215.4z M115.4,189.6l1.9,5.8l-5-3.7l-5,3.7l1.9-5.8l-5-3.7h6.1l1.9-5.8l1.8,5.8h6.2L115.4,189.6z M126.5,148.9l1.9-5.8
				l1.9,5.8h6.1l-5,3.6l1.9,5.8l-5-3.6l-5,3.6l1.9-5.8l-5-3.6H126.5z M126.9,174l1.9-6l1.9,6h6.1l-4.8,3.6l1.8,5.8l-5-3.6l-4.8,3.6
				l1.8-5.8l-5-3.6H126.9z M127.5,223.8l1.9-5.8l1.8,5.8h6.2l-5,3.6l1.8,5.8l-4.8-3.6l-5.1,3.6l1.9-5.8l-4.8-3.6H127.5z M134.8,258
				l-5-3.6l-5,3.6l1.9-5.7l-5-3.6h6.1l1.9-5.8l1.8,5.8h6.2l-5,3.6L134.8,258z M150.7,247.5l-4.8-3.6l-5,3.6l1.8-5.8l-4.8-3.6h6.1
				l1.9-5.8l1.8,5.8h6.2l-5,3.6L150.7,247.5z M149.3,215.8l1.9,5.8l-5-3.6l-5,3.6l1.9-5.8l-5-3.6h6.1l1.9-5.8l1.8,5.8h6.2
				L149.3,215.8z M149.3,190.1l1.9,5.8l-5-3.6l-5,3.6l1.9-5.8l-5-3.7h6.1l1.9-5.8l1.8,5.8h6.2L149.3,190.1z M161.2,148.5l1.9-5.8
				l1.9,5.8h6.1l-5,3.6l1.9,5.8l-5-3.6l-5,3.6l1.9-5.8l-5-3.6H161.2z M161.8,173.4l1.8-5.8l1.9,5.8h6.1l-5,3.6l1.9,5.8l-5-3.6
				l-5,3.6l1.9-5.8l-5-3.6H161.8z M162.2,223.4l1.9-5.8l1.8,5.8h6.2l-5.1,3.6l1.9,5.8l-4.8-3.6l-5,3.6l1.8-5.8l-5-3.6H162.2z
				 M169.5,257.6l-5-3.5l-5,3.5l1.9-5.7l-5-3.6h6.1l1.9-6l1.8,6h6.2l-5,3.6L169.5,257.6z M185.5,247.1l-4.8-3.6l-5,3.6l1.9-5.8
				l-5.1-3.6h6.2l1.9-6l1.8,6h6.2l-5,3.6L185.5,247.1z M202.1,258.6l-5.1-3.7l-4.8,3.7l1.9-5.8l-5.1-3.6h6.2l1.8-5.8l1.9,5.8h6.2
				l-5,3.6L202.1,258.6z"/>
		</g>
		<g id="XMLID_5669_">
			<path id="XMLID_5692_" class="st3" d="M152,323.2c5.4,4,5.6,4.9,7.8,0.8c2.2-4.1,3.8-1.4,4.9-3c1.1-1.6,1.4-0.6,5.3,1.1
				c3.5,1.6,5.9,2.6,7.7,11.5h33c0-0.1,0.1-0.1,0.1-0.1c0.6,0.5-0.2-2.5,1.6-1.1c1.3,1,2.2-1.7,3.3-0.5c1.1,1.3,2.2-2.7,5.4-3.5
				c5.4-1.4,0.8-2.1,2.2-3.3c1.4-1.3-1.7-1.5,3.4-4.2c-2.4,3-0.1,2.8-1.5,5c-1.4,2.2,1.7-1,5.4-3.7c8.6-6,9.6,2.8,14.5,0.9
				c2.5-0.9,1.6-2.7,3.5-0.3c1.9,2.4,1.1-0.6,2.1,1.3c1,1.9,5.7,0.7,7,2.2c2.2,2.7,2.2-1.4,3.5-0.2c1.3,1.3,0.3,1.9,3.3,1.1
				c3-0.8-1.9-1.9-0.8-3c1.1-1.1-2.3-1.6-1.6-2.9c2.1-4-5.9-0.5-4.3-4.8c1.4-3.6,2.5,2.4,7.5,0.3c1.3-0.5,5.8,1.6,5.6-1
				c0-0.5,0-0.8,0-1.2H150.2C150.4,317.7,148.6,320.7,152,323.2z"/>
			<path id="XMLID_5693_" class="st3" d="M273.6,316.1c1.8-0.6,2.5-0.9,2.8-1.2h-5.2C271.2,315.9,271.7,316.8,273.6,316.1z"/>
			<path id="XMLID_5694_" class="st3" d="M195.7,361.5c0.2-4.8,1.8-4.5,0.7-6.4c-1.1-1.8,1-1.6,1.9-5.5h-16.5
				c0.3,0.6,0.5,1.3,0.7,3.1C183.3,359.1,182,357.8,195.7,361.5z"/>
			<path id="XMLID_5695_" class="st3" d="M283.8,314.9H278C280.2,315.9,283.6,315.6,283.8,314.9z"/>
			<path id="XMLID_5696_" class="st3" d="M60.5,280.2c0.7,0.3,1.5,0.9,2.4,1.9c3.3,4,6,5.2,3.8,7.3c-2.2,2.1,2.2,1.1,0.3,3.8
				c6.2,0.5,13.8-0.1,17.6,0.1l-0.7,1.6l8.3,4h241c2.5-3.2,4-0.6,3.3-3.3c-0.3-1.1,2.4-0.4,0.5-3.6c-1.9-3.2,2,3.4,4.3-1.1
				c0.5-1-0.2,3.8,5.6-2.2c2-2.1,1.7,0.7,4.2-4.4c0.6-1.3,4.1-4.8,6.9-3.9c0.4,0.1,0.8,0,1.2-0.2H60.5z"/>
			<path id="XMLID_5711_" class="st3" d="M208.7,210v18.7h175.1c0.1-0.1,0.1-0.1,0.1-0.2c2.5-1.7,5.9-2.7,2.9-0.2
				c-0.2,0.2-0.2,0.2-0.4,0.4h6.2c-0.2-0.2-0.3-0.4-0.7-0.7c-2.5-1.6-1.2-1.6-1.1-3.6c0.9,3,2.1,2.9,2.8,4.3h2.3
				c0-0.1,0.1-0.1,0.1-0.2c2.7-3.8,2.7-1.1,4.3-4c1.6-2.9,0.8,0.8,3.5-1.4c-2.1-1.8-1.6-2.1-2.3-3.2c2,1.8,2.8,2.9,4.1,1
				c1.3-1.9,2-1.9,4-3.8c3.3-3.2-1.4-1.6,1-3.2c0.8-0.5,0.4-1.6,1.9-1.9c1.2-0.2,1.8-1.1,2.6-2H208.7z"/>
			<path id="XMLID_5712_" class="st3" d="M285,314.9c0,0.3,0.6,0.6,2.4,1.2c7.5,2.2,10,2.9,8.3,3.8c-1.7,0.9-0.3,1.9,1.8,0.8
				c2.1-1.1,1.1,1.9,6-1.6c4.9-3.5,3.8,1.3,6.4,1.7c2.5,0.5,0.6,3.5,3.8,5.6c1.8,1.1,0.4,4.2-1,7.2h14.9c-0.1-0.6-0.1-1.2-0.2-1.7
				c-0.2-3.5,0,2.1-0.8-2.9c-0.7-4.5-1.7-11.2-0.7-14.2H285z"/>
			<path id="XMLID_5713_" class="st3" d="M312.3,349.7c0,0.1,0,0.1,0.1,0.2c0.1-0.1,0.2-0.1,0.3-0.2H312.3z"/>
			<path id="XMLID_5714_" class="st3" d="M313.8,350.7c-1.1,1.8,0.1,2.2,0,4.9c-0.2,5.7,2.5,3.2,3.2,5.4c0.6,2.2,4.5,2.7,2.5,3.3
				c-1.9,0.6,0.3,2.9-1.7,1.7c-2.1-1.1-0.6,3.7,2.9,1.9c2.1-1.1,1.7,0.7,2.9-1.3c0.8-1.4,0.6,1.3,2.4-0.8c1.7-2.1-1.1,0.6,1.1-4.4
				c1.9-4.4,3.5-9.3,2.6-11.8h-15.4C314.2,349.9,314,350.2,313.8,350.7z"/>
			<path id="XMLID_5715_" class="st3" d="M410.4,175.2c-2.6,2.2-3.8,5.9-6.2,7.1c-4.3,2.1,0.8,2.2-1.8,2.9c-1.6,0.4,1.7,3.2,0.2,3.2
				c-6.8,0-6.2,2.4-9.8,2.9c-7.5,1-2.7-0.9-12.1,0.3c0.2,1.4,0.7,1.9,0.7,2.4h57.4c0.1-0.1,0.1-0.1,0.1-0.2c2.2-3,1.6-0.6,4.3-5.1
				c2.7-4.4,5.7-2.4,8.4-4.6c2.7-2.2,2.7,3.5,5.7-4c1-2.4,1.1,5.9,2.5,0.6c1.2-4.5,4,0.8,5.6-1.4c-0.2,0.3,5.4-2.1,7.9-4.1H410.4z"
				/>
			<path id="XMLID_5716_" class="st3" d="M385.1,244.7c0.1,0.2,0.4,0.2,0.9,0H385.1z"/>
			<path id="XMLID_5717_" class="st3" d="M208.7,159.2h93.8c3.7-2.1,7.7-3.6,10.9-6.6c3.5-3.2,2.7-4.1,9-3.5
				c-5.5-5.6-10.7-0.4-13.4-3c-2.7-2.5-2.7,0-6.4-1.6c-3.7-1.6-4.6-2.9-6.7-2.9c-1.9,0-2.6-0.5-2.8-1.2H287
				c-0.2,0.1-0.4,0.3-0.6,0.3c-3.1,0-38.7,0-77.7,0V159.2z"/>
			<path id="XMLID_5718_" class="st3" d="M471,153.8c-2.3-0.7,1.5-5.4-6.7-0.5c-5,3.1-2.8-3.8-7.2,2.2c-1.9,2.6-2.9,2.7-4,3.7h17
				c0.5-1.6,1-3,1.2-3.5C471.8,154.2,472.6,154.2,471,153.8z"/>
			<path id="XMLID_5719_" class="st3" d="M381,260.1c-1.4,1.7,1.1-0.6-2.2-0.5c-3.3,0.2-2.2-0.8-1.6-2.4c1,1.8,2.9,0.8,5.1,1.1
				c2.2,0.3,1.9-4.3,1-7.3c-0.6-1.9-0.2-4.8-0.5-6.3h-174v18.6h166.5c-0.8-0.7-1.4-0.9,1.3,0c0.1,0,0.1,0,0.2,0h4.1
				c0.2-0.2,0.3-0.5,0.7-0.8C383.2,260.9,382.4,258.3,381,260.1z"/>
			<path id="XMLID_5720_" class="st3" d="M355.1,175.2h-13.5c-0.1,0.1,0,0.1-0.1,0.2c-1.7,2.7-2.7,1.6-1.4-0.2c0,0,0-0.1,0-0.1h-1.7
				c0,0-0.1,0-0.1,0.1c-2.1,3-2.1,0.9-5.2,7.8c-2,4.3-2.7,4.1-1.7,5.4c0.6,0.8,0.7,3-0.2,5.4h22.2c0.3-0.4,0.6-0.5,0.9-0.2
				c1.1,1.1,1.4-4.6,1.8-7.9c0.3-3.3-0.8-3.8-1.6-1.9c-0.8,1.9-1.6-0.2-2.2,0.3c-0.6,0.5-2.9-0.2-0.6-1.3c2.2-1.1-0.5-1.4,1.4-2.7
				C353.9,179.5,355.3,176.1,355.1,175.2z"/>
			<path id="XMLID_5721_" class="st3" d="M208.7,193.9h108.7c2.8-4.6,3-6.9,5.1-8.3c0.9-0.6,4-6.1,8.2-10.4h-3.3
				c-0.6,0.4-1.1,0.8-2.1,1.7c0.4-0.6,0.9-1.1,1.4-1.7H208.7V193.9z"/>
			<path id="XMLID_5736_" class="st3" d="M333.2,157.7c-2.7-1.4-4.4,0.2-5.1,0c-0.6-0.2,0.3-1.4,2.9-2.1c2.5-0.6,3.7-2.2-1.3-0.8
				c-4.2,1.2-3.7,2.8-6.5,4.3h10.9C334.1,158.8,334.5,158.4,333.2,157.7z"/>
		</g>
	</g>
	<g id="XMLID_1082_">
		<polygon id="XMLID_1470_" class="st4" points="271.1,188.6 283,198.4 275.9,209.2 		"/>
		<polygon id="XMLID_1467_" class="st4" points="246.9,156.5 246.5,141.7 226.4,134.1 225.8,143.6 233.1,159 246.6,159.6 		"/>
		<path id="XMLID_1464_" class="st4" d="M218.9,135.4c0,0,1.8-7.3,6.7-11.1c4.9-3.8,25.1,5.2,25.1,5.2s3.4,10.2,3.5,11.7
			c0.1,1.6-1.8,3.2-1.8,3.2l4.3,16l-7.4-0.8l-1-8l-27-7.7L218.9,135.4z"/>
		<polygon id="XMLID_1461_" class="st5" points="258.8,234.5 313,194.3 313.5,197.3 286.3,243.9 		"/>
		<polygon id="XMLID_1458_" class="st4" points="257.8,231.7 289.2,184.3 313.6,194.1 286.1,241.4 		"/>
		<polygon id="XMLID_1455_" class="st6" points="258.4,231.5 289.4,184.8 313,194.3 285.9,240.9 		"/>
		<rect id="XMLID_1452_" x="193" y="380.2" class="st7" width="95.8" height="11.5"/>
		<path id="XMLID_1449_" class="st4" d="M297.9,212.8c0.8-0.6,5.1,5.6,5.3,5.6c0.2,0-0.8-3-2.1-4.4c-1.3-1.4-3.1-2-3.6-2.3
			c-0.5-0.3-0.7-1.3,0-1.8c0.7-0.5,3.4-0.1,4.6,0.5c1.2,0.6,4.3,4.1,4.3,4.1v-0.8c0,0-2.6-3-3.5-3.5c-0.9-0.5-3.8-1.4-3.8-1.4
			s0-1.5,1.3-1.8c1.3-0.2,3.1,0.2,5.2,1.6c2.1,1.4,3.2,3.1,3.2,3.1l-0.2-1.5c0,0-4.1-3.3-4.4-4.5c-0.3-1.2-0.3-2.9,1.7-2.4
			c2,0.5,6,5.3,6.3,7.3c0.3,2-4.4,8.3-7.5,12s-9.4,6.2-9.4,6.2l4.5-7.8C299.7,220.9,295.6,214.6,297.9,212.8z"/>
		<rect id="XMLID_1446_" x="288.9" y="380.2" class="st8" width="5.1" height="11.5"/>
		
			<rect id="XMLID_1443_" x="187.9" y="380.2" transform="matrix(-1 -1.224647e-16 1.224647e-16 -1 380.9551 771.9467)" class="st8" width="5.1" height="11.5"/>
		<path id="XMLID_1440_" class="st4" d="M194.5,380.4l2.9-17.9c-0.4-0.6-1.9-3.6-2.2-4.9c-0.3-1.4,1.7-3.9,2.2-4.5
			c-0.1-2-0.9-20,1.1-28c1.7-6.8,4-11.8,4.8-13.4c-0.6-0.1-1.4-0.6-1.8-1.9c-0.7-2,3.4-11.2,4.1-12.8c-0.1-0.6-0.7-3.4-1-8.9
			c-0.3-5.3-0.3-8.4-0.3-9.1c-0.5-0.5-1.8-2-2.2-5.7c-0.5-3.7,0.2-8.1,0.3-9.3c-1-0.4-3.8-2-3.6-5.7c0.3-4.2,6.1-15.2,6.8-16.4v-8.2
			c-1.1,0.4-3.6,1.1-5.6,1.1c-0.9,0-1.6-0.1-2.1-0.4c-1.1-0.6-2.1-2-2.7-3.8c-0.7-2.3-1.4-7.1,2.1-13.7c4.1-7.6,7.1-12,8.1-13.3
			c-0.8-0.4-2.4-1.6-3.2-4.3c-0.8-3-1-4.8-1-5.4c-0.5-0.5-2.7-2.5-4.3-5.1c-1.8-3.1-3.4-5.9-1.8-7.4c1-1,1.9-2,2.2-2.4
			c-0.1-0.5-0.4-2.1-0.4-4c0-2.6,1-6.1,1.3-7.1c-1.3-0.7-6.1-3.4-6.9-5.2c-0.8-1.8,0.9-6.5,1.4-7.6c-1-1.2-6-8-5.8-16.6
			c0.3-9.4,9.1-20.2,9.4-20.7l0.1-0.1l0.1,0c0.4-0.2,9.4-4.6,12.8-4.6c0.4,0,0.8,0.1,1,0.2c2.3,1.2,7.3,9,7.4,12
			c0.1,2.5,0,8.1,0,9.6c0.9,0.2,3.5,1,5.6,3.6c2.1,2.7,4.2,7.7,4.8,9.1c0.2-0.1,0.4-0.1,0.7-0.1c0.5,0,1.1,0.2,1.6,0.6
			c0.4,0.3,0.8,0.9,1.4,1.6c1.5,1.9,3.8,4.8,7.3,6.4c1.7,0.8,3.3,1.2,4.8,1.2c1.6,0,2.5-0.5,2.5-0.5l0.1-0.1l0.1,0
			c0.1,0,3.7,0.4,9.4,3.2c4.7,2.3,8,4.9,9.7,7.6c1.3,2,9.5,27.6,9.5,28.5c0,0.8-0.8,3.8-1,4.5c0.4,1.9,5.2,24.4,5.3,26.2
			c0.1,1.7-1.2,7.5-1.4,8.6l3.5,4.4l8.1,62.4l-4.8,4.4l1.2,9l-1.8,3.3l2.9,23.6l-2.2,3.5l2.9,34.8H194.5z"/>
		<path id="XMLID_1437_" class="st9" d="M195,380l2.9-17.6c0,0-2-3.5-2.2-4.9c-0.3-1.4,2.2-4.3,2.2-4.3s-1-19.7,1-28
			c2.1-8.3,5.1-13.8,5.1-13.8s-1.4,0.3-2.1-1.7c-0.7-2,4.2-12.6,4.2-12.6s-0.7-2.7-1-9c-0.4-6.3-0.3-9.2-0.3-9.2s-1.7-1.3-2.2-5.6
			c-0.5-4.3,0.4-9.5,0.4-9.5s-3.9-1.2-3.6-5.5c0.3-4.3,6.8-16.3,6.8-16.3v-8.9c0,0-5.6,2.1-7.9,0.9c-2.3-1.2-5.3-7.8-0.4-17.1
			c4.9-9.2,8.3-13.7,8.3-13.7s-2.5-0.7-3.4-4.2c-0.9-3.5-1-5.5-1-5.5s-2.5-2.2-4.3-5.1c-1.8-2.9-3.2-5.7-1.9-7
			c1.3-1.3,2.3-2.5,2.3-2.5s-0.5-1.8-0.5-4.1c0-3,1.4-7.3,1.4-7.3s-6.1-3.3-7-5.1c-0.8-1.8,1.5-7.6,1.5-7.6s-6.1-7.2-5.9-16.5
			c0.3-9.4,9.3-20.4,9.3-20.4s11.4-5.6,13.5-4.4c2.1,1.2,7.1,8.8,7.2,11.6c0.1,2.8,0,9.9,0,9.9s3.2,0.4,5.7,3.5
			c2.4,3.1,4.9,9.4,4.9,9.4s1-0.7,2.2,0.3c1.2,1,3.9,5.9,8.9,8.1c4.9,2.2,7.6,0.7,7.6,0.7s3.6,0.3,9.3,3.1c5.7,2.8,8.3,5.5,9.6,7.4
			c1.2,2,9.4,27.5,9.4,28.3s-1,4.5-1,4.5s5.2,24.4,5.3,26.3c0.1,1.9-1.5,8.7-1.5,8.7l3.5,4.5l8.1,62l-4.8,4.4l1.2,9.1l-1.8,3.3
			l2.9,23.6l-2.2,3.5l2.9,34.5H195z"/>
		<path id="XMLID_1434_" class="st4" d="M197.3,380l9.2-4.5l6.4-14.3c0,0,3.7-15.2,9-28.1c5.3-12.9,13.2-28.8,17.6-38.8
			c6.7-15.3,8.2-22,11.1-26.7c2.9-4.7,5.7-3.7,5.7-3.7l1.2-10c0,0-11.5,21.1-20.3,29.7c-8.8,8.6-23.8,20.1-26.4,17.8
			c-2.5-2.3,3.3-13.5,3.3-13.5c-2.6,4.5-5.5,8-8.7,10.4c-1.3,2.9-4.1,9.7-3.6,11.3c0.7,2,2.1,1.7,2.1,1.7s-3,5.5-5.1,13.8
			c-2.1,8.3-1,28-1,28s-2.5,2.9-2.2,4.3c0.3,1.4,2.2,4.9,2.2,4.9L195,380H197.3z"/>
		<path id="XMLID_1431_" class="st4" d="M202.9,263.7c0,0-0.9,5.2-0.4,9.5c0.5,4.3,2.2,5.6,2.2,5.6s-0.1,3,0.3,9.2
			c0.2,3.8,0.6,6.3,0.8,7.6c2.5-2.9,7-8.4,7.8-9.9c1-2-3.6-2.6-4.7-5.3c-1-2.7,0.6-10.9,4.8-19.4c4.3-8.5,6.5-10.3,8.4-14.5
			c2-4.2,7.6-24.2,9.4-29.5c1.8-5.3,13.8-32.3,13.8-32.3s-11.3,22.4-13.7,28.6c-2.3,6.3-9.1,15.9-12.9,22.9
			c-3.8,7-10.4,28.6-10.4,28.6s1.1-10,4.2-20.2c3.1-10.2,11.3-21.7,11.3-21.7l-1.4-1l-3.8,7.5c0,0,1.3-5.1,2.6-8.4
			c1.4-3.3,2.9-7.1,2.9-7.1s-2,2.2-5.1,7C216.3,225.5,206,242,206,242s-6.5,12-6.8,16.3C199,262.5,202.9,263.7,202.9,263.7z"/>
		<path id="XMLID_1428_" class="st4" d="M208,210.9c-1.5-0.5-2-7.6-2-7.6s-3.4,4.4-8.3,13.7c-4.9,9.2-2,15.9,0.4,17.1
			c2.3,1.2,7.9-0.9,7.9-0.9s5.7-13.8,11.1-21c5.3-7.2,10.8-7.9,10.8-7.9s3.2-3.8,7.6-8.7c4.4-4.8,6-5.8,6.6-6.9
			c0.7-1.1,6.8-12.7,6.8-12.7s-6.2,9.8-7.5,11.3c-1.3,1.4-9.3,7.9-13.5,11.5c-4.2,3.5-6.3,4.6-8.7,6.9c-0.9,0.8-1.8,2-2.6,3.1
			c3.5-5.3,10-15.1,13.9-20.6c5.5-7.9,16.1-25.7,16.1-25.7s-14.5,20.8-17.1,24.7c-2.6,3.8-17.1,26.1-17.1,26.1s1.1-6.1,7.9-16.9
			c6.8-10.8,17.4-23.6,17.4-23.6s-15.7,18.7-18.6,23c-2.9,4.4-7.9,15.4-7.9,15.4s4-11.5,3.3-11.7C213.9,199.4,209.5,211.3,208,210.9
			z"/>
		<path id="XMLID_1425_" class="st7" d="M220,293.6c0,0,15-20.6,27.3-60.2c9.7-31.1,7.6-62.9,7.6-62.9s0.1,33.5-8.8,61.5
			c-6.3,20.1-12,27.4-12,27.4c1.1-5.6,1.4-10,0.8-16.3C234.9,252.8,231.4,267.4,220,293.6z"/>
		<path id="XMLID_1422_" class="st7" d="M210.2,278.6c0,0,4-1.8,4.8-3.8c0.8-2.1,0-8.3,0-8.3s2.4,6.8,5.7,7.6
			c3.2,0.8,5.6,0.7,5.6,0.7s-4.3,0.5-8,1.6C214.5,277.4,210.2,278.6,210.2,278.6z"/>
		<polygon id="XMLID_1419_" class="st7" points="254.9,317 256.3,264 254.9,264 250.3,334.9 254.5,332.6 		"/>
		<path id="XMLID_1416_" class="st7" d="M263.1,254c0-2.3,5.1-7.4,5.1-7.4l2.9,61.3l-8,4.5V254z"/>
		<path id="XMLID_1413_" class="st7" d="M241.5,268.6c0,0,4.1-6.4,5.9-14.6c1.8-8.2,2.5-21.1,3.7-23.3c1.2-2.2,5.6-0.7,5.6-0.7
			s-3.8-1-4.4,1.1c-0.6,2.1-2.5,18.5-2.2,23.2c0.3,4.7,1.8,7,1.8,7s-2.1-0.1-4.5,1C245,263.5,241.5,268.6,241.5,268.6z"/>
		<path id="XMLID_1410_" class="st4" d="M258,234.7c0,0-0.4-2.1,1.4-5.7c1.8-3.6,5.5-8.4,5.5-8.4l2-0.3c0,0,2.1-2.5,2.2-7.7
			c0.1-5.2-7-12-7-12s1.6,2.7,2.3,5.8c0.8,3.1,1.1,6.9,1.1,6.9s0.6-3.1,0.4-4.4c-0.2-1.2-0.5-2.1-0.5-2.1s1,0.1,1.8,3.5
			c0.8,3.3-1.8,7.8-4.3,11.2c-2.5,3.4-4.6,3.7-5.8,6.4C255.6,231.1,258,234.7,258,234.7z"/>
		<path id="XMLID_1407_" class="st4" d="M272.3,203.2c-0.8-2.9-2.7-5.4-5.2-5.6c-4.9-0.4-5.1,3-5.1,3s3.1-3.1,6.2,0.9
			c3.1,4,2.4,8.1,3.4,14.1c1.1,6.6,2.4,8.3,2.4,8.3s0.7-2.1,1.4-0.8c0.7,1.3,3.3,6.6,3.3,6.6h0.3c0.2-1.3,0.4-2.5,0.3-3.1
			c0,0-2.4-3.4-3.9-8.1C273.7,213.3,273.2,206.1,272.3,203.2z"/>
		<polygon id="XMLID_1404_" class="st4" points="277.8,235 286.5,296.2 283.6,299.1 283.6,300.3 287.5,297.1 278.8,236.4 		"/>
		<path id="XMLID_1401_" class="st9" d="M261.2,216.4c0,0-1.4-39.5-0.8-41.1c0.6-1.7,2.4-2,2.4-2v9c0,0-1.3,0.9-1.3,2.5
			c0.1,1.5,0.4,28.8,0.4,28.8L261.2,216.4z"/>
		<path id="XMLID_1398_" class="st7" d="M266.1,192.7c-0.1-0.6,0.6-8.3,0.6-8.3l0.7,3l0.8-0.7L266.1,192.7z"/>
		<polygon id="XMLID_1395_" class="st7" points="274,200.1 265.6,175.5 274.7,197.2 		"/>
		<path id="XMLID_1392_" class="st7" d="M246.2,192.1c0.2-0.3,4.4-9,6.3-15.8c1.9-6.8,2.6-13.3,2.6-13.3s0.1,6.1-1.8,13.7
			c-1.9,7.6-6.1,15.4-6.1,15.4H246.2z"/>
		<path id="XMLID_1388_" class="st7" d="M264,376.5c0,0,4.7-0.1,6.4-5.1c1.7-5.1,4.6-30,4.6-30s-1.7,25.2-0.7,28.5
			c1.4,4.4,4.9,8.2,4.9,8.2s-1.7-0.9-3.8-3.3c-1.3-1.5-1.9-3.4-1.9-3.4l-0.4,0.9c0,0,0.4,1.5,1.1,2.7c0.9,1.6,2.3,3,2.3,3
			s-1.6-0.7-2.4-1.6c-0.8-0.8-1.8-2.3-1.8-2.3s0,1.7-2.5,2.6c-2.8,1-5,1-5,1L264,376.5z"/>
		<path id="XMLID_1385_" class="st7" d="M279,341.9c0,0-0.5,5.4-1,12.5c-0.5,7.1,3.6,21.7,3.6,21.7s-4.6-9.2-4.9-19.5
			c-0.2-6.6,2.1-16.8,2.1-16.8L279,341.9z"/>
		<path id="XMLID_1382_" class="st7" d="M283.7,339.8c0,0-2.1,14.3-2.1,22.8c0,7.3,4,14.1,4,14.1s-2.8-7.7-2.7-15.3
			c0.1-8.8,1.8-14.5,1.8-14.5L283.7,339.8z"/>
		<path id="XMLID_1379_" class="st4" d="M206,203.3c0,0,3.1-6.6,12-16.7s19.5-16,19.5-16l-6.4,3.4c0,0-0.2-3.9-1.7-3.4
			c-1.5,0.5-4,7.9-4,7.9s-1.6,0.9-2.8,1.8c-1.2,0.9-2.7,2.8-2.7,2.8l0.7-5.1l-2.4,6.3l-0.6-9.6l-1,11.7l-1.2,1.5l-0.4-7.2l-0.8,8.3
			c0,0-2.1,1.8-5.2,6.8c-2.2,3.5-3.7,7.1-3.7,7.1L206,203.3z"/>
		<path id="XMLID_1378_" class="st4" d="M241.8,348.4c0,0-1.2,8.5-3.5,16.7c-2.3,8.3-7.8,14.4-7.8,14.4s6.4-10.1,7.4-15.6
			c1-5.5,3.3-17.1,3.3-17.1L241.8,348.4z"/>
		<path id="XMLID_1377_" class="st4" d="M226.2,371.6c0,0,2-1.2,4.7-5.7c2.7-4.4,3.8-10.4,3.8-10.4l0.7-1.3c0,0-0.5,6.2-2.1,9.9
			C231.8,367.8,226.2,371.6,226.2,371.6z"/>
		<path id="XMLID_1376_" class="st4" d="M221.7,376.7c0,0,1.5-1.6,3.7-3.2c3-2.1,4.4-1.9,4.6-1.8c0.2,0.1-4.2,3.5-4.2,3.5
			s1.7,0.6,3.7-1c1.9-1.5,2.9-6.6,2.9-6.6s0.8,5.2-2,7.9C228.3,377.4,221.7,376.7,221.7,376.7z"/>
		<path id="XMLID_1373_" class="st4" d="M201.6,193.6c0,0,0.1,2,1,5.5c0.6,2.2,1.8,3.3,2.6,3.8c0,0,1.2-13.5,4.4-21.7
			c3.2-8.2,10.4-29.1,10.4-29.1s-4.3,11-9.8,16.4c-5.5,5.4-12.7,10.8-12.7,10.8l0,0c-0.4,0.5-1.2,1.3-2.1,2.2c-1.3,1.3,0.1,4,1.9,7
			C199.1,191.4,201.6,193.6,201.6,193.6z"/>
		<path id="XMLID_1370_" class="st4" d="M197.3,174.8c1.3-1.3,3.2-3,5.5-5c4.6-3.9,6.8-5,11-11.4c6.8-10.4,5.5-16.3,5.5-16.3
			s-0.3,2.5-0.8,4c-0.6,1.4-1.6,2.6-1.6,2.6l0.5-2.3c0,0-0.8,1-1.9,0.6c-1-0.5-0.7-4-0.1-4.5c0.7-0.5,0.5,2.3,0.5,2.3
			s1.1-1.3,1.5-4.4c0.4-3.2-0.3-5-0.3-5l-9.6,13.7c0,0-2.6,3.4-4.7,7.6c-2.1,4.2-4.1,10.7-4.1,10.7S197.3,171.8,197.3,174.8
			C197.3,174.8,197.3,174.8,197.3,174.8z"/>
		<path id="XMLID_1367_" class="st7" d="M190.5,39.2c0,0,2.1-1.2,6.8-1.5c4.5-0.3,6.4,1.1,6.4,1.1l0.5,18.9l-4.6,5.6l-4.5-1.6
			L190.5,39.2z"/>
		<path id="XMLID_1364_" class="st4" d="M197.9,141.7l0-24.3c0,0-0.4-4.6-0.6-5.2c-0.8-2.5-1.9-1.2-2.4-10.7c-0.5-9.6,0-33,0.1-35
			c0.1-2-5-5.5-4.7-8.6c0.3-3.1,2.1-4.2,2.1-4.2s-1.7-1.2-1.6-2.1s1-1.8,1-1.8s-1.5-0.3-1.5-1.9c0-1.6,1.4-2.1,4.5-2.5
			c3.1-0.3,4.8,0.1,5,0.6c0.1,0.5,0.1,2.2-0.5,2.1c-0.6-0.1-5.7,0.6-5.7,0.6l0.1,0.5c0,0,4.3-0.2,6.2,0.1c1.8,0.3,2.5,0.7,2.7,1.2
			c0.3,0.5,0.3,2.5-0.4,2.7c-0.7,0.2-2-0.1-4.8-0.1c-2.8,0.1-3.6,0.3-3.6,0.3s4.3,0.3,5.2,0.6c1.6,0.5,1.5,2.5,0.7,2.5
			c-1,0-4.8-0.2-5.2,0.9c-0.4,1.1,0.5,4.1,3.5,3.7c2.9-0.4,5.6-2.7,5.8-4.7c0.2-2,1.2-4.5,0-5.9c-1.2-1.4-2.7-3.4-2.7-4.1
			c0.1-0.7,0.9-2.3,1.8-2.1c0.8,0.2,1.2,1.9,2,2.6c0.8,0.7,3.2,3.6,3.2,6.7c0,3.1-1.9,10.4-2,15.2c-0.1,4.8,3,18.2,3.4,22.9
			c0.4,4.7,2,23.9,2,23.9s0.5,7.2-4,14.6C202.9,137.5,197.9,141.7,197.9,141.7z"/>
		
			<rect id="XMLID_1361_" x="191.9" y="21.3" transform="matrix(0.998 -6.390461e-02 6.390461e-02 0.998 -1.2167 12.5668)" class="st4" width="7.9" height="8"/>
		<path id="XMLID_1358_" class="st7" d="M194.7,57.1c0,0,1.1,11.8,2,12.7c0.9,1,7.5,0.5,7.5-1.5c0-2,0.1-16.5,0.1-16.5h-1.5
			c0,0,0.1,0.9-0.4,1.3c-0.5,0.5-8.4,0.2-8.4,0.2s4.9,0.1,5.9,0.8c0.6,0.4,1,1.4,0.3,2.1C199.3,57,194.7,57.1,194.7,57.1z"/>
		<path id="XMLID_1355_" class="st7" d="M210.4,35.5c-1,2.7-5.9,3.6-13.5,3.9c-7.6,0.3-12.9-0.2-14-2.8c-2.3-5.5,6.1-8.3,13.7-8.6
			C204.2,27.7,212.3,30.4,210.4,35.5z"/>
		<path id="XMLID_1352_" class="st4" d="M210.4,35.5c0.1,2.2-6,4.2-13.6,4.5c-7.6,0.3-13.8-1.2-13.9-3.4c-0.1-2.2,6-4.2,13.6-4.5
			C204.1,31.8,210.3,33.3,210.4,35.5z"/>
		<path id="XMLID_1349_" class="st10" d="M188.7,17.3c-0.2-2.7,1.5-4.5,1.6-4.8c0.4-2.1-1.9-3.7-1.9-3.7s1.6-0.5,2.9,0.1
			c1.2,0.5,1.5,0.8,1.5,0.8s-0.1-1.4,1.1-2.9c1.2-1.5,2.8-1.6,2.8-1.6c-0.7,1.2-1.2,2.6-1.2,4.2c1-2.2,1.9-3.3,4.1-4.4
			c0,0.5-1,3.6-0.3,4.9c0.9,1.5,2.4,2.9,2.5,5.8c0.2,3.1-0.7,4.4-2.9,5.8c-1.6,1.1-5.4,1.8-7.9,0.5
			C189.4,21.1,188.8,18.8,188.7,17.3z"/>
		<path id="XMLID_1346_" class="st4" d="M215.5,132.6c0,0-1.3,2.5-3.2,4.3c-2.2,2.1-5.2,3.9-5.2,3.9s2.8-3.9,4-6.2
			c1.2-2.3,2-5.6,2-5.6s-4.3,9.3-13.3,15.1c-0.4,0.2-0.5-3.8-0.5-3.8l-1.3-23.1c-0.8,0.4-1.2,0.6-1.2,0.6s-9.1,11.1-9.3,20.4
			c-0.3,9.4,5.9,16.5,5.9,16.5C208.3,152,215.5,132.6,215.5,132.6z"/>
		<path id="XMLID_1343_" class="st4" d="M202.5,139.4c0,0,2.9-2.6,7.6-10.1c4.7-7.5,4.4-10.8,4.4-10.8l0.9,1.5c0,0-0.5,3.9-4.5,9.7
			C207,135.5,202.5,139.4,202.5,139.4z"/>
		<path id="XMLID_1340_" class="st4" d="M219.4,159c0,0-5.2,11.8-8.3,21.9c-1.7,5.6-2.2,9.3-1.9,9.4c0.3,0.1,2.3-7.3,5.1-15.4
			C217,167.1,219.4,159,219.4,159z"/>
		<path id="XMLID_1337_" class="st7" d="M219.4,168.1c0-0.1,2.4-7.3,3.5-12.9c1.1-5.6-0.3-11.3-0.4-12.5c-0.1-1.1,0.6-1.3,0.8-0.3
			c0.2,1,1.9,5.2,0.7,11.6C222.4,162.4,219.4,168.1,219.4,168.1z"/>
		<path id="XMLID_1334_" class="st7" d="M225.5,142.3c0,0,0.9,3.6,0.6,8.3c-0.2,4.7-1.2,12.4-1.2,12.4s1.8-6.5,2.3-10
			c0.6-3.5,0.7-5.2,0.7-5.2S226.9,145,225.5,142.3L225.5,142.3z"/>
		<path id="XMLID_1331_" class="st7" d="M232.4,152c0,0,2.5,3.8,5.6,5.4c3.1,1.6,8.3,2.1,8.3,2.1s-0.7,0.8-2.5,1.6
			c-1.8,0.8-4.4,0.7-4.4,0.7s1,0.5,1.7,0.8c0.7,0.3,2.5,0.2,2.5,0.2s-0.9,1-1.4,1c-0.5,0-2.5,0-4.8-2c-1.9-1.7-3.5-4.4-3.5-4.4
			s2.5,2.8,4,3.4c0.5,0.2,1.8,0.5,2.4-0.3c0.6-0.8-1.1-0.2-3.7-2.6C234.1,155.7,232.4,152,232.4,152z"/>
		<path id="XMLID_1328_" class="st4" d="M234.6,189.5c0.4,0.3,18.6-29,18.6-29s-8.2,10.7-11.3,15
			C238.9,179.8,233.5,188.6,234.6,189.5z"/>
		<polygon id="XMLID_1325_" class="st4" points="236.5,103.8 241.8,84.8 241.8,103.8 		"/>
		<polygon id="XMLID_1322_" class="st4" points="246.2,105.9 263.9,93.4 248.9,107.8 		"/>
		<polygon id="XMLID_1319_" class="st4" points="251.2,111 271.4,107.2 253.2,114.3 		"/>
		<polygon id="XMLID_1316_" class="st4" points="253.2,117.2 272.6,120.5 253.2,121.5 		"/>
		<polygon id="XMLID_1313_" class="st4" points="231.2,105.2 217.6,92.3 226.4,107.8 		"/>
		<polygon id="XMLID_1310_" class="st4" points="223.2,110.2 210.9,109.7 211.1,111.6 221.3,114.4 		"/>
		<path id="XMLID_1307_" class="st4" d="M219.8,123.3c0-0.3-0.7-7.9,3.3-13.8c3.1-4.7,8.4-7.3,14.9-7.3c0.7,0,1.3,0,2,0.1
			c6.1,0.5,10.7,3.1,12.5,7.3c2,4.5,1.3,10.3,1.1,11.1c0.8,3,2.1,8.2,1.8,8.9c-0.2,0.4-0.3,0.7-17.5,0.9c-8.4,0.1-16.9,0.1-16.9,0.1
			l-0.3,0L219.8,123.3z"/>
		<path id="XMLID_1304_" class="st9" d="M220.9,130.1l-0.8-6.8c0,0-0.7-7.7,3.2-13.6c3.9-5.9,10.5-7.5,16.6-7c6,0.5,10.5,3.1,12.2,7
			c2.1,4.7,1.1,11,1.1,11s2.1,8,1.8,8.7C254.7,130,220.9,130.1,220.9,130.1z"/>
		<polygon id="XMLID_1301_" class="st4" points="220.2,116.7 213.5,117 215.5,120 219.5,120.7 		"/>
		<path id="XMLID_1215_" class="st7" d="M220.2,123.2c0,0,1.8-18.1,17.6-18.2c15.8-0.1,15.5,15.6,15.5,15.6l-1.2,1.1
			c0,0-0.6-10.4-13.6-10.3c-13.1,0.2-17.8,15.5-17.8,15.5L220.2,123.2z"/>
		<path id="XMLID_1212_" class="st4" d="M237.4,111.5c0.1-2.2-0.8-5.8-1.5-5.7c-1.2,0.3-0.6,3.5-0.6,5.8L237.4,111.5z"/>
		<path id="XMLID_1209_" class="st4" d="M234.2,111.6c-0.1-2.3-1.2-5.1-2-4.8c-1.2,0.5,0.2,3.2,0.2,5.4L234.2,111.6z"/>
		<path id="XMLID_1206_" class="st4" d="M231.3,112.6c-0.5-2.7-1.6-4.4-2.4-4.1c-1.2,0.5,0.5,2.7,0.8,5L231.3,112.6z"/>
		<path id="XMLID_1203_" class="st4" d="M229.1,114c-1-2.7-2.3-3.8-2.7-3.3c-0.6,0.6,0.7,1.9,1.4,4.3L229.1,114z"/>
		<path id="XMLID_1200_" class="st4" d="M227,115.5c-1-2-2.2-3.2-2.4-2.8c-0.4,0.6,0.8,2,1.5,3.7L227,115.5z"/>
		<path id="XMLID_1197_" class="st4" d="M225.5,117.4c-1-1.8-2.1-2.9-2.4-2.5c-0.4,0.5,0.7,1.8,1.4,3.4L225.5,117.4z"/>
		<path id="XMLID_1194_" class="st4" d="M224.3,119.1c-0.9-1.2-2.1-2.2-2.2-1.9c-0.2,0.4,0.9,1.5,1.6,2.6L224.3,119.1z"/>
		<path id="XMLID_1191_" class="st4" d="M239,111.4c-0.2-2.3,0.4-5.8,1.3-5.6c1.2,0.3,0.5,3.2,0.8,5.4L239,111.4z"/>
		<path id="XMLID_1188_" class="st4" d="M241.9,111.3c0.1-2.7,1-4.5,1.9-4.3c1.2,0.3-0.1,2.4,0,4.8L241.9,111.3z"/>
		<path id="XMLID_1185_" class="st4" d="M244.5,111.8c0.6-2.8,1.8-4.1,2.2-3.7c0.7,0.6-0.4,2-0.8,4.4L244.5,111.8z"/>
		<path id="XMLID_1182_" class="st4" d="M246.9,112.8c0.7-2.1,1.7-3.5,2-3.1c0.4,0.5-0.5,2-1,3.9L246.9,112.8z"/>
		<path id="XMLID_1179_" class="st4" d="M248.7,114.4c0.7-1.7,1.6-2.9,1.8-2.6c0.4,0.4-0.5,1.7-0.9,3.2L248.7,114.4z"/>
		<path id="XMLID_1176_" class="st4" d="M250.3,116.1c0.5-0.9,1.2-1.6,1.3-1.4c0.2,0.3-0.5,1-0.9,1.8L250.3,116.1z"/>
		<path id="XMLID_1172_" class="st4" d="M223.4,120.7c-0.8-1-1.9-1.7-2-1.4c-0.2,0.4,0.8,1.2,1.4,2.1L223.4,120.7z"/>
		<path id="XMLID_1169_" class="st9" d="M223.7,123.4c0,0,1,8.5,4.2,14.2c3,5.2,7.4,6.9,11.8,7c4.3,0.1,7.9-4.5,9.3-8.3
			c1.7-4.7,2.6-12.9,2.6-12.9s-4.7-7.3-11.7-7.8C232.9,115.1,223.7,123.4,223.7,123.4z"/>
		<path id="XMLID_1166_" class="st11" d="M236.3,144.1c0,0,0.4,8.7,0.7,8.8c0.4,0.1,0.7-8.5,0.7-8.5L236.3,144.1z"/>
		<path id="XMLID_1109_" class="st11" d="M238.7,144.5h1.2c0,0,0.4,8.5,0,8.5C239.5,153.1,238.7,144.5,238.7,144.5z"/>
		<g id="XMLID_1096_">
			<g>
				<path id="XMLID_136_" class="st4" d="M248.2,124.8c0,0-0.9-2.1-3.4-2.1c-2.2,0-4.2,2.3-3.8,2.5c0.3,0.2,0.9,1.1,3.3,1.2
					C246.7,126.5,248.2,124.8,248.2,124.8z"/>
				<path id="XMLID_135_" class="st4" d="M229.2,124.8c0,0,0.9-2.1,3.4-2.1c2.2,0,4.2,2.3,3.8,2.5c-0.3,0.2-0.9,1.1-3.3,1.2
					C230.7,126.5,229.2,124.8,229.2,124.8z"/>
				<path id="XMLID_134_" class="st4" d="M242,131.5c-0.2-1-1.3-1.7-1.3-1.7s-0.6-2.5-0.5-4.3c0-1.8,0.1-2.7,0.1-2.7
					s-0.5,0.5-0.6,1.3c-0.1,0.8-0.1,5.2,0,5.8c0.1,0.6,0.4,1.1,0.4,1.7c0.1,0.6-0.9,1.1-1.4,1.1c-0.6,0-1.5-0.5-1.4-1.1
					c0.1-0.6,0.3-1.1,0.4-1.7c0.1-0.6,0.1-5,0-5.8c-0.1-0.8-0.6-1.3-0.6-1.3s0.1,0.9,0.1,2.7c0,1.8-0.5,4.3-0.5,4.3
					s-1.1,0.6-1.3,1.7c-0.2,1.1,0.6,1.6,1.1,1.8c0.5,0.2,0.9-0.2,0.9-0.2l1.4,0.5l1.4-0.5c0,0,0.4,0.4,0.9,0.2
					C241.4,133.1,242.2,132.6,242,131.5z"/>
				<path id="XMLID_133_" class="st4" d="M240.5,134.5c-0.7,0.1-1.5,0.8-1.8,0.8c-0.3,0-1.1-0.7-1.8-0.8c-0.7-0.1-2.8,1.9-2.8,1.9
					s0.1,0.2,0.5,0.2c0.4,0,1.2-0.8,2.3-1c1.1-0.2,1.8,0.5,1.8,0.5s0.7-0.7,1.8-0.5c1.1,0.2,1.9,0.9,2.3,1c0.4,0,0.5-0.2,0.5-0.2
					S241.2,134.4,240.5,134.5z"/>
				<path id="XMLID_132_" class="st4" d="M241.2,137.4c-0.4,0.2-1.6,0.3-2.6,0.3c-0.9,0-2.2,0-2.6-0.3c-0.4-0.2-0.8-0.6-0.8-0.6
					s0.4,0.7,0.6,1c0.3,0.3,2.7,0.5,2.7,0.5s2.5-0.2,2.7-0.5c0.3-0.3,0.6-1,0.6-1S241.7,137.1,241.2,137.4z"/>
			</g>
		</g>
		<path id="XMLID_1093_" class="st4" d="M221.1,125.5c0,0,2.3-0.2,4.4-0.9c2.1-0.7,10.7-3.5,12.2-6.5c1.2-2.6,0.7-6.6,0.7-6.6
			s-3.2-1.6-9.3,2.3C222.6,117.9,221.1,125.5,221.1,125.5z"/>
		<path id="XMLID_1090_" class="st4" d="M251.9,123.4c-1.9,0-10.1-2.8-12.3-6.1c-1.1-1.6-1.2-5.8-1.2-5.8s3.6-1.6,8.9,1.6
			C254,117.2,251.9,123.4,251.9,123.4z"/>
		<g id="XMLID_1087_">
			<path id="XMLID_1089_" class="st4" d="M238.2,355.9c0.1,0.7,0.1,1,0.1,1S238.3,356.5,238.2,355.9z"/>
			<path id="XMLID_1088_" class="st4" d="M283.6,299.1c0,0-26.6,14-26.9,16c-0.3,2,8.9,7.8,8.6,8.5c-0.3,0.7-6.8,8.5-19.1,13
				c-12.2,4.6-13.9,6.9-15.6,8.5s-0.5,3-3.3,5.2c-2.8,2.2-12.4,8.6-12.4,8.6s0.7,0.9,1.4,3.1c0.7,2.1,0.3,7,0.3,7s1.3-6.4,3.1-9.8
				c1.8-3.3,3.1-3.4,3.1-3.4s0.1,3.8,0.5,3.9c0.4,0.2,0.8-5,0.8-5l2-1.8l0.3,4.6c0,0,0.8-1.6,1.3-3.6s0.5-2,0.5-2s1.8-2.3,3.5-4.5
				c1.6-2.2,2.4,0.2,2.4,0.2s0.6-0.1,1.6,0.4c1,0.5,0,4,0,4s1.2-1.4,1.8-0.3c0.4,0.7,0.8,2.9,1,4.2c-0.3-2.7-0.9-9.6,0.9-12.1
				c2.3-3.1,7.8-4.9,7.8-4.9s0.1,14-0.7,20.8c-0.8,6.7-6.4,20.3-6.4,20.3h23.8c0,0,0.7-19.7,2.7-32.2c2-12.5,3.3-21.9,5.9-25.7
				c2.5-3.8,3.4,17.7,3.4,17.7s1-1.9,2-2.8c1-0.9,2.2,0.7,2.2,0.7s-0.1-3.1,1.4-3.8c1.4-0.7,2.4,0.7,2.4,0.7l-1.4-13.6l1.8-2.5
				l1.8-3.3l-1.2-9.1l4.8-4.4L283.6,299.1z"/>
		</g>
		<path id="XMLID_1084_" class="st7" d="M243.8,380c0,0,4.5-12.5,8.3-9.2c4.6,3.9,13.9,6.8,14.1,7.7c0.1,0.9,0,1.6,0,1.6H243.8z"/>
		<path id="XMLID_1083_" class="st4" d="M190.7,40.2c0.8-0.4,2,0.5,1.8,1.3c-0.2,0.8-1,1.8-1,1.8l0.5,2.6c0,0-2.2-0.9-2.5-3.3
			C189.3,40.7,190.7,40.2,190.7,40.2z"/>
	</g>
</g>
</svg>
