<?xml version="1.0" encoding="utf-8"?>
<!-- Generator: Adobe Illustrator 22.0.1, SVG Export Plug-In . SVG Version: 6.00 Build 0)  -->
<svg version="1.1" xmlns="http://www.w3.org/2000/svg" xmlns:xlink="http://www.w3.org/1999/xlink" x="0px" y="0px"
	 viewBox="0 0 616.7 414.7" style="enable-background:new 0 0 616.7 414.7;" xml:space="preserve">
<style type="text/css">
	.st0{fill:#71BF9D;}
	.st1{fill:none;stroke:#E57E55;stroke-width:0.9971;stroke-linecap:round;stroke-linejoin:round;stroke-miterlimit:10;}
	.st2{fill:none;stroke:#E57E55;stroke-width:0.7983;stroke-linecap:round;stroke-linejoin:round;stroke-miterlimit:10;}
	.st3{fill:#FFFFFF;}
	.st4{fill:#FFD25A;}
	.st5{fill:#FFBE57;}
	.st6{fill:none;stroke:#FFFFFF;stroke-width:0.9735;stroke-miterlimit:10;}
	.st7{fill:#764582;}
	.st8{fill:#9D68AA;}
	.st9{fill:#FFFFFF;stroke:#764582;stroke-width:0.9736;stroke-miterlimit:10;}
	.st10{fill-rule:evenodd;clip-rule:evenodd;fill:#764582;}
	.st11{fill-rule:evenodd;clip-rule:evenodd;fill:#FFFFFF;stroke:#764582;stroke-width:1.0244;stroke-miterlimit:10;}
	.st12{fill:none;stroke:#764582;stroke-width:1.265;stroke-miterlimit:10;}
	.st13{fill:#FFFFFF;stroke:#764582;stroke-width:1.0244;stroke-linecap:round;stroke-linejoin:round;stroke-miterlimit:10;}
	.st14{opacity:0.7;fill:#A1ABAD;}
	.st15{fill:#DD4026;}
	.st16{fill:#E2E2E2;}
	.st17{fill:#E71B23;}
	.st18{fill:none;}
	.st19{fill:none;stroke:#EFE9DA;stroke-width:1.1573;stroke-linecap:round;stroke-miterlimit:10;}
	.st20{fill:none;stroke:#EFE9DA;stroke-width:1.1573;stroke-miterlimit:10;}
	.st21{fill:#3C8460;}
	.st22{fill:#FD6141;}
	.st23{opacity:0.2;fill:#764582;}
	.st24{fill:#E4BCE8;}
	.st25{fill:none;stroke:#FFFFFF;stroke-width:0.9734;stroke-miterlimit:10;}
	.st26{fill:#FDEEFF;}
	.st27{fill:#FFCC5A;stroke:#764582;stroke-width:0.9736;stroke-miterlimit:10;}
	.st28{fill-rule:evenodd;clip-rule:evenodd;fill:#9D68AA;}
	.st29{fill:#FFB072;}
	.st30{fill:#3E2344;}
	.st31{fill:#FFDCAE;}
	.st32{fill:#FFFFFF;stroke:#FD6141;stroke-width:1.8544;stroke-linecap:round;stroke-linejoin:round;stroke-miterlimit:10;}
	.st33{fill:#FF8976;}
	.st34{fill:#F99441;}
	.st35{clip-path:url(#SVGID_2_);fill:#FFAEC1;}
	.st36{clip-path:url(#SVGID_2_);fill:#FFB072;}
	.st37{fill:#552F5E;}
	.st38{clip-path:url(#SVGID_4_);fill:#FFAEC1;}
	.st39{clip-path:url(#SVGID_4_);fill:#FFB072;}
	.st40{fill:none;stroke:#FFFFFF;stroke-width:0.4986;stroke-miterlimit:10;}
	.st41{fill-rule:evenodd;clip-rule:evenodd;fill:#FFB072;}
	.st42{fill:#E57E55;}
	.st43{opacity:0.5;fill:#E57E55;}
	.st44{opacity:0.7;fill-rule:evenodd;clip-rule:evenodd;fill:#A1ABAD;}
	.st45{fill:#FF6C61;}
	.st46{fill-rule:evenodd;clip-rule:evenodd;fill:#E71B23;}
	.st47{opacity:0.5;}
	.st48{fill-rule:evenodd;clip-rule:evenodd;fill:#FF6C61;}
	.st49{clip-path:url(#SVGID_6_);fill:#DD4026;}
	.st50{fill:#F7B614;}
	.st51{opacity:0.5;fill:#FFBE57;}
	.st52{clip-path:url(#SVGID_8_);fill:#DD4026;}
	.st53{fill:none;stroke:#FFFFFF;stroke-width:0.4986;stroke-linecap:round;stroke-miterlimit:10;}
	.st54{opacity:0.3;fill:#764582;}
</style>
<g id="OBJECTS">
	<g>
		<path class="st0" d="M529.6,292.6c-1.8-9.5-19.5-11.1-19.5-11.1s10.3-17.2,3-25c-7.3-7.8-24.2,10.5-24.2,10.5s-5.6-11.6-13.8,0
			c0,0-13.8-10.5-25.7-5.1c-8.5,3.9-7.3,14.1-5.8,19.6H209.3c-0.2-0.4-0.4-0.8-0.8-1.2c-7.9-9.5-30.8-4.6-30.8-4.6
			s9.6-23.7-6.2-30.8c-15.8-7.2-34.1,6.8-34.1,6.8c-11-15.4-18.3,0-18.3,0s-22.3-24.3-32-14c-9.7,10.3,4,33.2,4,33.2
			s-23.4,2.1-25.9,14.7c-2.4,12.6,40.6,25.7,40.6,25.7L499,312C499,312,531.4,302.2,529.6,292.6z"/>
		<g>
			<path class="st1" d="M127.3,307.6c-7.1-20-17.8-38.8-31.5-55"/>
			<path class="st1" d="M127.3,308.3c0.5-15.8,2.2-31.6,4.9-47.2"/>
			<path class="st1" d="M123.1,297.3c-10.2-5.1-21.1-8.6-32.4-10.5"/>
			<path class="st1" d="M112.7,275.9c2.1-4.8,3.5-9.8,4.2-15"/>
		</g>
		<g>
			<path class="st2" d="M481.2,309.3c5.7-16,14.3-31,25.2-44"/>
			<path class="st2" d="M481.2,309.9c-0.4-12.7-1.8-25.3-3.9-37.8"/>
			<path class="st2" d="M484.6,301.1c8.2-4,16.9-6.9,25.9-8.4"/>
			<path class="st2" d="M492.9,283.9c-1.6-3.8-2.8-7.9-3.3-12"/>
		</g>
		<g>
			<g>
				<g>
					<path class="st3" d="M107.3,243.3c0.2,0,0.3,0.1,0.5,0.2c0.1,0.1,0.3,0.2,0.4,0.4c0.1,0.2,0,0.5-0.2,0.6c-0.1,0-0.2,0.1-0.3,0
						c-0.2,0-0.3-0.1-0.5-0.2c-0.1-0.1-0.3-0.2-0.4-0.4c-0.1-0.2,0-0.5,0.2-0.6C107.1,243.3,107.2,243.3,107.3,243.3z"/>
				</g>
				<g>
					<path class="st3" d="M108.9,244.6c0.2,0,0.3,0.2,0.5,0.3c0.1,0.1,0.3,0.2,0.3,0.4c0.1,0.2,0,0.5-0.2,0.6c-0.1,0-0.2,0-0.3,0
						c-0.2,0-0.3-0.2-0.5-0.3c-0.1-0.1-0.3-0.2-0.3-0.4c-0.1-0.2,0-0.5,0.2-0.6C108.7,244.6,108.8,244.5,108.9,244.6z"/>
				</g>
				<g>
					<path class="st3" d="M110.5,245.9c0.2,0,0.3,0.2,0.5,0.3c0.1,0.1,0.3,0.3,0.3,0.4c0.1,0.2,0,0.5-0.2,0.6c-0.1,0-0.2,0-0.3,0
						c-0.2-0.1-0.3-0.2-0.5-0.3c-0.1-0.1-0.3-0.3-0.3-0.4c-0.1-0.2,0-0.5,0.2-0.6C110.3,245.9,110.4,245.9,110.5,245.9z"/>
				</g>
				<g>
					<path class="st3" d="M113.2,248.3c0.2,0.1,0.3,0.2,0.5,0.3c0.1,0.1,0.2,0.3,0.3,0.5c0.1,0.2,0,0.5-0.3,0.6c-0.1,0-0.2,0-0.3,0
						c-0.2-0.1-0.3-0.2-0.5-0.3c-0.1-0.1-0.2-0.3-0.3-0.4c-0.1-0.2,0-0.5,0.3-0.6C113,248.3,113.1,248.3,113.2,248.3z"/>
				</g>
				<g>
					<path class="st3" d="M115,250.1c0.1,0,0.2,0.1,0.3,0.2c0.1,0.1,0.1,0.2,0.2,0.3c0,0.3-0.2,0.5-0.5,0.5c0,0-0.1,0-0.1,0
						c-0.1,0-0.2-0.1-0.3-0.2c-0.1-0.1-0.1-0.2-0.2-0.3c0-0.3,0.2-0.5,0.4-0.6C115,250.1,115,250.1,115,250.1z"/>
				</g>
				<g>
					<path class="st3" d="M116.6,251.7c0.1,0,0.2,0.1,0.3,0.2c0.1,0.1,0.1,0.2,0.1,0.3c0,0.3-0.2,0.5-0.5,0.5c0,0-0.1,0-0.1,0
						c-0.1,0-0.2-0.1-0.3-0.2c-0.1-0.1-0.1-0.2-0.1-0.3C116,252,116.2,251.8,116.6,251.7C116.5,251.7,116.5,251.7,116.6,251.7z"/>
				</g>
			</g>
			<g>
				<g>
					<path class="st3" d="M89.4,237.9c1.3-0.9,3-1.2,4.5-1.2c1.6,0,3.1,0.5,4.5,1c1.4,0.6,2.8,1.3,4.1,2.1c1.3,0.8,2.5,1.7,3.7,2.6
						c0.2,0.1,0.2,0.4,0.1,0.5c-0.1,0.2-0.4,0.2-0.5,0.1c-1.2-0.9-2.5-1.7-3.7-2.5c-1.3-0.8-2.6-1.5-3.9-2c-1.4-0.6-2.8-1-4.2-1
						c-1.4,0-2.9,0.2-4.1,0.9c-0.2,0.1-0.4,0-0.5-0.2C89.2,238.3,89.2,238,89.4,237.9z"/>
				</g>
				<g>
					<path class="st3" d="M89,239.1c0,0.2-0.2,0.2-0.2,0.4c-0.1,0.1-0.2,0.2-0.4,0.2c-0.2,0.1-0.5-0.1-0.6-0.3c0-0.1,0-0.2,0-0.2
						c0-0.2,0.1-0.3,0.2-0.4c0.1-0.1,0.3-0.2,0.4-0.2c0.3,0,0.5,0.1,0.5,0.4C89,239,89,239,89,239.1z"/>
				</g>
				<g>
					<path class="st3" d="M87.9,240.3c0,0.2-0.1,0.3-0.1,0.4c-0.1,0.1-0.2,0.2-0.3,0.3c-0.2,0.1-0.5,0.1-0.6-0.2
						c0-0.1-0.1-0.1-0.1-0.2c0-0.2,0.1-0.3,0.1-0.5c0.1-0.1,0.2-0.3,0.4-0.3c0.2-0.1,0.5,0,0.6,0.2
						C87.9,240.2,87.9,240.2,87.9,240.3z"/>
				</g>
				<g>
					<path class="st3" d="M87.1,241.8c-0.1,0.3-0.1,0.6-0.2,0.9l-0.2,0.9c-0.1,0.6-0.3,1.2-0.4,1.7c-0.1,0.2-0.3,0.3-0.5,0.3
						c-0.2,0-0.3-0.2-0.3-0.4c0-0.6,0.1-1.3,0.2-1.9l0.3-0.9c0.1-0.3,0.3-0.6,0.4-0.9c0.1-0.2,0.4-0.2,0.5-0.1
						C87.1,241.4,87.1,241.6,87.1,241.8z"/>
				</g>
				<g>
					<path class="st3" d="M86.1,246.8c0.1,0.1,0.1,0.2,0.1,0.3c0,0.1,0,0.2-0.1,0.3c-0.2,0.2-0.6,0.2-0.8,0l0,0
						c-0.1-0.1-0.1-0.2-0.1-0.3c0-0.1,0-0.2,0.1-0.3C85.5,246.5,85.8,246.5,86.1,246.8L86.1,246.8z"/>
				</g>
				<g>
					<path class="st3" d="M86.1,248.6c0.1,0.1,0.1,0.2,0.1,0.3c0,0.1,0,0.2-0.1,0.3c-0.2,0.2-0.5,0.2-0.8,0l0,0
						c-0.1-0.1-0.1-0.2-0.1-0.3c0-0.1,0-0.2,0.1-0.3C85.5,248.4,85.8,248.4,86.1,248.6L86.1,248.6z"/>
				</g>
			</g>
		</g>
		<g>
			<g>
				<g>
					<path class="st3" d="M512.5,268.1c0,0.2,0,0.4,0,0.6c-0.1,0.2-0.1,0.4-0.2,0.5c-0.2,0.2-0.4,0.2-0.6,0.1
						c-0.1-0.1-0.1-0.2-0.1-0.2c0-0.2,0-0.4,0-0.6c0.1-0.2,0.1-0.4,0.2-0.5c0.2-0.2,0.4-0.2,0.6-0.1
						C512.4,267.9,512.5,268,512.5,268.1z"/>
				</g>
				<g>
					<path class="st3" d="M512,270.3c0,0.2,0,0.4,0,0.6c-0.1,0.2-0.1,0.4-0.3,0.5c-0.2,0.2-0.4,0.2-0.6,0c-0.1-0.1-0.1-0.2-0.1-0.2
						c0-0.2,0-0.4,0.1-0.6c0.1-0.2,0.1-0.4,0.3-0.5c0.2-0.2,0.4-0.2,0.6-0.1C511.9,270.1,512,270.2,512,270.3z"/>
				</g>
				<g>
					<path class="st3" d="M511.4,272.4c0,0.2,0,0.4-0.1,0.6c-0.1,0.2-0.1,0.4-0.3,0.5c-0.2,0.2-0.4,0.2-0.6,0
						c-0.1-0.1-0.1-0.2-0.1-0.3c0-0.2,0-0.4,0.1-0.6c0.1-0.2,0.1-0.4,0.3-0.5c0.2-0.2,0.4-0.2,0.6,0
						C511.3,272.2,511.4,272.3,511.4,272.4z"/>
				</g>
				<g>
					<path class="st3" d="M510.2,276.1c0,0.2,0,0.4-0.1,0.6c-0.1,0.2-0.2,0.4-0.3,0.5c-0.2,0.2-0.5,0.2-0.6,0
						c-0.1-0.1-0.1-0.2-0.1-0.3c0-0.2,0-0.4,0.1-0.6c0.1-0.2,0.1-0.4,0.3-0.5c0.2-0.2,0.5-0.2,0.6,0
						C510.1,275.9,510.1,276,510.2,276.1z"/>
				</g>
				<g>
					<path class="st3" d="M509.2,278.7c0,0.1,0,0.3,0,0.4c-0.1,0.1-0.1,0.2-0.2,0.3c-0.2,0.1-0.6,0.1-0.7-0.2c0,0,0-0.1,0-0.1
						c0-0.1,0-0.3,0-0.4c0.1-0.1,0.1-0.2,0.2-0.3C508.7,278.3,509,278.3,509.2,278.7C509.1,278.6,509.2,278.7,509.2,278.7z"/>
				</g>
				<g>
					<path class="st3" d="M508.3,280.8c0,0.1,0,0.3,0,0.4c-0.1,0.1-0.1,0.2-0.2,0.3c-0.3,0.1-0.6,0-0.7-0.2c0,0,0-0.1,0-0.1
						c0-0.1,0-0.2,0-0.4c0.1-0.1,0.1-0.2,0.2-0.3C507.8,280.4,508.1,280.5,508.3,280.8C508.2,280.8,508.2,280.8,508.3,280.8z"/>
				</g>
			</g>
			<g>
				<g>
					<path class="st3" d="M501.4,259c1.4-0.8,2.9-1.6,4.5-2c1.6-0.4,3.5-0.6,5,0.4c0.8,0.5,1.4,1.3,1.7,2.1c0.3,0.8,0.4,1.7,0.5,2.5
						c0.1,1.7-0.1,3.3-0.4,4.9c0,0.2-0.3,0.4-0.5,0.3c-0.2,0-0.3-0.2-0.3-0.5c0.2-1.6,0.4-3.2,0.3-4.7c-0.1-1.5-0.6-3.1-1.8-3.8
						c-1.2-0.7-2.8-0.7-4.3-0.3c-1.5,0.4-2.9,1.1-4.3,1.8c-0.2,0.1-0.4,0-0.5-0.1C501.1,259.3,501.2,259.1,501.4,259z"/>
				</g>
				<g>
					<path class="st3" d="M500.8,260.1c-0.1,0.2-0.2,0.3-0.3,0.3c-0.1,0.1-0.3,0.2-0.5,0.2c-0.3,0-0.5-0.2-0.5-0.4
						c0-0.1,0-0.2,0.1-0.2c0.1-0.2,0.2-0.3,0.4-0.4c0.1-0.1,0.3-0.2,0.5-0.2c0.3,0,0.5,0.2,0.5,0.4
						C500.8,260,500.8,260.1,500.8,260.1z"/>
				</g>
				<g>
					<path class="st3" d="M499.3,261.1c-0.1,0.2-0.2,0.3-0.3,0.4c-0.1,0.1-0.3,0.2-0.5,0.2c-0.3,0-0.5-0.1-0.5-0.4
						c0-0.1,0-0.2,0-0.2c0.1-0.2,0.2-0.3,0.3-0.4c0.1-0.1,0.3-0.2,0.5-0.2c0.3,0,0.5,0.2,0.5,0.4C499.3,261,499.3,261.1,499.3,261.1
						z"/>
				</g>
				<g>
					<path class="st3" d="M497.8,262.2c-0.5,0.5-1,0.9-1.5,1.3c-0.5,0.4-1,0.8-1.6,1.2c-0.2,0.1-0.4,0.1-0.6-0.1
						c-0.1-0.1-0.1-0.3,0-0.5c0.4-0.5,0.9-0.9,1.5-1.4c0.5-0.4,1.1-0.8,1.6-1.1c0.2-0.1,0.4,0,0.5,0.1
						C497.9,261.9,497.9,262.1,497.8,262.2z"/>
				</g>
				<g>
					<path class="st3" d="M493.5,265.8c0,0.1-0.1,0.2-0.1,0.3c-0.1,0.1-0.2,0.1-0.3,0.1c-0.3,0-0.5-0.2-0.5-0.6l0,0
						c0-0.1,0.1-0.2,0.1-0.3c0.1-0.1,0.2-0.1,0.3-0.1C493.3,265.2,493.5,265.5,493.5,265.8L493.5,265.8z"/>
				</g>
				<g>
					<path class="st3" d="M492.1,267.1c0,0.1-0.1,0.2-0.1,0.3c-0.1,0.1-0.2,0.1-0.3,0.1c-0.3,0-0.6-0.2-0.5-0.5l0,0
						c0-0.1,0.1-0.2,0.1-0.3c0.1-0.1,0.2-0.1,0.3-0.1C491.8,266.6,492.1,266.8,492.1,267.1L492.1,267.1z"/>
				</g>
			</g>
		</g>
	</g>
	<g>
		<path class="st4" d="M302.3,207c-59.9-0.9-220.1,48.6-239.6,0c-16.1-40.1,44.1-37,47.6-70.2c3.5-33.2-12.2-47.3,12.8-62.7
			c25-15.4,65.7,6,92.6-15.4c26.9-21.3,40.9-36.9,101.5-44.2c60.5-7.4,105.3,60.8,131.3,67.6c25.9,6.8,63-10.4,81.2,10.4
			c18.2,20.9-40.6,67.1-28,86.4c12.6,19.3,43.5,29.7,31.5,56.8C521.3,262.8,360.6,208,302.3,207z"/>
		<g>
			<g>
				<g>
					<path class="st3" d="M63.3,188.5c0-0.3,0.1-0.5,0.2-0.8c0.1-0.2,0.2-0.5,0.4-0.7c0.2-0.2,0.5-0.2,0.6,0
						c0.1,0.1,0.1,0.2,0.1,0.3c0,0.3-0.1,0.5-0.2,0.7c-0.1,0.2-0.2,0.5-0.3,0.7c-0.2,0.2-0.5,0.3-0.6,0.1
						C63.3,188.7,63.3,188.6,63.3,188.5z"/>
				</g>
				<g>
					<path class="st3" d="M64.4,185.8c0-0.3,0.1-0.5,0.3-0.7c0.1-0.2,0.2-0.4,0.5-0.6c0.2-0.2,0.5-0.2,0.6,0.1c0,0.1,0.1,0.2,0,0.3
						c-0.1,0.3-0.1,0.5-0.3,0.7c-0.1,0.2-0.3,0.4-0.4,0.6c-0.2,0.2-0.5,0.2-0.6,0C64.4,186,64.4,185.9,64.4,185.8z"/>
				</g>
				<g>
					<path class="st3" d="M65.8,183.3c0.1-0.3,0.2-0.5,0.3-0.7c0.2-0.2,0.3-0.4,0.5-0.6c0.3-0.2,0.5-0.1,0.6,0.1c0,0.1,0,0.2,0,0.3
						c-0.1,0.3-0.2,0.5-0.3,0.7c-0.1,0.2-0.3,0.4-0.5,0.6c-0.2,0.2-0.5,0.1-0.6-0.1C65.8,183.5,65.8,183.4,65.8,183.3z"/>
				</g>
				<g>
					<path class="st3" d="M69,179.2c0.1-0.2,0.3-0.4,0.5-0.6c0.2-0.2,0.4-0.3,0.6-0.5c0.3-0.1,0.6,0,0.6,0.2c0,0.1,0,0.2-0.1,0.3
						c-0.1,0.2-0.3,0.4-0.4,0.6c-0.2,0.2-0.4,0.3-0.6,0.5c-0.3,0.1-0.5,0.1-0.6-0.2C68.9,179.5,68.9,179.4,69,179.2z"/>
				</g>
				<g>
					<path class="st3" d="M71.6,176.7c0.1-0.2,0.2-0.3,0.3-0.4c0.1-0.1,0.3-0.2,0.4-0.2c0.3,0,0.6,0.2,0.5,0.5c0,0,0,0.1,0,0.1
						c-0.1,0.2-0.2,0.3-0.3,0.4c-0.1,0.1-0.2,0.2-0.4,0.2c-0.3,0.1-0.6-0.2-0.5-0.5C71.6,176.8,71.6,176.8,71.6,176.7z"/>
				</g>
				<g>
					<path class="st3" d="M74.1,174.9c0.1-0.2,0.2-0.3,0.3-0.3c0.1-0.1,0.3-0.2,0.4-0.2c0.4,0,0.5,0.3,0.5,0.6c0,0,0,0.1,0,0.1
						c-0.1,0.2-0.2,0.2-0.3,0.3c-0.1,0.1-0.3,0.1-0.4,0.2c-0.3,0-0.6-0.2-0.5-0.5C74.1,175,74.1,174.9,74.1,174.9z"/>
				</g>
			</g>
			<g>
				<g>
					<path class="st3" d="M69.8,213.8c-0.7-0.8-1.3-1.7-2-2.5c-0.6-0.9-1.2-1.8-1.7-2.7c-0.5-1-1-1.9-1.4-2.9l-1.2-3
						c-0.7-2-1.1-4.1-1.3-6.3c-0.1-2.1,0.1-4.3,0.6-6.4c0.1-0.3,0.3-0.5,0.5-0.4c0.2,0.1,0.3,0.3,0.2,0.6c-0.5,2-0.6,4.1-0.5,6.1
						c0.1,2,0.6,4.1,1.3,6l1.1,2.9c0.4,0.9,0.9,1.9,1.4,2.8c0.5,0.9,1.1,1.8,1.6,2.7c0.6,0.8,1.2,1.7,1.9,2.5c0.2,0.2,0.2,0.5,0,0.6
						C70.3,214.1,70,214,69.8,213.8z"/>
				</g>
				<g>
					<path class="st3" d="M71.3,214.4c0.2,0.1,0.3,0.2,0.5,0.4c0.1,0.1,0.3,0.3,0.4,0.5c0.1,0.3,0,0.6-0.3,0.6c-0.1,0-0.2,0-0.3,0
						c-0.2-0.1-0.4-0.2-0.6-0.4c-0.1-0.2-0.3-0.3-0.4-0.5c-0.1-0.3,0-0.6,0.3-0.6C71.1,214.4,71.2,214.4,71.3,214.4z"/>
				</g>
				<g>
					<path class="st3" d="M73,216.1c0.2,0.1,0.4,0.2,0.5,0.3c0.2,0.1,0.3,0.3,0.4,0.5c0.1,0.3,0.1,0.6-0.2,0.6c-0.1,0-0.2,0-0.3,0
						c-0.2-0.1-0.4-0.2-0.6-0.3c-0.2-0.1-0.3-0.3-0.4-0.5c-0.1-0.3,0-0.6,0.2-0.6C72.8,216,72.9,216,73,216.1z"/>
				</g>
				<g>
					<path class="st3" d="M74.9,217.5c0.7,0.4,1.5,0.8,2.2,1.3c0.7,0.4,1.5,0.8,2.2,1.2c0.2,0.1,0.4,0.4,0.2,0.6
						c-0.1,0.1-0.3,0.2-0.5,0.1c-0.8-0.3-1.6-0.7-2.4-1.1c-0.7-0.4-1.5-0.9-2.1-1.5c-0.2-0.2-0.3-0.5-0.1-0.6
						C74.5,217.4,74.7,217.4,74.9,217.5z"/>
				</g>
				<g>
					<path class="st3" d="M81.3,220.8c0.1,0,0.3,0,0.4,0c0.1,0,0.2,0.1,0.3,0.2c0.2,0.3,0.1,0.6-0.2,0.7l0,0c-0.2,0-0.3,0-0.4,0
						c-0.1-0.1-0.2-0.1-0.3-0.2C80.8,221.3,80.9,221,81.3,220.8L81.3,220.8z"/>
				</g>
				<g>
					<path class="st3" d="M83.7,221.5c0.1-0.1,0.3,0,0.4,0c0.1,0,0.2,0.1,0.3,0.2c0.2,0.2,0.2,0.6-0.1,0.8l0,0
						c-0.1,0.1-0.3,0.1-0.4,0c-0.1,0-0.3-0.1-0.4-0.2C83.3,222,83.4,221.6,83.7,221.5L83.7,221.5z"/>
				</g>
			</g>
		</g>
		<path class="st5" d="M304.4,45.6c-28.1,4.6-49.9,17.3-65.5,38.3c-14.5,19.2-11.4,43.8,1,62.9c11.4,18.2,33.2,24.6,54,29.2
			c58.2,13.7,111.2,31,166.2,48.3c23.9,7.3,52,18.2,72.7,1.8c0,0,0,0,0,0c2-1.6,2.9-4.1,2.4-6.4c-3.3-16.1-24-25.8-33.8-40.7
			c-12.6-19.3,46.2-65.5,28-86.4c-18.2-20.9-55.3-3.7-81.2-10.4c-3.1-0.8-6.4-2.5-10-4.8C392.1,67.1,355.5,37.7,304.4,45.6z"/>
		<path class="st6" d="M510.7,238.7c-24.5,0-66.5-9.4-107.2-18.5c-40-8.9-77.8-17.4-101.1-17.8c-0.6,0-1.2,0-1.8,0
			c-19.2,0-47.4,4.6-77.3,9.5c-34.5,5.6-73.6,12-103.9,12c-29.9,0-46.8-6-51.8-18.4c-7.7-19.1,3.6-25.9,19.3-35.3
			c12.6-7.6,26.8-16.1,28.6-32.9c1.3-11.9,0.1-21.5-0.8-29.2c-1.7-14.4-2.5-21.6,11.4-30.2c6-3.7,13.4-5.3,24.9-5.3
			c4.4,0,8.8,0.2,13.5,0.4c4.8,0.2,9.7,0.5,14.6,0.5c12,0,27.3-1.3,40-11.4c2.5-2,4.8-3.9,7.1-5.7c22.2-17.9,38.2-30.9,91.6-37.4
			c2.8-0.3,5.6-0.5,8.5-0.5c33.9,0,62.7,24.6,85.9,44.3C426.1,74.6,437,83.9,447,86.5c4.8,1.3,10.3,1.9,16.9,1.9
			c6.1,0,12.4-0.5,18.4-1c6-0.5,11.8-1,17.2-1c12.8,0,20.5,2.7,26,9c7.5,8.6-4,26.2-14.2,41.7c-11.1,16.9-21.6,32.9-14.2,44.3
			c4.3,6.6,10.3,12,16.2,17.3c12.3,11,22,19.8,15,35.6C527.1,237.1,520.8,238.7,510.7,238.7z"/>
	</g>
	<path class="st7" d="M472.3,288.2H159.5c-2.1,0-3.9-1.7-3.9-3.9V115.1c0-2.1,1.7-3.9,3.9-3.9h312.8c2.1,0,3.9,1.7,3.9,3.9v169.3
		C476.2,286.5,474.4,288.2,472.3,288.2z"/>
	<path class="st8" d="M466.7,281.5H153.9c-2.1,0-3.9-1.7-3.9-3.9V108.4c0-2.1,1.7-3.9,3.9-3.9h312.8c2.1,0,3.9,1.7,3.9,3.9v169.3
		C470.6,279.8,468.8,281.5,466.7,281.5z"/>
	<g>
		<path class="st9" d="M462.8,274.8H146.6c-1.2,0-2.1-1-2.1-2.1V100c0-1.2,1-2.1,2.1-2.1h316.2c1.2,0,2.1,1,2.1,2.1v172.7
			C465,273.9,464,274.8,462.8,274.8z"/>
		<path class="st10" d="M162.3,113h20.5v-1.2h-20.5V113z M157.5,113.6h2.4v-2.4h-2.4V113.6z M162.3,119.7h20.5v-1.2h-20.5V119.7z
			 M157.5,120.3h2.4v-2.4h-2.4V120.3z M162.3,126.3h20.5v-1.2h-20.5V126.3z M157.5,126.9h2.4v-2.4h-2.4V126.9z"/>
		<path class="st11" d="M233.4,225.8h-60.8c-8.3,0-15.1-6.8-15.1-15.1v-58c0-8.3,6.8-15.1,15.1-15.1h60.8c8.3,0,15.1,6.8,15.1,15.1
			v58C248.5,219,241.8,225.8,233.4,225.8z"/>
		<path class="st11" d="M335.7,225.8h-60.8c-8.3,0-15.1-6.8-15.1-15.1v-58c0-8.3,6.8-15.1,15.1-15.1h60.8c8.3,0,15.1,6.8,15.1,15.1
			v58C350.8,219,344,225.8,335.7,225.8z"/>
		<path class="st11" d="M437.9,225.8h-60.8c-8.3,0-15.1-6.8-15.1-15.1v-58c0-8.3,6.8-15.1,15.1-15.1h60.8c8.3,0,15.1,6.8,15.1,15.1
			v58C453,219,446.2,225.8,437.9,225.8z"/>
		<g>
			<g>
				<g>
					<path class="st7" d="M430.7,120.2l-1.5-10.2c0-0.3-0.3-0.5-0.6-0.5l-2.7,0l0-1.3l2.7,0c0.9,0,1.7,0.7,1.8,1.6l0.2,1.1l17.3,0.1
						l-1.8,8L430.7,120.2z M430.8,112.3l1,6.6l13.3-0.9l1.2-5.6L430.8,112.3z"/>
				</g>
				<g>
					<path class="st7" d="M446.4,122.6l-14.9-0.1c-0.3,0-0.6-0.1-0.8-0.4c-0.2-0.2-0.3-0.6-0.2-0.9l0.3-1.8l1.2,0.2l-0.3,1.6
						l14.7,0.1L446.4,122.6z"/>
				</g>
				<path class="st12" d="M435.3,125.1c0,0.9-0.8,1.7-1.7,1.7c-0.9,0-1.7-0.8-1.7-1.7c0-0.9,0.8-1.7,1.7-1.7
					C434.5,123.4,435.3,124.2,435.3,125.1z"/>
				<path class="st12" d="M444.2,125.2c0,0.9-0.8,1.7-1.7,1.7c-0.9,0-1.7-0.8-1.7-1.7c0-0.9,0.8-1.7,1.7-1.7
					C443.4,123.5,444.2,124.3,444.2,125.2z"/>
			</g>
		</g>
		<line class="st13" x1="259.3" y1="231.9" x2="350.8" y2="231.9"/>
	</g>
	<path class="st14" d="M340.6,193.5c0,1.2-14.9,2.3-33.4,2.3s-33.4-1-33.4-2.3c0-1.2,14.9-2.3,33.4-2.3S340.6,192.3,340.6,193.5z"/>
	<path class="st15" d="M280.7,170c0,0,0.7-1.7,6.5,0.5c3.2,1.2,7.3,4.1,15.3,0.6c0,0,2.4,8.1-7.8,7.4
		C284.5,177.8,280.7,170,280.7,170z"/>
	<path class="st16" d="M337.7,183l2.4,0.6c1.3,0.7,1.3,4.3,0.2,5.4c0,0-9.6,5.6-37.6,6.1c-16.1-0.3-26.9-3.1-27.4-4.2
		c-0.5-1.1-0.5-3.5-0.4-5.3l3-3.5L337.7,183z"/>
	<path class="st17" d="M280.7,170c0,0-3.2,3-3.5,5.5c-0.5,3.6-1.1,5.4-0.8,9c0,0,9.1,3.5,24.2,3.7c7.5,0.1,18.2-0.4,26.1-1.8
		c6.7-1.2,13.3-2.8,13.3-2.8c-1.9-6.8-7.8-4.2-16.1-6.9c-5.7-1.8-19.1-12.9-19.1-12.9s-3.1,2.3-3.3,3.5c-0.1,0.8,1.4,2.7,1.4,2.7
		s-0.4,6.4-6.7,6.8C290,177.3,280.7,170,280.7,170z"/>
	<path class="st18" d="M340,183.7c0,0-5,3.4-12.4,4.8c-7.5,1.5-19.8,1.9-27.4,1.6c-8.4-0.3-25.5-4.4-25.5-4.4"/>
	<path class="st19" d="M302.9,170.1c0,0,3.2,0,4.4,0.4c2.7,0.9,10.5,7.2,16.3,7.9"/>
	<path class="st16" d="M312.6,169.8l-2.6,4.2c-0.4,0.5-1.9-0.6-1.6-1.1l2.4-4.4C311.3,167.8,313.1,169.2,312.6,169.8z"/>
	<path class="st16" d="M316.3,172.1l-2.7,4.5c-0.3,0.7-2.1,0-1.7-0.8l2.7-5C315.1,170.1,316.9,171.4,316.3,172.1z"/>
	<path class="st16" d="M320.1,174.3l-2.8,4.5c-0.3,0.6-2-0.2-1.7-0.8l2.7-5C318.9,172.3,320.7,173.6,320.1,174.3z"/>
	<path class="st16" d="M304.7,172.2c0.1-1.2,2-1.1,2,0.1l-0.8,7.5c0,1.1-1.1,1.1-1.1,0L304.7,172.2z"/>
	<path class="st19" d="M297.7,188.3c0,0,0.9-3.3,4.1-4.8c3.6-1.7,12.1,1.5,16.8-1.1c1.4-0.8,5-3.9,5-3.9"/>
	<path class="st19" d="M278,173.5c0,0,5,2.3,7.4,5.2c1.1,1.3,2.5,8.6,2.5,8.6"/>
	<g>
		<path class="st14" d="M235.8,193.5c0,1.2-14.9,2.3-33.4,2.3c-18.4,0-33.4-1-33.4-2.3c0-1.2,14.9-2.3,33.4-2.3
			C220.9,191.3,235.8,192.3,235.8,193.5z"/>
		<g>
			<g>
				<path class="st15" d="M175.9,170c0,0,0.7-1.7,6.5,0.5c3.2,1.2,7.3,4.1,15.3,0.6c0,0,2.4,8.1-7.8,7.4
					C179.7,177.8,175.9,170,175.9,170z"/>
				<path class="st16" d="M232.9,183l2.4,0.6c1.3,0.7,1.3,4.3,0.2,5.4c0,0-9.6,5.6-37.6,6.1c-16.1-0.3-26.9-3.1-27.4-4.2
					c-0.5-1.1-0.5-3.5-0.4-5.3l3-3.5L232.9,183z"/>
				<path class="st4" d="M175.9,170c0,0-3.2,3-3.5,5.5c-0.5,3.6-1.1,5.4-0.8,9c0,0,9.1,3.5,24.2,3.7c7.5,0.1,18.2-0.4,26.1-1.8
					c6.7-1.2,13.3-2.8,13.3-2.8c-1.9-6.8-7.8-4.2-16.1-6.9c-5.7-1.8-19.1-12.9-19.1-12.9s-3.1,2.3-3.3,3.5c-0.1,0.8,1.4,2.7,1.4,2.7
					s-0.4,6.4-6.7,6.8C185.1,177.3,175.9,170,175.9,170z"/>
				<path class="st18" d="M235.2,183.7c0,0-5,3.4-12.4,4.8c-7.5,1.5-19.8,1.9-27.4,1.6c-8.4-0.3-25.5-4.4-25.5-4.4"/>
				<path class="st20" d="M198.1,170.1c0,0,3.2,0,4.4,0.4c2.7,0.9,10.5,7.2,16.3,7.9"/>
				<path class="st16" d="M207.7,169.8l-2.6,4.2c-0.4,0.5-1.9-0.6-1.6-1.1l2.4-4.4C206.5,167.8,208.3,169.2,207.7,169.8z"/>
				<path class="st16" d="M211.5,172.1l-2.7,4.5c-0.3,0.7-2.1,0-1.7-0.8l2.7-5C210.3,170.1,212,171.4,211.5,172.1z"/>
				<path class="st16" d="M215.3,174.3l-2.8,4.5c-0.3,0.6-2-0.2-1.7-0.8l2.7-5C214.1,172.3,215.8,173.6,215.3,174.3z"/>
				<path class="st16" d="M199.8,172.2c0.1-1.2,2-1.1,2,0.1l-0.8,7.5c0,1.1-1.1,1.1-1.1,0L199.8,172.2z"/>
				<path class="st20" d="M192.9,188.3c0,0,0.9-3.3,4.1-4.8c3.6-1.7,12.1,1.5,16.8-1.1c1.4-0.8,5-3.9,5-3.9"/>
				<path class="st20" d="M173.2,173.5c0,0,5,2.3,7.4,5.2c1.1,1.3,2.5,8.6,2.5,8.6"/>
			</g>
		</g>
	</g>
	<g>
		<path class="st14" d="M440.7,193.5c0,1.2-14.9,2.3-33.4,2.3c-18.4,0-33.4-1-33.4-2.3c0-1.2,14.9-2.3,33.4-2.3
			C425.7,191.3,440.7,192.3,440.7,193.5z"/>
		<g>
			<g>
				<path class="st21" d="M380.7,170c0,0,0.7-1.7,6.5,0.5c3.2,1.2,7.3,4.1,15.3,0.6c0,0,2.4,8.1-7.8,7.4
					C384.6,177.8,380.7,170,380.7,170z"/>
				<path class="st16" d="M437.7,183l2.4,0.6c1.3,0.7,1.3,4.3,0.2,5.4c0,0-9.6,5.6-37.6,6.1c-16.1-0.3-26.9-3.1-27.4-4.2
					c-0.5-1.1-0.5-3.5-0.4-5.3l3-3.5L437.7,183z"/>
				<path class="st0" d="M380.7,170c0,0-3.2,3-3.5,5.5c-0.5,3.6-1.1,5.4-0.8,9c0,0,9.1,3.5,24.2,3.7c7.5,0.1,18.2-0.4,26.1-1.8
					c6.7-1.2,13.3-2.8,13.3-2.8c-1.9-6.8-7.8-4.2-16.1-6.9c-5.7-1.8-19.1-12.9-19.1-12.9s-3.1,2.3-3.3,3.5c-0.1,0.8,1.4,2.7,1.4,2.7
					s-0.4,6.4-6.7,6.8C390,177.3,380.7,170,380.7,170z"/>
				<path class="st18" d="M440.1,183.7c0,0-5,3.4-12.4,4.8c-7.5,1.5-19.8,1.9-27.4,1.6c-8.4-0.3-25.5-4.4-25.5-4.4"/>
				<path class="st20" d="M402.9,170.1c0,0,3.2,0,4.4,0.4c2.7,0.9,10.5,7.2,16.3,7.9"/>
				<path class="st16" d="M412.6,169.8l-2.6,4.2c-0.4,0.5-1.9-0.6-1.6-1.1l2.4-4.4C411.4,167.8,413.1,169.2,412.6,169.8z"/>
				<path class="st16" d="M416.4,172.1l-2.7,4.5c-0.3,0.7-2.1,0-1.7-0.8l2.7-5C415.1,170.1,416.9,171.4,416.4,172.1z"/>
				<path class="st16" d="M420.2,174.3l-2.8,4.5c-0.3,0.6-2-0.2-1.7-0.8l2.7-5C418.9,172.3,420.7,173.6,420.2,174.3z"/>
				<path class="st16" d="M404.7,172.2c0.1-1.2,2-1.1,2,0.1l-0.8,7.5c0,1.1-1.1,1.1-1.1,0L404.7,172.2z"/>
				<path class="st20" d="M397.8,188.3c0,0,0.9-3.3,4.1-4.8c3.6-1.7,12.1,1.5,16.8-1.1c1.4-0.8,5-3.9,5-3.9"/>
				<path class="st20" d="M378,173.5c0,0,5,2.3,7.4,5.2c1.1,1.3,2.5,8.6,2.5,8.6"/>
			</g>
		</g>
	</g>
	<g>
		<path class="st7" d="M269.6,153.8v0.1c0,0.5-0.1,0.7-0.4,0.7h-2.9c-0.3,0-0.4-0.2-0.4-0.7v-0.1c0-0.5,0.1-0.7,0.4-0.7h2.9
			C269.5,153.1,269.6,153.3,269.6,153.8z"/>
		<path class="st7" d="M276.3,149.8c0,2.1-1.1,2.5-2.1,2.5c-1,0-2.1-0.4-2.1-2.5c0-2.1,1.1-2.5,2.1-2.5
			C275.2,147.3,276.3,147.7,276.3,149.8z M273.5,149.8c0,0.6,0.1,1.3,0.7,1.3c0.6,0,0.7-0.7,0.7-1.3c0-0.6-0.1-1.2-0.7-1.2
			C273.6,148.6,273.5,149.2,273.5,149.8z M280.3,147.6c0,0,0,0.1-0.1,0.2l-5.1,9.6c-0.1,0.3-0.3,0.4-0.6,0.4h-0.6
			c-0.2,0-0.3-0.1-0.3-0.2c0-0.1,0-0.1,0.1-0.2l5.1-9.6c0.1-0.3,0.3-0.4,0.6-0.4h0.6C280.2,147.4,280.3,147.5,280.3,147.6z
			 M281.8,155.4c0,2.1-1.1,2.5-2.1,2.5c-1,0-2.1-0.4-2.1-2.5c0-2.1,1.1-2.5,2.1-2.5C280.7,152.9,281.8,153.4,281.8,155.4z
			 M279,155.4c0,0.6,0.1,1.3,0.7,1.3c0.6,0,0.7-0.7,0.7-1.3c0-0.6-0.1-1.2-0.7-1.2C279.1,154.2,279,154.8,279,155.4z"/>
	</g>
	<g>
		<g>
			<path class="st22" d="M330.3,202.2v1c1.4,0,3.9,0.6,3.9,1.4c0,0.4-0.5,1.3-0.8,1.3c-0.4,0-1.2-0.9-3.1-0.9v5.7
				c2.2,0.8,4.7,1.7,4.7,5c0,2.8-1.8,4.5-4.7,4.8v1.2c0,0.3-0.1,0.4-0.5,0.4c-0.3,0-0.5-0.1-0.5-0.4v-1.2c-2.8-0.1-4.8-1.1-4.8-1.8
				c0-0.4,0.6-1.3,0.9-1.3c0.3,0,1.6,1.3,4,1.3v-6.3c-2.1-0.8-4.5-1.7-4.5-4.8c0-2.4,1.8-4.1,4.5-4.3v-1c0-0.3,0.1-0.4,0.5-0.4
				C330.2,201.8,330.3,201.9,330.3,202.2z M327,207.6c0,1.4,1,2,2.3,2.6V205C327.9,205.2,327,206.1,327,207.6z M330.3,218.6
				c1.4-0.3,2.4-1.4,2.4-3c0-1.5-1.1-2.3-2.4-2.9V218.6z"/>
		</g>
		<path class="st22" d="M319.3,221.2h-39c-2.2,0-3.9-1.8-3.9-3.9v-0.6c0-2.2,1.8-3.9,3.9-3.9h39c2.2,0,3.9,1.8,3.9,3.9v0.6
			C323.2,219.4,321.5,221.2,319.3,221.2z"/>
	</g>
	<g>
		<path class="st23" d="M604.3,404.6h-592c-2.2,0-3.2-2.8-1.5-4.2l88.7-70.8c1.9-1.5,4.3-2.4,6.8-2.4h403.9c2.5,0,4.9,0.8,6.8,2.4
			l88.7,70.8C607.5,401.9,606.5,404.6,604.3,404.6z"/>
		<g>
			<path class="st24" d="M602,375.7H14.6l91.1-72.8c1.8-1.5,4.2-2.3,6.6-2.3h392c2.4,0,4.8,0.8,6.6,2.3L602,375.7z"/>
			<polygon class="st8" points="543.8,369.2 72.9,369.2 139.2,307.2 477.5,307.2 			"/>
			<polygon class="st3" points="538,369.2 78.6,369.2 143.3,309.8 473.4,309.8 			"/>
			<path class="st8" d="M587.7,395.2H28.9c-7.9,0-14.3-6.4-14.3-14.3v-5.2H602v5.2C602,388.8,595.6,395.2,587.7,395.2z"/>
			<line class="st25" x1="14.6" y1="383.3" x2="602" y2="383.3"/>
			<path class="st7" d="M212,389h-80.4c-2.6,0-4.8-2.1-4.8-4.8v-0.7c0-2.6,2.1-4.8,4.8-4.8H212c2.6,0,4.8,2.1,4.8,4.8v0.7
				C216.8,386.8,214.7,389,212,389z"/>
			<path class="st24" d="M212.6,389h-81.4c-2.3,0-4.2-1.9-4.2-4.2v-0.6c0-2.3,1.9-4.2,4.2-4.2h81.4c2.3,0,4.2,1.9,4.2,4.2v0.6
				C216.8,387.1,214.9,389,212.6,389z"/>
			<g>
				<polygon class="st8" points="500.4,318.5 533.7,348.1 551.6,348.1 551.6,345.7 500.4,316.2 				"/>
				<polygon class="st26" points="500.4,316.2 533.7,345.7 551.6,345.7 514.5,316.2 				"/>
			</g>
			<ellipse class="st3" cx="92.7" cy="330.3" rx="14" ry="6.1"/>
			<path class="st7" d="M102.5,329.8c0,2.1-4.4,3.8-9.8,3.8c-5.4,0-9.8-1.7-9.8-3.8c0-2.1,4.4-3.8,9.8-3.8
				C98.1,326,102.5,327.7,102.5,329.8z"/>
			<path class="st3" d="M93.8,329c0,0.7-1.5,1.3-3.4,1.3c-1.9,0-3.4-0.6-3.4-1.3c0-0.7,1.5-1.3,3.4-1.3
				C92.3,327.6,93.8,328.2,93.8,329z"/>
		</g>
	</g>
	<polygon class="st24" points="519,52.9 523.8,63.1 534.9,64.4 526.7,72.1 528.8,83.1 519,77.7 509.2,83.1 511.4,72.1 503.2,64.4 
		514.3,63.1 	"/>
	<path class="st9" d="M485.7,77.4H162.1c-7.4,0-13.4-6-13.4-13.4v-2c0-7.4,6-13.4,13.4-13.4h323.6c7.4,0,13.4,6,13.4,13.4v2
		C499.1,71.4,493.1,77.4,485.7,77.4z"/>
	<circle class="st9" cx="96.1" cy="63" r="14.4"/>
	<circle class="st9" cx="129.6" cy="63" r="14.4"/>
	<polygon class="st27" points="519,47.9 523.8,58.1 534.9,59.5 526.7,67.1 528.8,78.1 519,72.7 509.2,78.1 511.4,67.1 503.2,59.5 
		514.3,58.1 	"/>
	<polygon class="st7" points="97.9,54.3 88.8,63.3 97.9,72.5 99.6,70.7 92.3,63.3 99.6,56 	"/>
	<polygon class="st7" points="128.3,72.5 137.4,63.5 128.3,54.3 126.6,56 134,63.5 126.6,70.7 	"/>
	<path class="st7" d="M178.3,71.3l-5.8-5.7c0.8-1.2,1.2-2.7,1.2-4.1c0-4.1-3.4-7.5-7.6-7.5c-2,0-3.9,0.8-5.3,2.2
		c-1.4,1.4-2.2,3.3-2.2,5.3c0,4.1,3.4,7.5,7.6,7.5c0,0,0,0,0,0c1.5,0,2.9-0.4,4.2-1.2l5.8,5.7L178.3,71.3z M171.5,61.5
		c0,1.4-0.6,2.7-1.5,3.7c-1,1-2.3,1.5-3.7,1.5c0,0,0,0,0,0c-2.9,0-5.3-2.4-5.3-5.3c0-1.4,0.6-2.7,1.5-3.7c1-1,2.3-1.5,3.7-1.5
		C169.1,56.2,171.5,58.6,171.5,61.5z"/>
	<path class="st28" d="M479.6,63.4l-3.3,3.3c-0.4,0.4-0.4,1,0,1.4c0.4,0.4,1,0.4,1.4,0l3.3-3.3l3.3,3.3c0.4,0.4,1,0.4,1.4,0
		c0.4-0.4,0.4-1,0-1.4l-3.3-3.3l3.3-3.3c0.4-0.4,0.4-1,0-1.4c-0.4-0.4-1-0.4-1.4,0L481,62l-3.3-3.3c-0.4-0.4-1-0.4-1.4,0
		c-0.4,0.4-0.4,1,0,1.4L479.6,63.4z M481,74c-5.8,0-10.5-4.7-10.5-10.6c0-5.9,4.7-10.6,10.5-10.6c5.8,0,10.5,4.7,10.5,10.6
		C491.6,69.2,486.9,74,481,74z"/>
	<g>
		<path class="st17" d="M117.3,129.9c0-10.7-8.7-19.4-19.4-19.4c-10.7,0-19.4,8.7-19.4,19.4c0,0,0,0,0,0c0,4.5-1.3,7.4,19.4,44.7
			C118.7,137.1,117.3,132.2,117.3,129.9z"/>
		<path class="st3" d="M97.8,139c-4.7,0-8.6-3.8-8.6-8.6c0-4.7,3.8-8.6,8.6-8.6c4.7,0,8.6,3.8,8.6,8.6
			C106.4,135.1,102.6,139,97.8,139z"/>
	</g>
	<path class="st29" d="M366.4,215.8"/>
	<g>
		<g>
			<path class="st23" d="M253.9,329.4l-7.9,13.7c-1.6,2.8,0.6,6.1,4,6.1h77.6c3.1,0,5.3-2.8,4.3-5.5l-4.9-13.7
				c-0.6-1.7-2.3-2.9-4.3-2.9h-64.8C256.2,327.2,254.7,328.1,253.9,329.4z"/>
			<g>
				<g>
					<path class="st7" d="M269.8,325.7c0,3.8-3.1,6.9-6.9,6.9s-6.9-3.1-6.9-6.9c0-3.8,3.1-6.9,6.9-6.9S269.8,321.8,269.8,325.7z"/>
					<circle class="st30" cx="262.9" cy="325.7" r="4.1"/>
					<path class="st31" d="M260.2,324.9l2.4-6.2c0.1-0.3,0.4-0.6,0.8-0.6h8.2c0.8,0,1.1,0.9,0.6,1.4l-7.4,8
						c-0.6,0.7-1.6,0.9-2.4,0.6l-0.7-0.2C260.4,327.5,259.7,326.1,260.2,324.9z"/>
					<circle class="st7" cx="262.9" cy="325.7" r="1.6"/>
				</g>
				<g>
					<path class="st7" d="M309.7,325.7c0,3.8,3.1,6.9,6.9,6.9c3.8,0,6.9-3.1,6.9-6.9c0-3.8-3.1-6.9-6.9-6.9
						C312.8,318.8,309.7,321.8,309.7,325.7z"/>
					<path class="st30" d="M312.5,325.7c0,2.3,1.9,4.1,4.1,4.1c2.3,0,4.1-1.9,4.1-4.1c0-2.3-1.9-4.1-4.1-4.1
						C314.3,321.5,312.5,323.4,312.5,325.7z"/>
					<path class="st31" d="M319.3,324.9l-2.4-6.2c-0.1-0.3-0.4-0.6-0.8-0.6h-8.2c-0.8,0-1.1,0.9-0.6,1.4l7.4,8
						c0.6,0.7,1.6,0.9,2.4,0.6l0.7-0.2C319.1,327.5,319.8,326.1,319.3,324.9z"/>
					<circle class="st7" cx="316.6" cy="325.7" r="1.6"/>
				</g>
				<g>
					<path class="st22" d="M244.9,261.6c-0.4,0-0.8-0.2-0.9-0.6c-2.3-5.4-6.2-14.2-6.9-15.3c-1-0.8-8.9-3.6-16-5.9
						c-0.4-0.1-0.7-0.5-0.7-1c0-0.4,0.3-0.8,0.7-1l12.7-4.1c0.2-0.1,0.4-0.1,0.6,0c1.2,0.3,11.9,3.3,14.2,5.4
						c1.8,1.7,7.2,12.9,8.3,15.2c0.2,0.5,0,1.1-0.5,1.4c-0.5,0.2-1.1,0-1.4-0.5c-2.4-5-6.6-13.4-7.8-14.5c-1.4-1.3-8.6-3.6-13-4.9
						l-9.4,3c6.5,2.2,13.3,4.6,14,5.6c0.8,1.1,6.1,13.4,7.2,15.8c0.2,0.5,0,1.1-0.5,1.3C245.2,261.6,245,261.6,244.9,261.6z"/>
				</g>
				<polygon class="st32" points="242.1,256.5 253.6,249.3 342.5,253.6 344.5,259.2 				"/>
				<path class="st22" d="M241.3,256.6l13.4,44.4c0.4,1.3,1.6,2.2,3,2.2l74.4-2.3c1.4,0,2.6-1,2.9-2.3l9.5-39.3L241.3,256.6z"/>
				<path class="st33" d="M261.3,275.2c4.8,10,15.4,12,25.6,11.5c21.7-1.1,40.7-9.6,53.4-27.6c0,0-79.1-2-79.1-2
					c-1.2,0-1.7,7.6-1.8,8.6C259.2,269,259.9,272.2,261.3,275.2z"/>
				<path class="st22" d="M332,325.5c-0.9-3.6-2.8-7.3-4.1-9.1c-0.7-1-1.9-2-4.6-2h-61.6c-1,0-2.7-0.2-3.4-1.2
					c-0.7-1-0.3-2.6,0.2-3.8c1.8-4.7,3.4-7.6,3.5-7.6l-2.4,0.2c-0.1,0.1-1.1,1.9-2.9,6.7c-0.9,2.4-0.9,4.3,0.1,5.7
					c1,1.4,2.7,2.1,5.1,2.1h3.3v1.4c0,0.9,0.7,1.6,1.6,1.6h1.2c0.9,0,1.6-0.7,1.6-1.6v-1.4H310v1.4c0,0.9,0.7,1.6,1.6,1.6h1.2
					c0.9,0,1.6-0.7,1.6-1.6v-1.4h9c1.9,0,2.5,0.6,2.9,1.2c1.3,1.7,3,5.2,3.8,8.4c0.2,0.7,0.1,1.3-0.1,1.6c-0.6,0.7-2,0.8-2.4,0.8
					c-14.3,0.3-45.1,0.1-61.6,0c-4.9,0-8.6,0-10.4,0c-2.5,0-4.4-0.7-5.3-2c-0.8-1.3-0.8-3.1,0.1-5.3c2-4.9,7.8-19.5,7.8-19.5
					l-1.9-0.8c0,0-5.8,14.6-7.8,19.5c-1.5,3.6-0.7,5.9,0.1,7.2c1.3,1.9,3.7,2.9,6.9,2.9c1.2,0,3.2,0,5.8,0v1.3
					c0,0.9,0.7,1.6,1.6,1.6h1.2c0.9,0,1.6-0.7,1.6-1.6v-1c0.1-0.1,0.2-0.2,0.3-0.3c9.4,0.1,23.5,0.1,36.5,0.1c3.5,0,7,0,10.2,0v1.2
					c0,0.9,0.7,1.6,1.6,1.6h1.2c0.9,0,1.6-0.7,1.6-1.6v-1.2c4.1,0,7.7-0.1,10.7-0.1c1,0,2.9-0.3,4-1.6
					C332.1,327.9,332.3,326.8,332,325.5z"/>
				<g>
					<path class="st3" d="M341.6,258.4l-9.2,38c-0.3,1-1.2,1.8-2.3,1.8l-34.7,1.1c2.7-2.9,5.4-5.8,8-8.8c0.2-0.2,0.3-0.5,0.1-0.6
						c-0.1-0.1-0.4-0.1-0.6,0.2c-2.9,3-5.7,5.9-8.5,8.9l0,0c-0.1,0.1-0.2,0.2-0.2,0.3l-30.7,0.9c2.9-3.1,5.7-6.2,8.5-9.3
						c0.2-0.2,0.3-0.5,0.2-0.6c-0.1-0.1-0.4,0-0.6,0.2c-3,3.1-6,6.2-8.9,9.4l0,0c-0.1,0.1-0.2,0.3-0.3,0.5l-2.8,0.1
						c-1.1,0-2.1-0.7-2.4-1.7l-6.1-20.2c1.6-1.7,3.1-3.5,4.7-5.2c0.1-0.1,0.1-0.3,0-0.4c-0.1-0.1-0.3-0.1-0.5,0
						c-1.5,1.5-3,3.1-4.5,4.6l-6.6-21.7l-1,0.3l13,42.9c0.4,1.4,1.8,2.4,3.3,2.4c0,0,0.1,0,0.1,0l70.5-2.2c1.5,0,2.9-1.1,3.2-2.6
						l9.2-38L341.6,258.4z"/>
					<path class="st3" d="M256.6,272.5c0.3-0.2,0.5-0.4,0.7-0.6c0.2-0.2,0.4-0.5,0.6-0.8c0.1-0.1,0.1-0.3,0-0.4
						c-0.1-0.2-0.3-0.2-0.5-0.1c-0.3,0.2-0.5,0.4-0.7,0.6c-0.2,0.2-0.4,0.5-0.6,0.8c-0.1,0.1-0.1,0.3,0,0.4
						C256.2,272.5,256.4,272.6,256.6,272.5z"/>
					<path class="st3" d="M258.5,270.4c0.1,0,0.2-0.1,0.2-0.1c0-0.1,0.1-0.1,0.1-0.3c0,0,0,0,0,0c0-0.3-0.3-0.5-0.5-0.5
						c-0.1,0-0.2,0.1-0.2,0.1c0,0.1-0.1,0.1-0.1,0.3c0,0,0,0,0,0C257.9,270.2,258.2,270.5,258.5,270.4z"/>
					<path class="st3" d="M267,261.3c2.1-2.1,4.1-4.2,6.1-6.4l0,0c0.2-0.2,0.2-0.5,0-0.6c-0.2-0.2-0.5-0.2-0.7,0c-2,2.2-4,4.4-6,6.6
						c-0.1,0.1-0.1,0.3,0,0.4C266.6,261.4,266.8,261.4,267,261.3z"/>
					<path class="st3" d="M265.9,262.5c0.1,0,0.2-0.1,0.2-0.1c0-0.1,0.1-0.1,0.1-0.3c0,0,0,0,0,0c0-0.3-0.3-0.5-0.5-0.5
						c-0.1,0-0.2,0.1-0.2,0.1c0,0.1-0.1,0.1-0.1,0.3c0,0,0,0,0,0C265.4,262.3,265.6,262.5,265.9,262.5z"/>
					<path class="st3" d="M264.8,263.7c0.1,0,0.2-0.1,0.2-0.1c0-0.1,0.1-0.1,0.1-0.3c0,0,0,0,0,0c0-0.3-0.3-0.5-0.5-0.5
						c-0.1,0-0.2,0.1-0.2,0.1c0,0.1-0.1,0.1-0.1,0.3c0,0,0,0,0,0C264.2,263.5,264.5,263.7,264.8,263.7z"/>
					<path class="st3" d="M263.6,264.9c0.1,0,0.2-0.1,0.2-0.1c0-0.1,0.1-0.1,0.1-0.3c0,0,0,0,0,0c0-0.3-0.3-0.5-0.5-0.5
						c-0.1,0-0.2,0.1-0.2,0.1c0,0.1-0.1,0.1-0.1,0.3c0,0,0,0,0,0C263.1,264.7,263.4,264.9,263.6,264.9z"/>
					<path class="st3" d="M259.8,269.1c0.5-0.4,1-0.9,1.5-1.4c0.5-0.5,0.9-1,1.3-1.6c0.1-0.1,0.1-0.3,0-0.4c-0.1-0.2-0.4-0.2-0.5,0
						c-0.5,0.4-1,0.9-1.5,1.4c-0.5,0.5-0.9,1-1.3,1.6c-0.1,0.1-0.1,0.3,0,0.4C259.4,269.2,259.6,269.2,259.8,269.1z"/>
					<path class="st3" d="M272.8,289.5c0.1,0.2,0.4,0.2,0.7,0c0.4-0.4,0.8-0.8,1.2-1.2c0.4-0.4,0.8-0.8,1.1-1.3
						c0.1-0.2,0.2-0.4,0.1-0.5c-0.1-0.2-0.4-0.2-0.7,0c-0.4,0.4-0.8,0.8-1.2,1.2c-0.4,0.4-0.8,0.8-1.1,1.3
						C272.8,289.1,272.7,289.3,272.8,289.5z"/>
					<path class="st3" d="M276.9,285.8c0.2-0.1,0.3-0.2,0.4-0.3c0.1-0.1,0.2-0.2,0.2-0.4c0,0,0,0,0,0c0.1-0.4-0.1-0.6-0.5-0.5
						c-0.2,0.1-0.3,0.2-0.4,0.3c-0.1,0.1-0.2,0.2-0.2,0.4c0,0,0,0,0,0C276.3,285.7,276.5,285.9,276.9,285.8z"/>
					<path class="st3" d="M292.3,269.2c3.7-3.9,7.4-7.8,11.1-11.7l0,0c0.3-0.3,0.4-0.7,0.2-0.9c-0.2-0.2-0.6,0-0.9,0.3
						c-3.6,3.9-7.3,7.9-10.9,11.8c-0.2,0.2-0.3,0.5-0.2,0.6C291.8,269.5,292.1,269.5,292.3,269.2z"/>
					<path class="st3" d="M290.3,271.4c0.2-0.1,0.3-0.2,0.4-0.3c0.1-0.1,0.2-0.2,0.2-0.4c0,0,0,0,0,0c0.1-0.4-0.1-0.6-0.5-0.5
						c-0.2,0.1-0.3,0.2-0.4,0.3c-0.1,0.1-0.2,0.2-0.2,0.4c0,0,0,0,0,0C289.7,271.3,289.9,271.5,290.3,271.4z"/>
					<path class="st3" d="M288.3,273.6c0.2-0.1,0.3-0.2,0.4-0.3c0.1-0.1,0.2-0.2,0.2-0.4c0,0,0,0,0,0c0.1-0.4-0.1-0.6-0.5-0.5
						c-0.2,0.1-0.3,0.2-0.4,0.3c-0.1,0.1-0.2,0.2-0.2,0.4c0,0,0,0,0,0C287.7,273.5,287.9,273.7,288.3,273.6z"/>
					<path class="st3" d="M286.2,275.8c0.2-0.1,0.3-0.2,0.4-0.3c0.1-0.1,0.2-0.2,0.2-0.4c0,0,0,0,0,0c0.1-0.4-0.1-0.6-0.5-0.5
						c-0.2,0.1-0.3,0.2-0.4,0.3c-0.1,0.1-0.2,0.2-0.2,0.4c0,0,0,0,0,0C285.6,275.7,285.9,275.9,286.2,275.8z"/>
					<path class="st3" d="M279.2,283.3c0.9-0.9,1.8-1.8,2.6-2.7c0.8-0.9,1.7-1.8,2.5-2.8c0.2-0.2,0.3-0.5,0.2-0.6
						c-0.1-0.2-0.4-0.1-0.7,0.1c-0.9,0.9-1.8,1.8-2.6,2.7c-0.8,0.9-1.7,1.8-2.5,2.8c-0.2,0.2-0.3,0.5-0.2,0.6
						C278.7,283.6,279,283.5,279.2,283.3z"/>
					<path class="st3" d="M304.8,289.1c0.4-0.3,0.8-0.7,1.2-1.1c0.4-0.4,0.7-0.8,1-1.3c0.1-0.2,0.2-0.4,0.1-0.5
						c-0.1-0.2-0.4-0.2-0.6,0c-0.4,0.3-0.8,0.7-1.2,1.1c-0.4,0.4-0.7,0.8-1,1.3c-0.1,0.2-0.2,0.4-0.1,0.5
						C304.2,289.3,304.5,289.3,304.8,289.1z"/>
					<path class="st3" d="M308,285.5c0.2-0.1,0.3-0.2,0.4-0.3c0.1-0.1,0.2-0.2,0.2-0.4c0,0,0,0,0,0c0.1-0.4-0.2-0.6-0.5-0.5
						c-0.2,0-0.3,0.2-0.4,0.3c-0.1,0.1-0.2,0.2-0.2,0.4c0,0,0,0,0,0C307.4,285.4,307.7,285.7,308,285.5z"/>
					<path class="st3" d="M322.7,269.8c3.5-3.7,7.1-7.4,10.6-11.1l0,0c0.3-0.3,0.4-0.7,0.2-0.9c-0.2-0.2-0.6-0.1-0.9,0.3
						c-3.5,3.7-6.9,7.5-10.4,11.3c-0.2,0.2-0.3,0.5-0.1,0.6C322.2,270.1,322.5,270,322.7,269.8z"/>
					<path class="st3" d="M320.9,271.8c0.2-0.1,0.3-0.2,0.4-0.3c0.1-0.1,0.2-0.2,0.2-0.4c0,0,0,0,0,0c0.1-0.4-0.2-0.6-0.5-0.5
						c-0.2,0.1-0.3,0.2-0.4,0.3c-0.1,0.1-0.2,0.2-0.2,0.4c0,0,0,0,0,0C320.3,271.7,320.5,271.9,320.9,271.8z"/>
					<path class="st3" d="M318.9,273.9c0.2,0,0.3-0.2,0.4-0.3c0.1-0.1,0.2-0.2,0.2-0.4c0,0,0,0,0,0c0.1-0.4-0.2-0.6-0.5-0.5
						c-0.2,0.1-0.3,0.2-0.4,0.3c-0.1,0.1-0.2,0.2-0.2,0.4c0,0,0,0,0,0C318.3,273.8,318.5,274,318.9,273.9z"/>
					<path class="st3" d="M317,276c0.2,0,0.3-0.2,0.4-0.3c0.1-0.1,0.2-0.2,0.2-0.4c0,0,0,0,0,0c0.1-0.4-0.2-0.6-0.5-0.5
						c-0.2,0.1-0.3,0.2-0.4,0.3c-0.1,0.1-0.2,0.2-0.2,0.4c0,0,0,0,0,0C316.3,275.9,316.6,276.1,317,276z"/>
					<path class="st3" d="M310.3,283.2c0.9-0.8,1.7-1.7,2.5-2.6c0.8-0.9,1.6-1.8,2.4-2.7c0.2-0.2,0.2-0.5,0.1-0.6
						c-0.1-0.2-0.4-0.1-0.7,0.1c-0.9,0.8-1.7,1.7-2.5,2.6c-0.8,0.9-1.6,1.8-2.4,2.7c-0.2,0.2-0.2,0.5-0.1,0.6
						C309.7,283.5,310,283.4,310.3,283.2z"/>
				</g>
				<polygon class="st33" points="268.3,328.5 271.9,315.7 310.3,315.7 312.4,328.5 				"/>
				<g>
					<circle class="st7" cx="258.3" cy="341.1" r="8.1"/>
					<path class="st30" d="M263.2,341.1c0,2.7-2.2,4.9-4.9,4.9c-2.7,0-4.9-2.2-4.9-4.9s2.2-4.9,4.9-4.9
						C261,336.3,263.2,338.4,263.2,341.1z"/>
					<path class="st31" d="M255.1,340.3l2.8-7.3c0.1-0.4,0.5-0.7,0.9-0.7h9.7c0.9,0,1.3,1,0.7,1.7l-8.7,9.4
						c-0.7,0.8-1.8,1.1-2.8,0.7l-0.9-0.3C255.3,343.3,254.5,341.7,255.1,340.3z"/>
					<path class="st7" d="M260.2,341.1c0,1-0.8,1.9-1.9,1.9c-1,0-1.9-0.8-1.9-1.9c0-1,0.8-1.9,1.9-1.9
						C259.3,339.3,260.2,340.1,260.2,341.1z"/>
				</g>
				<g>
					<circle class="st7" cx="320.2" cy="341.1" r="8.1"/>
					<path class="st30" d="M315.3,341.1c0,2.7,2.2,4.9,4.9,4.9c2.7,0,4.9-2.2,4.9-4.9s-2.2-4.9-4.9-4.9
						C317.5,336.3,315.3,338.4,315.3,341.1z"/>
					<path class="st31" d="M323.4,340.3l-2.8-7.3c-0.1-0.4-0.5-0.7-0.9-0.7H310c-0.9,0-1.3,1-0.7,1.7l8.7,9.4
						c0.7,0.8,1.8,1.1,2.8,0.7l0.9-0.3C323.1,343.3,323.9,341.7,323.4,340.3z"/>
					<path class="st7" d="M318.3,341.1c0,1,0.8,1.9,1.9,1.9c1,0,1.9-0.8,1.9-1.9c0-1-0.8-1.9-1.9-1.9
						C319.1,339.3,318.3,340.1,318.3,341.1z"/>
				</g>
			</g>
			<g>
				
					<ellipse transform="matrix(0.228 -0.9737 0.9737 0.228 14.7291 529.7884)" class="st4" cx="341.4" cy="255.6" rx="18.3" ry="18.3"/>
				<g>
					<path class="st7" d="M344.8,245.8V262h3.1c0.6,0,0.9,0.4,0.9,1.4v0.5c0,1-0.3,1.4-0.9,1.4h-11.1c-0.6,0-0.9-0.4-0.9-1.4v-0.5
						c0-1,0.3-1.4,0.9-1.4h3.8v-12.9l-3.9,0.6c-0.7,0-0.9-1.6-0.9-2.4c0-0.4,0.3-0.7,0.7-0.8l7.1-1.3
						C344.1,245.2,344.8,245.5,344.8,245.8z"/>
				</g>
			</g>
		</g>
		<g>
			<polygon class="st5" points="268,241.8 268,256.2 302.1,257.1 302.1,240.3 			"/>
			<polygon class="st34" points="302.1,240.3 302.1,257.1 318.4,257.7 318.4,243.3 			"/>
			<polygon class="st4" points="267,239.1 302.9,237.6 302.9,242.3 267,243.8 			"/>
			<polygon class="st5" points="302.9,242.3 319.5,245.2 319.5,240.7 302.9,237.6 			"/>
		</g>
	</g>
	<g>
		<ellipse class="st23" cx="189.3" cy="341" rx="49.3" ry="2.8"/>
	</g>
	<g>
		<g>
			<path class="st29" d="M213.1,308.5c0.8,7.9,7.5,19.5,10,26c0.8,1.9,4.4,0.8,4-1.2c-1.4-6.8-2.3-20.7-3-27.8
				C223.3,297.2,212.3,300.9,213.1,308.5z"/>
			<g>
				<defs>
					<path id="SVGID_1_" d="M223.2,334.4c0,0-0.8,2.2,0.5,5.1c-0.2,0.1-0.1,1.1,0.4,1.3c0.5,0.2,4.2,0.2,4.9-0.4
						c0.2-0.3,0-0.7,0-0.7s0.9,0.3,3.5-0.1c2.6-0.5,4-1.2,5-1.9c0.3-0.2,0.1-0.9-0.3-0.8c0,0-0.2-1.8-1.7-1.7
						c-3.1,0.2-5.3-1.1-6.9-2c-0.8-0.5-1.6-0.9-2.1-0.9C225.3,332.3,223.7,333,223.2,334.4z"/>
				</defs>
				<use xlink:href="#SVGID_1_"  style="overflow:visible;fill:#ED0C37;"/>
				<clipPath id="SVGID_2_">
					<use xlink:href="#SVGID_1_"  style="overflow:visible;"/>
				</clipPath>
				<path class="st35" d="M223.7,339.5c2.2,0.3,5.3-0.1,5.3-0.1s5.9-0.1,8.3-2.5c2.3-2.4,4.3,0.2,4.3,0.2l-9.7,7.7l-6.3-0.5
					l-2.8-2.4C222.8,342,222.5,339.4,223.7,339.5z"/>
				<path class="st36" d="M222.7,334.6c0,0,0.8,1.5,2.6,1.1c1.7-0.4,1.9-1.4,1.5-3.3C226.5,330.5,220.9,331.8,222.7,334.6z"/>
			</g>
		</g>
		<g>
			<path class="st37" d="M187.1,251.8c0,0,11.4,20.5,15.2,28.9c3.8,8.4,8.5,29.1,8.5,29.1s9.4,2,14.3-2.4c0,0-1.6-21.8-4.2-31.6
				c-2.7-9.8-12.8-33.8-12.8-33.8C203.9,233.2,183.1,243.1,187.1,251.8z"/>
			<path class="st30" d="M196.5,267.8c0.1-0.1,0.9-3.7,3.2-7.8c2-3.5,6.9-6.3,7.4-5.8c0.9,0.7-6.3,6.1-7.7,10c0,0,8.1-5.9,8.6-5.1
				C208.5,259.8,199.6,264.6,196.5,267.8z"/>
		</g>
	</g>
	<g>
		<path class="st17" d="M195.3,201.3c1.9,8.7,4.8,20.2,11.2,25.8c6.4,5.6,20.4,8.8,21,8.8c1.6,0.4,3.2-7.8,2-8.8
			c-1.2-0.9-12.2-5.4-14.2-7.3c-3.5-3.4-2-23.8-5.9-28.3C205.5,187.1,193.1,191.2,195.3,201.3z"/>
		<path class="st17" d="M230.3,228.5c0,0,4.9,4.1,5.2,5.2c0.3,1.1,0.2,2.9-0.2,3.4s-3.4,2-4.5,1.2s-2.7-2.6-2.7-2.6l0.5-2
			c0,0-0.4,1.4-3.3-0.5C222.3,231.4,227.5,225.7,230.3,228.5z"/>
	</g>
	<g>
		<g>
			<path class="st29" d="M162.2,302.6c-5.9,5.3-11.3,17.6-14.9,23.5c-1.1,1.7,1.9,4,3.3,2.5c4.7-5.2,15.3-14.2,20.6-18.9
				C177.4,304.1,167.8,297.5,162.2,302.6z"/>
			<g>
				<defs>
					<path id="SVGID_3_" d="M147.9,325.5c0,0-2.2,0.5-4,3.2c-0.2-0.1-0.9,0.5-0.9,1c0.1,0.6,2.1,3.6,3,3.9c0.3,0,0.5-0.4,0.5-0.4
						s0.2,1,2,2.9c1.8,1.9,3.2,2.7,4.3,3.2c0.3,0.2,0.8-0.4,0.5-0.6c0,0,1.4-1.2,0.5-2.4c-1.9-2.5-2-5-2.1-6.9
						c0-0.9-0.1-1.8-0.4-2.2C150.8,326.1,149.3,325.2,147.9,325.5z"/>
				</defs>
				<use xlink:href="#SVGID_3_"  style="overflow:visible;fill:#ED0C37;"/>
				<clipPath id="SVGID_4_">
					<use xlink:href="#SVGID_3_"  style="overflow:visible;"/>
				</clipPath>
				<path class="st38" d="M143.9,328.7c1,2,2.9,4.4,2.9,4.4s3.3,4.9,6.6,5.6c3.3,0.7,2.2,3.7,2.2,3.7l-11.8-3.9l-3-5.6l0.5-3.7
					C141.3,329.2,143.4,327.6,143.9,328.7z"/>
				<path class="st39" d="M147.5,325.2c0,0-0.8,1.5,0.5,2.8c1.3,1.3,2.3,0.8,3.6-0.5C152.9,326.1,148.9,322.1,147.5,325.2z"/>
			</g>
		</g>
		<g>
			<path class="st7" d="M175.1,244.1c0,0,1.6,30-1.8,37.9c-3.4,7.9-12.1,20.7-12.1,20.7s2.4,7.5,11.3,8.5c0,0,13.4-9.4,18.7-23.7
				c5.3-14.3,9.7-30,7.5-41.7C197.4,239.2,176.8,234.5,175.1,244.1z"/>
			<path class="st40" d="M179,243.8c0,0,0.2,25-1,34.7c-1.1,9.4-15.6,26.7-15.6,26.7"/>
		</g>
	</g>
	<g>
		<path class="st3" d="M208.7,192.2c2.3,4.6-1.8,22.1-1.8,29.7c0,6.2,1,16.6,1.9,20.5c0.2,1-0.2,2.1-1.1,2.7
			c-3.6,2.1-8.3,3.2-11.3,3.5c-11.3,1.1-16.8-0.9-19.3-1.9c-1.4-0.5-2.2-1.9-2-3.4c0.6-3.8,2.2-13.2,0.8-21.8
			c-1.8-11.2-4.7-26.5,0.5-31.3c5.3-4.7,15.2-7.7,15.2-7.7S205.9,186.5,208.7,192.2z"/>
		<g>
			<path class="st30" d="M194,177.9c0,0-2.5-0.4-6-4.7c-2.3-2.8-5.5-15.7,4.6-17.6c10.1-1.9,13,4.9,13.5,9.3
				c0.5,4.4-4.5,8.1-6.8,9.7C197,176.1,194,177.9,194,177.9z"/>
			<path class="st29" d="M191.5,172.7c0,0-0.3,3.9-1.5,6.9c-1.1,3-2.4,4-3.8,5.2c-1.4,1.3,5.8,9,12.2,10.9c0,0,4.7-5.7,2.5-8.8
				c-2.1-3.2-3.8-3.4-3.1-7.7c0.7-3.7,1.1-5.7,1.1-5.7L191.5,172.7z"/>
			<g>
				<g>
					<g>
						<path class="st41" d="M191.5,172.7c0,0-0.3,2.9,0.8,4.1c1.2,1.2,3.2,4.2,7.9,3.9c6.3-0.5,3.9-10.5,3.9-10.5s0.7-3.9,0-7
							c-0.7-3.2-6.9-4.8-12-3.3c0,0-1.5,1.4-0.9,7.6c0,0-0.9-1.1-2.4-0.3c-1.1,0.6-1.2,2.1-0.9,3.4
							C188.4,172.2,190.1,173.6,191.5,172.7z"/>
					</g>
					<path class="st42" d="M191,172.1l-0.6-1.5l0.9-0.4c0,0-0.6-2.8-2.2-1.7C188,169.3,189.4,172.7,191,172.1z"/>
				</g>
				<path class="st30" d="M191.7,169.9c0,0-0.6,3.9-0.5,5.6c0.1,1.7,1.8,7.1,9.7,6.6c7.8-0.5,5-9,3.7-9.6c0,0.6-0.2,1.5-0.8,1.9
					c-0.3-0.8-1.2-1.4-2.5-1.1c-1.1-0.6-2.4-0.2-3.8,0.6l-1,0.7c-2.4-0.6-3.7-2.2-4-4.6L191.7,169.9z"/>
				<g>
					<path class="st3" d="M198.4,174.8c0,0,4.1,0,4.2,0.3c0.1,0.3-0.5,0.8-2.1,0.8C198.9,175.9,198.4,174.8,198.4,174.8z"/>
					<path class="st42" d="M198.3,174.7c0.2-0.1,0.2,0,0.3-0.1l0.1,0l0.3,0l0.6,0l1.2,0c0.4,0,0.8,0,1.2,0.1c0.2,0,0.4,0,0.6,0.1
						c0.1,0,0.1,0,0.2,0.1c0.1,0,0.1,0.1,0.1,0.2c0,0.1-0.1,0.2-0.2,0.3c-0.6,0.5-1.5,0.6-2.3,0.6c-0.4,0-0.8-0.1-1.2-0.3
						c-0.2-0.1-0.3-0.2-0.5-0.3c-0.1-0.1-0.1-0.1-0.2-0.2l-0.1-0.1l0-0.1l0,0l0,0C198.3,174.9,198.3,174.7,198.3,174.7z
						 M198.6,174.9c0,0,0-0.2,0-0.1l0,0L198.6,174.9L198.6,174.9l0.1,0.1c0.1,0.1,0.1,0.1,0.2,0.2c0.1,0.1,0.3,0.2,0.4,0.3
						c0.3,0.2,0.7,0.3,1.1,0.3c0.7,0,1.6,0,2.2-0.5c0.4-0.4-0.3-0.3-0.6-0.4c-0.4,0-0.8,0-1.2-0.1l-1.2,0l-0.6,0l-0.3,0L198.6,174.9
						C198.6,174.9,198.4,175,198.6,174.9z"/>
				</g>
				<g>
					<path class="st30" d="M199,169.7c0,0.4-0.5,0.4-1,0.3c-0.6,0-1-0.1-1-0.5c0-0.3,0.5-0.6,1.1-0.5C198.6,169,199,169.3,199,169.7
						z"/>
					<path class="st30" d="M195.3,168c0,0.1,1.6-0.5,2.1-0.5c0.5,0,2.4,0.3,2.6,0.1c0.2-0.2,0.3-0.8,0.3-0.8s-2.6-0.3-3.2-0.1
						C196.6,166.8,195.4,167.5,195.3,168z"/>
				</g>
				<g>
					<path class="st30" d="M204.1,170.1c0,0.3-0.5,0.4-1,0.3c-0.6,0-1-0.1-1-0.5c0-0.4,0.5-0.6,1.1-0.5S204.2,169.7,204.1,170.1z"/>
					<path class="st30" d="M204.8,168.8c0,0.1-0.7-0.8-1-0.9c-0.3-0.1-2,0.1-2.1-0.1c-0.1-0.2-0.1-0.9-0.1-0.9s2.2,0.2,2.6,0.4
						C204.5,167.5,204.8,168.3,204.8,168.8z"/>
				</g>
				<g>
					<path class="st43" d="M201.2,173.1c0,0-1.3,0-1.3-0.4c0-0.4,2.7-0.7,2.9-0.5C203,172.4,201.8,172.9,201.2,173.1z"/>
					<path class="st42" d="M201.5,167.7c0,0-0.4,1.6-0.2,2.2c0.2,0.6,1.4,1.9,1.4,2.2c0,0.3-1.3,1-1.4,1c-0.1,0,2-0.3,1.9-0.9
						c-0.1-0.6-1.6-2.2-1.6-2.6C201.4,169.3,201.5,167.7,201.5,167.7z"/>
				</g>
				<path class="st30" d="M192.2,170.4c0.4-0.3,1.1-2.6,0.4-4.9c-0.6-2,1-3.5,2.1-3.6c1.3-0.1,5.5,1,7.1,0.8
					c3.6-0.4,6.4-1.5,6.4-2.2c0-0.7-2.7,0-2.7,0s4-1,3.7-4.4c0,0-3,0.2-5.7-0.7c-2.7-0.9-9.2-2-12.6,0.6c-2.3,1.7-3.9,7.1-0.9,9.9
					C191.3,167.2,191.4,170.9,192.2,170.4z"/>
			</g>
		</g>
		<path class="st44" d="M201.6,192.3c0,0-1.7,34.2-1.3,37.4c0.4,3.2-0.2,15.6,7.6,18c0,0-3.5-17.8-3-28.6
			C205.3,208.4,201.6,192.3,201.6,192.3z"/>
	</g>
	<path class="st45" d="M199.1,184.5c0,0,3.4,10.7,3.2,24.7c-0.2,14-0.8,42.6,9.6,41.9c0,0-4.4-17.6-4.1-24s3.7-29.9,2.5-33.9
		C208.4,187.4,199.1,184.5,199.1,184.5z"/>
	<g>
		<path class="st17" d="M187.3,184c0,0,7,10.9,9.2,29.4c1.1,8.8-0.1,22.8-1.5,31.7c-1.5,10.3-21.6,10.2-22.9,7.6
			c-1.3-2.7,4.5-19.7,2.7-29.4c-1.8-9.7-2.9-25.5-0.7-30.7C176.2,187.3,187.3,184,187.3,184z"/>
		<path class="st17" d="M177.2,202.6c0,0,3.4,16.5,3,25.2c-0.4,8.7-3.2,26.4-3.2,26.4"/>
		<path class="st17" d="M174.8,193.9c-0.4,1-0.7,2.5-0.9,4.3c1.9,14.4,10,30.5,22.4,36.3c0.4-4.7,0.7-9.6,0.6-14
			c-8.3-8.3-14.7-19.1-19.6-29.7C176.2,191.7,175.2,192.7,174.8,193.9z"/>
	</g>
	<g>
		<path class="st45" d="M223.4,231.4c0,0,6.2,1.4,6.9,2.3s2,3.8,1.9,4.4c-0.2,0.6-3.4,1.9-4.8,1.7c-1.4-0.2-2.9-1-2.9-1
			c0.2-0.7,0.1-1.4-0.6-1.6c-0.8-0.2-1.7,0.2-3.1,0.8C217.7,239.5,219.7,230.2,223.4,231.4z"/>
		<path class="st45" d="M173.8,201.4c1.7,9.2,13.5,23,18.5,27.3c4.4,3.8,26.3,10.2,27.3,10.3c2.2,0.5,5.1-7.6,3.4-8.6
			c-1.7-1-21.2-10-23.3-12.4c-2.1-2.3-9.8-23.2-15.3-27.9C178.7,185.4,171.9,191,173.8,201.4z"/>
	</g>
	<path class="st46" d="M529.4,186.6c9-12.9,18.2-10.1,21.6-4.7c3.4,5.4,0.9,13.5-6.1,20.2c-5.1,5.1-15.2,8.6-23.4,10.6
		c-5.7-6.1-12.2-14.7-13.6-21.8c-2.2-9.5,0.3-17.6,6.1-20.2C519.9,168.1,529.1,170.9,529.4,186.6z"/>
	<g class="st47">
		<path class="st48" d="M551,181.9c-2.9-4.6-10.1-7.4-17.7,0c6.5-5.1,15.8-5.2,16.6,4.1c0.9,9.8-7,16.5-16.1,14.8
			c-11.9-2.2-9-12.2-14.6-17.1c-4.4-3.7-9.7,1.9-9.9,6.5c-0.1,2.1,0.1,4.2,0.5,6.2c2.7,5.7,7.4,11.7,11.7,16.3
			c8.2-1.9,18.3-5.5,23.4-10.6C552,195.5,554.4,187.4,551,181.9z"/>
	</g>
	<ellipse class="st23" cx="419.8" cy="340" rx="49.3" ry="2.8"/>
	<g>
		<g>
			<g>
				<defs>
					<path id="SVGID_5_" d="M428.9,328.9c0,0,2,1.8,2.4,2.3c0.3,0.5,1.7,4.2,1.7,4.2c-0.3,0.5-1.2,1.3-2.1,1.4l-1.7-2.1
						c0,0-0.8,3.7-1.7,4.9c-1,1.5-7,3.2-7.9,2.7c0,0-1.1-2.2,0.8-3.4c3.4-2.2,3.5-6.8,3.5-6.8C423.4,329.5,426.4,327.4,428.9,328.9z
						"/>
				</defs>
				<use xlink:href="#SVGID_5_"  style="overflow:visible;fill:#FD6141;"/>
				<clipPath id="SVGID_6_">
					<use xlink:href="#SVGID_5_"  style="overflow:visible;"/>
				</clipPath>
				<path class="st49" d="M419,342c0.1-0.1,7.6-1.1,8.5-3.3c0.7-1.7,1.2-4.6,1.6-5c0.4-0.3,2.3-2.6,2.3-2.6l3,5.2l-11.3,9.5L419,342
					z"/>
			</g>
			<path class="st50" d="M422.5,337.1l1,0.2c0,0,0.7-1,0.7-1.9l-1-0.3c-0.2-0.1-0.4,0-0.4,0.2l-0.5,1.4
				C422.2,336.8,422.3,337,422.5,337.1z"/>
		</g>
		<path class="st29" d="M415.7,225.6c0-0.4-9.5,41.9-9.2,53.2c0.2,7.1,13.4,39.6,17.4,53.4c0.8,2.6,4.9-0.5,4.5-3.2
			c-1.5-13.2-1.4-20.1-7.3-48.7c-0.9-4.5,15.1-44.4,13.8-53.8C433.8,217.2,420.7,212.1,415.7,225.6z"/>
		<path class="st51" d="M435,226.5c-1.3-9.4-14.3-14.5-19.3-0.9c0-0.3-8.6,37.9-9.1,51.4c4.3-3.2,9.9-1.5,14.8,1
			C423.3,268.2,436.2,235,435,226.5z"/>
	</g>
	<g>
		<g>
			<g>
				<defs>
					<path id="SVGID_7_" d="M442.5,331.7c0,0,1.3,2.4,1.4,3c0.1,0.6,0,4.5,0,4.5c-0.5,0.4-1.6,0.8-2.4,0.6l-0.8-2.6
						c0,0-1.2,2.5-2.5,3.4c-1.5,1-6.8,2.2-7.7,1.8c0,0-1.2-2.4,0.7-3.4c4.9-2.5,5.4-6,5.4-6C437.2,330.2,440.7,329.4,442.5,331.7z"
						/>
				</defs>
				<use xlink:href="#SVGID_7_"  style="overflow:visible;fill:#FD6141;"/>
				<clipPath id="SVGID_8_">
					<use xlink:href="#SVGID_7_"  style="overflow:visible;"/>
				</clipPath>
				<path class="st52" d="M430,342.1c0.1,0,6.2-0.6,7.6-1.8c1.5-1.2,2.7-3.9,3.2-4.1c0.5-0.2,3.1-1.6,3.1-1.6l0.9,5.9l-13.9,4.9
					L430,342.1z"/>
			</g>
			<path class="st50" d="M433.9,337.4l0.9,0.6c0,0,1-0.7,1.3-1.5l-0.8-0.7c-0.1-0.1-0.4-0.1-0.5,0l-0.9,1.1
				C433.7,337,433.7,337.3,433.9,337.4z"/>
		</g>
		<path class="st29" d="M425.1,228.3c-0.1,3.7,0.5,42.9,3.9,53.6c2.1,6.7,6.6,38.8,8.1,49.7c0.5,4,4.9,4,5.2,0.2
			c1.2-14.2,5.8-34,0.6-51.3c-1.3-4.3,4.7-49.1,1-57.6C440,214.4,425.4,214.7,425.1,228.3z"/>
		<path class="st51" d="M442.6,277.6c0.1-11.1,4.5-47.1,1.2-54.7c-3.7-8.5-18.4-8.2-18.7,5.4c-0.1,3.4,0.4,36.9,3.1,50.5
			C432.5,276.4,437.8,276.2,442.6,277.6z"/>
	</g>
	<path class="st17" d="M416.1,221l-0.4,3.9c0,0-6.9,17.5-9.9,45.9c7.4-2,21.2,4.8,41.8,1.9c0,0,8.1-36.3-6-52.5
		C427.5,203.9,416.9,212.4,416.1,221z"/>
	<path class="st15" d="M416.2,224.7c0,0-0.5,5.4,8.9,6.4c9.4,1,18.8-5.8,18.5-7.8C443.3,221.3,416.2,224.7,416.2,224.7z"/>
	<path class="st53" d="M439.4,222c0,0,10.8,17.9,4.1,49.9"/>
	<g>
		<g>
			<path class="st29" d="M377.8,210.7c-0.1,0-4-0.2-4.7-0.1c-0.6,0.2-2.2,0.9-2.7,1.2c-1.1,0.5,0,1.3,0.8,1.2
				c1.2-0.1,1.6-0.3,2.1-0.2c0.3,0,0.5,0.1,0.7,0.2c-0.4,0.4-2.2,1.6-3.6,2.1c-0.8,0.3-1.5,0.5-2.6,0.9c-0.5,0.2-0.4,0.8,0.2,0.9
				c0.4,0.1,1.8,0.1,3-0.4c0.5-0.2,1-0.4,1.4-0.6c0,0-1,0.6-1.5,0.9c-0.7,0.3-1.5,0.5-2.5,0.9c-0.5,0.2-0.4,0.7,0.2,0.8
				c0.2,0,0.4,0,0.8,0c-0.2,0.3-0.1,0.7,0.4,0.7c0.2,0,0.7,0,1.2-0.1c0.1,0.1,0.2,0.3,0.4,0.3c4,0,6.3-2.2,8.5-2.7
				C383.4,213.3,380.4,211.2,377.8,210.7z"/>
			<path class="st37" d="M424.1,182.4c-2.7-1.5-7.3-2-10.9,3.1s-5.2,17.4-9.1,21.5c-2.3,2.5-23.2,3.2-24.6,3.9c-1,0.5-0.4,5.1-0.1,6
				c0.7,1.8,23.2,2.8,29.4,0.3C414.8,214.8,429.9,185.7,424.1,182.4z"/>
		</g>
		<path class="st30" d="M415.3,159.4c0.2-1.9,0.2-5,2.4-7.8c2.3-2.7,11-5.5,15.6-2.3c5.7,3.9,3.8,7.6,10.9,10.4c7,2.8,4.9,6,2.9,9.2
			c-2,3.2-1.3,3.8,2,7.1c3.3,3.4,7.6,11.8,0,16.6c-7.6,4.8-24,1.7-30.6-4.7c-6.6-6.3,1.2-10.5-0.6-14.3c-1.8-3.8-4-2.9-4-7
			C413.9,163.7,415.1,162.3,415.3,159.4z"/>
		<path class="st7" d="M429.5,177.9c0,0-15,2.5-15.5,7.1c-0.2,1.9,2.4,5.8,1.7,7.7c-1,2.9-2.5,4.5,0.3,11.3
			c2.3,5.5-1.7,16.9-1.6,18.2c0.5,5.1,8.5,6,11.8,5.9c4.7-0.1,18.2-3.1,18.2-6.1c0-2.6-6.3-8.1-6.9-12.5c-0.6-4.4,10.8-22,8.6-25.8
			C441.9,176.3,429.5,177.9,429.5,177.9z"/>
		<g>
			<path class="st29" d="M443.9,225.1c-0.1,0-3.9,1-4.4,1.4c-0.5,0.4-1.8,1.6-2.2,1.9c-0.9,0.8,0.4,1.3,1.1,0.9
				c1.1-0.5,1.4-0.8,1.9-0.9c0.3,0,0.5-0.1,0.7,0c-0.3,0.5-1.6,2.2-2.7,3.1c-0.6,0.5-1.2,0.9-2.2,1.6c-0.4,0.3-0.1,0.9,0.4,0.8
				c0.4-0.1,1.7-0.5,2.7-1.3c0.4-0.3,0.8-0.7,1.2-1c0,0-0.8,0.9-1.2,1.3c-0.6,0.5-1.2,0.9-2.1,1.6c-0.4,0.3-0.1,0.8,0.5,0.7
				c0.2,0,0.4-0.1,0.8-0.2c-0.1,0.3,0.1,0.7,0.6,0.6c0.2,0,0.6-0.2,1.1-0.5c0.1,0.1,0.3,0.2,0.5,0.1c2.4-0.5,6.4-3.9,7.3-5.1
				C450,225.8,446.5,224.7,443.9,225.1z"/>
			<path class="st7" d="M440.6,180.1c-2.4,2-4.6,6.1-1.1,11.3c3.5,5.3,13.4,10.8,15.8,15.9c1.4,3-12,16.1-12,17.7
				c0,1.7,2.5,5.7,3.5,6.2c1.7,0.8,20.6-17.4,20.6-24C467.4,200.6,445.8,175.9,440.6,180.1z"/>
		</g>
		<path class="st29" d="M431.8,166.4c0,0,0.3,3.9,1.5,6.9c1.1,3,2.4,4,3.8,5.2c1.4,1.3-5.8,9-12.2,10.9c0,0-4.7-5.7-2.5-8.8
			c2.1-3.2,3.8-3.4,3.1-7.7c-0.7-3.7-1.1-5.7-1.1-5.7L431.8,166.4z"/>
		<g>
			<g>
				<path class="st3" d="M421.9,168.4c0,1.8-0.7,3.3-1.7,3.3s-1.7-1.5-1.7-3.3c0-1.2,0.3-2.3,0.9-2.9c0.2-0.2,0-0.4-0.2-0.2
					c-0.5,0.6-0.9,1.7-0.9,3c0,2,0.8,3.5,1.9,3.5c1.1,0,1.9-1.6,1.9-3.5c0-1-0.2-1.8-0.5-2.5c0,0-0.1,0.1-0.2,0.2
					C421.7,166.7,421.9,167.4,421.9,168.4z"/>
			</g>
			<g>
				<path class="st41" d="M431.8,166.4c0,0-1,7.9-8.5,7.3c-3.7-0.3-5.6-7.9-4.2-9.8c0,0-0.7-3.9,0-7c0.7-3.2,6.9-4.8,12-3.3
					c0,0,1.5,1.4,0.9,7.6c0,0,0.9-1.1,2.4-0.3c1.1,0.6,1.2,2.1,0.9,3.4C434.9,165.9,433.2,167.3,431.8,166.4z"/>
				<path class="st42" d="M432.4,165.8l0.6-1.5l-0.9-0.4c0,0,0.6-2.8,2.2-1.7C435.4,163,433.9,166.3,432.4,165.8z"/>
				<g>
					<path class="st3" d="M434.7,168.4c0,1.8-0.7,3.3-1.7,3.3c-0.9,0-1.7-1.5-1.7-3.3c0-1.2,0.3-2.3,0.9-2.9c0.2-0.2,0-0.4-0.2-0.2
						c-0.5,0.6-0.9,1.7-0.9,3c0,2,0.8,3.5,1.9,3.5c1.1,0,1.9-1.6,1.9-3.5c0-1-0.2-1.8-0.5-2.5c0,0-0.1,0.1-0.2,0.2
						C434.5,166.7,434.7,167.4,434.7,168.4z"/>
				</g>
			</g>
			<g>
				<g>
					<path class="st22" d="M421.4,168.8c0,0,0.5-1.2,4.4-0.8C425.4,170,421.7,171,421.4,168.8z"/>
					<g>
						<path class="st42" d="M421.4,168.8c0,0,2.4,0,4.4-0.8"/>
						<path class="st42" d="M421.4,168.8c1.5-0.2,2.9-0.4,4.4-0.8c-0.7,0.4-1.4,0.6-2.1,0.7C422.9,168.8,422.2,168.9,421.4,168.8z"
							/>
					</g>
				</g>
				<g>
					<path class="st30" d="M419.2,163.8c0,0.3,0.5,0.4,1,0.3c0.6,0,1-0.1,1-0.5c0-0.3-0.5-0.6-1.1-0.5
						C419.6,163.1,419.2,163.4,419.2,163.8z"/>
					<path class="st30" d="M418,162.3c0,0.1,1.3-1.1,1.7-1.1c0.4,0,1.7,0.5,1.8,0.3c0.1-0.2,0.3-0.6,0.3-0.6s-1.9-0.3-2.2-0.2
						C419.1,160.9,418.2,161.9,418,162.3z"/>
				</g>
				<g>
					<path class="st30" d="M424.3,163.3c0,0.3,0.5,0.4,1,0.3c0.6,0,1-0.1,1-0.5c0-0.3-0.5-0.6-1.1-0.5
						C424.7,162.7,424.3,163,424.3,163.3z"/>
					<path class="st30" d="M427.7,161.1c0,0-1.7-0.7-2.2-0.6c-0.4,0.1-1.9,0.8-2,0.7c-0.2-0.1-0.4-0.5-0.4-0.5s2.1-0.7,2.6-0.7
						C426.1,160.1,427.4,160.7,427.7,161.1z"/>
				</g>
				<g>
					<path class="st43" d="M422.1,166.8c0,0,1.3,0,1.3-0.4c0-0.4-2.7-0.7-2.9-0.5C420.3,166.1,421.5,166.6,422.1,166.8z"/>
					<path class="st42" d="M421.9,161.4c0,0,0.4,1.6,0.2,2.2c-0.2,0.6-1.4,1.9-1.4,2.2c0,0.3,1.3,1,1.4,1c0.1,0-2-0.3-1.9-0.9
						c0.1-0.6,1.6-2.2,1.6-2.6C421.9,163,421.9,161.4,421.9,161.4z"/>
				</g>
			</g>
		</g>
		<path class="st30" d="M429.5,154.2c-6.2,0.7-8.9,6.5-13.5,6.5c-2.8-4.9,5.8-17.2,15.9-7.6c4.6,4.4,0.5,7.8,0.5,7.8l-1,3.6
			c0,0,0.1-2.7-0.9-3.7C427.7,157.6,429.5,154.2,429.5,154.2z"/>
	</g>
	<g>
		<path class="st54" d="M389.1,121.4l-63.5-15.6l0,0l-8-2c-3.1-0.8-6.3,1.1-7.1,4.3l-6.3,25.6l0,0l-0.4,1.5l-2.9,11.7
			c-0.8,3.1,1.1,6.3,4.3,7.1l70.4,17.3c3.1,0.8,6.3-1.1,7.1-4.3l0.8-3.4l0,0l2.4-9.8l0,0l3.5-14.2l0,0l3.1-12.5
			C393.1,124.5,391.6,122,389.1,121.4z"/>
		<g>
			<path class="st5" d="M374.5,168.9L304,151.6c-3.1-0.8-5-3.9-4.3-7.1l9.6-38.8c0.8-3.1,3.9-5,7.1-4.3l70.4,17.3
				c3.1,0.8,5,3.9,4.3,7.1l-9.6,38.8C380.8,167.8,377.6,169.7,374.5,168.9z"/>
			<path class="st4" d="M314.2,115.4c-2.4,6.4-1.6,15.2,4.8,18.4c22.9,13.6,47.3,12.4,69.3,3.4l3.1-12.5c0.6-2.5-0.9-5-3.4-5.6
				l-63.5-15.6C319.6,106.1,316.2,110.8,314.2,115.4z"/>
			
				<rect x="300.6" y="141.3" transform="matrix(0.971 0.239 -0.239 0.971 44.8928 -77.6563)" class="st7" width="84.2" height="10.1"/>
			<path class="st7" d="M338.5,117.9l-24.7-6.1c-1.3-0.3-2-1.6-1.7-2.8l0.1-0.3c0.3-1.3,1.6-2,2.8-1.7l24.7,6.1
				c1.3,0.3,2,1.6,1.7,2.8l-0.1,0.3C341,117.4,339.7,118.2,338.5,117.9z"/>
			<path class="st7" d="M360.1,128.4l-48.7-12c-0.6-0.2-1-0.8-0.9-1.4l0-0.2c0.2-0.6,0.8-1,1.4-0.9l48.7,12c0.6,0.2,1,0.8,0.9,1.4
				l0,0.2C361.4,128.2,360.8,128.5,360.1,128.4z"/>
			<g>
				<path class="st3" d="M350.1,137.6l-1.6-0.4c-0.9-0.2-1.4-1.1-1.2-2l0.1-0.2c0.2-0.9,1.1-1.4,2-1.2l1.6,0.4
					c0.9,0.2,1.4,1.1,1.2,2l-0.1,0.2C351.9,137.3,351,137.9,350.1,137.6z"/>
				<path class="st3" d="M356.2,139.1l-1.6-0.4c-0.9-0.2-1.4-1.1-1.2-2l0.1-0.2c0.2-0.9,1.1-1.4,2-1.2l1.6,0.4
					c0.9,0.2,1.4,1.1,1.2,2l-0.1,0.2C358,138.8,357.1,139.4,356.2,139.1z"/>
				<path class="st3" d="M362.3,140.6l-1.6-0.4c-0.9-0.2-1.4-1.1-1.2-2l0.1-0.2c0.2-0.9,1.1-1.4,2-1.2l1.6,0.4
					c0.9,0.2,1.4,1.1,1.2,2l-0.1,0.2C364.1,140.3,363.2,140.9,362.3,140.6z"/>
			</g>
			<g>
				<path class="st22" d="M376.7,122.6c-0.7-1.3-1.9-2.2-3.4-2.6c-2.9-0.7-5.9,1.1-6.6,4c-0.7,2.9,1.1,5.9,4,6.6
					c1.5,0.4,3,0.1,4.3-0.7c-0.7-1.2-0.9-2.6-0.6-4C374.7,124.5,375.6,123.4,376.7,122.6z"/>
				<path class="st22" d="M381,121.9c-1.5-0.4-3-0.1-4.3,0.7c0.7,1.2,0.9,2.6,0.6,4c-0.3,1.4-1.2,2.6-2.4,3.3
					c0.7,1.3,1.9,2.2,3.4,2.6c2.9,0.7,5.9-1.1,6.6-4C385.7,125.6,383.9,122.6,381,121.9z"/>
			</g>
		</g>
	</g>
	<g>
		<path d="M196.2,59c0.5-0.1,1.3-0.2,2-0.2c1.1,0,1.8,0.2,2.3,0.7c0.4,0.4,0.6,0.9,0.6,1.5c0,1.1-0.7,1.8-1.5,2.1v0
			c0.6,0.2,1,0.8,1.2,1.6c0.3,1.1,0.5,1.9,0.6,2.2h-1.1c-0.1-0.2-0.3-0.9-0.5-1.9c-0.2-1.1-0.7-1.5-1.6-1.6h-1V67h-1V59z
			 M197.3,62.7h1.1c1.1,0,1.8-0.6,1.8-1.5c0-1-0.8-1.5-1.9-1.5c-0.5,0-0.9,0-1,0.1V62.7z"/>
		<path d="M203.3,64.3c0,1.4,0.9,2,2,2c0.8,0,1.2-0.1,1.6-0.3l0.2,0.8c-0.4,0.2-1,0.4-1.9,0.4c-1.8,0-2.9-1.2-2.9-2.9
			c0-1.8,1-3.1,2.7-3.1c1.9,0,2.4,1.7,2.4,2.7c0,0.2,0,0.4,0,0.5H203.3z M206.4,63.5c0-0.7-0.3-1.7-1.5-1.7c-1.1,0-1.5,1-1.6,1.7
			H206.4z"/>
		<path d="M210,59.5v1.7h1.5V62H210v3.1c0,0.7,0.2,1.1,0.8,1.1c0.3,0,0.5,0,0.6-0.1l0,0.8c-0.2,0.1-0.5,0.1-0.9,0.1
			c-0.5,0-0.9-0.2-1.1-0.4c-0.3-0.3-0.4-0.8-0.4-1.5V62h-0.9v-0.8h0.9v-1.4L210,59.5z"/>
		<path d="M215.9,67l-0.1-0.7h0c-0.3,0.5-0.9,0.9-1.8,0.9c-1.2,0-1.8-0.8-1.8-1.7c0-1.4,1.2-2.2,3.5-2.2v-0.1c0-0.5-0.1-1.3-1.3-1.3
			c-0.5,0-1.1,0.2-1.5,0.4l-0.2-0.7c0.5-0.3,1.2-0.5,1.9-0.5c1.8,0,2.2,1.2,2.2,2.4v2.2c0,0.5,0,1,0.1,1.4H215.9z M215.8,64
			c-1.2,0-2.5,0.2-2.5,1.3c0,0.7,0.5,1,1,1c0.8,0,1.2-0.5,1.4-1c0-0.1,0.1-0.2,0.1-0.3V64z"/>
		<path d="M219.7,59.6c0,0.4-0.3,0.6-0.7,0.6c-0.4,0-0.6-0.3-0.6-0.6c0-0.4,0.3-0.7,0.7-0.7C219.4,58.9,219.7,59.2,219.7,59.6z
			 M218.5,67v-5.8h1.1V67H218.5z"/>
		<path d="M221.3,58.5h1.1V67h-1.1V58.5z"/>
		<path d="M224,65.9c0.3,0.2,0.9,0.4,1.4,0.4c0.8,0,1.1-0.4,1.1-0.9c0-0.5-0.3-0.8-1.1-1.1c-1-0.4-1.5-0.9-1.5-1.6
			c0-0.9,0.8-1.7,2-1.7c0.6,0,1.1,0.2,1.4,0.4l-0.3,0.8c-0.2-0.1-0.6-0.3-1.2-0.3c-0.6,0-1,0.4-1,0.8c0,0.5,0.3,0.7,1.1,1
			c1,0.4,1.5,0.9,1.5,1.8c0,1-0.8,1.7-2.2,1.7c-0.6,0-1.2-0.2-1.6-0.4L224,65.9z"/>
		<path d="M232.5,58.9V67h-1v-8.1H232.5z"/>
		<path d="M234.4,62.8c0-0.6,0-1.1,0-1.6h0.9l0.1,1h0c0.3-0.6,1-1.1,1.9-1.1c0.8,0,2.1,0.5,2.1,2.5V67h-1.1v-3.3
			c0-0.9-0.3-1.7-1.3-1.7c-0.7,0-1.2,0.5-1.4,1.1c0,0.1-0.1,0.3-0.1,0.5V67h-1.1V62.8z"/>
		<path d="M246.1,58.5v7c0,0.5,0,1.1,0,1.5h-0.9l0-1h0c-0.3,0.6-1,1.1-2,1.1c-1.4,0-2.5-1.2-2.5-3c0-1.9,1.2-3.1,2.6-3.1
			c0.9,0,1.5,0.4,1.8,0.9h0v-3.5H246.1z M245,63.6c0-0.1,0-0.3,0-0.4c-0.2-0.7-0.7-1.2-1.5-1.2c-1.1,0-1.7,1-1.7,2.2
			c0,1.2,0.6,2.1,1.7,2.1c0.7,0,1.4-0.5,1.5-1.3c0-0.1,0-0.3,0-0.5V63.6z"/>
		<path d="M252.7,65.4c0,0.6,0,1.1,0,1.6h-0.9l-0.1-0.9h0c-0.3,0.5-0.9,1.1-1.9,1.1c-0.9,0-2-0.5-2-2.5v-3.4h1.1v3.2
			c0,1.1,0.3,1.8,1.3,1.8c0.7,0,1.2-0.5,1.4-1c0.1-0.2,0.1-0.3,0.1-0.5v-3.6h1.1V65.4z"/>
		<path d="M254.3,65.9c0.3,0.2,0.9,0.4,1.4,0.4c0.8,0,1.1-0.4,1.1-0.9c0-0.5-0.3-0.8-1.1-1.1c-1-0.4-1.5-0.9-1.5-1.6
			c0-0.9,0.8-1.7,2-1.7c0.6,0,1.1,0.2,1.4,0.4l-0.3,0.8c-0.2-0.1-0.6-0.3-1.2-0.3c-0.6,0-1,0.4-1,0.8c0,0.5,0.3,0.7,1.1,1
			c1,0.4,1.5,0.9,1.5,1.8c0,1-0.8,1.7-2.2,1.7c-0.6,0-1.2-0.2-1.6-0.4L254.3,65.9z"/>
		<path d="M260.5,59.5v1.7h1.5V62h-1.5v3.1c0,0.7,0.2,1.1,0.8,1.1c0.3,0,0.5,0,0.6-0.1l0,0.8c-0.2,0.1-0.5,0.1-0.9,0.1
			c-0.5,0-0.9-0.2-1.1-0.4c-0.3-0.3-0.4-0.8-0.4-1.5V62h-0.9v-0.8h0.9v-1.4L260.5,59.5z"/>
		<path d="M263.2,63c0-0.7,0-1.3,0-1.8h0.9l0,1.1h0c0.3-0.8,0.9-1.3,1.6-1.3c0.1,0,0.2,0,0.3,0v1c-0.1,0-0.2,0-0.4,0
			c-0.7,0-1.3,0.6-1.4,1.4c0,0.1,0,0.3,0,0.5V67h-1V63z"/>
		<path d="M267.8,61.2l1.3,3.4c0.1,0.4,0.3,0.8,0.4,1.2h0c0.1-0.3,0.2-0.8,0.4-1.2l1.2-3.4h1.1l-1.6,4.1c-0.8,2-1.3,3-2,3.6
			c-0.5,0.5-1,0.6-1.3,0.7l-0.3-0.9c0.3-0.1,0.6-0.3,0.9-0.5c0.3-0.2,0.6-0.6,0.9-1.2c0-0.1,0.1-0.2,0.1-0.3c0-0.1,0-0.1-0.1-0.3
			l-2.1-5.3H267.8z"/>
		<path d="M275.5,65.7c0.5,0.3,1.2,0.5,1.9,0.5c1.1,0,1.7-0.6,1.7-1.4c0-0.8-0.4-1.2-1.5-1.6c-1.3-0.5-2.1-1.2-2.1-2.3
			c0-1.3,1-2.2,2.6-2.2c0.8,0,1.4,0.2,1.8,0.4l-0.3,0.9c-0.3-0.1-0.8-0.4-1.5-0.4c-1.1,0-1.5,0.7-1.5,1.2c0,0.8,0.5,1.1,1.6,1.6
			c1.4,0.5,2.1,1.2,2.1,2.4c0,1.2-0.9,2.3-2.8,2.3c-0.8,0-1.6-0.2-2.1-0.5L275.5,65.7z"/>
		<path d="M286.8,64.1c0,2.1-1.5,3.1-2.9,3.1c-1.6,0-2.8-1.2-2.8-3c0-1.9,1.3-3.1,2.9-3.1C285.7,61.1,286.8,62.3,286.8,64.1z
			 M282.2,64.1c0,1.3,0.7,2.2,1.8,2.2c1,0,1.8-0.9,1.8-2.3c0-1-0.5-2.2-1.7-2.2C282.8,61.9,282.2,63,282.2,64.1z"/>
		<path d="M288.2,58.5h1.1V67h-1.1V58.5z"/>
		<path d="M295.9,65.4c0,0.6,0,1.1,0,1.6H295l-0.1-0.9h0c-0.3,0.5-0.9,1.1-1.9,1.1c-0.9,0-2-0.5-2-2.5v-3.4h1.1v3.2
			c0,1.1,0.3,1.8,1.3,1.8c0.7,0,1.2-0.5,1.4-1c0.1-0.2,0.1-0.3,0.1-0.5v-3.6h1.1V65.4z"/>
		<path d="M298.9,59.5v1.7h1.5V62h-1.5v3.1c0,0.7,0.2,1.1,0.8,1.1c0.3,0,0.5,0,0.6-0.1l0,0.8c-0.2,0.1-0.5,0.1-0.9,0.1
			c-0.5,0-0.9-0.2-1.1-0.4c-0.3-0.3-0.4-0.8-0.4-1.5V62h-0.9v-0.8h0.9v-1.4L298.9,59.5z"/>
		<path d="M302.8,59.6c0,0.4-0.3,0.6-0.7,0.6c-0.4,0-0.6-0.3-0.6-0.6c0-0.4,0.3-0.7,0.7-0.7C302.5,58.9,302.8,59.2,302.8,59.6z
			 M301.6,67v-5.8h1.1V67H301.6z"/>
		<path d="M309.6,64.1c0,2.1-1.5,3.1-2.9,3.1c-1.6,0-2.8-1.2-2.8-3c0-1.9,1.3-3.1,2.9-3.1C308.5,61.1,309.6,62.3,309.6,64.1z
			 M305,64.1c0,1.3,0.7,2.2,1.8,2.2c1,0,1.8-0.9,1.8-2.3c0-1-0.5-2.2-1.7-2.2C305.6,61.9,305,63,305,64.1z"/>
		<path d="M311,62.8c0-0.6,0-1.1,0-1.6h0.9l0.1,1h0c0.3-0.6,1-1.1,1.9-1.1c0.8,0,2.1,0.5,2.1,2.5V67h-1.1v-3.3
			c0-0.9-0.3-1.7-1.3-1.7c-0.7,0-1.2,0.5-1.4,1.1c0,0.1-0.1,0.3-0.1,0.5V67H311V62.8z"/>
	</g>
</g>
<g id="DESIGNED_BY_FREEPIK">
</g>
</svg>
